Lexend-SemiBold.ufo
<glyph name="exclam" format="2">
  <advance width="279"/>
  <unicode hex="0021"/>
  <outline>
    <contour>
      <point x="180" y="249" type="qcurve"/>
      <point x="97" y="249" type="line"/>
      <point x="85" y="342"/>
      <point x="67" y="543"/>
      <point x="67" y="632" type="qcurve"/>
      <point x="67" y="707" type="line"/>
      <point x="210" y="707" type="line"/>
      <point x="210" y="632" type="line"/>
      <point x="210" y="540"/>
      <point x="192" y="337"/>
    </contour>
    <contour>
      <point x="216" y="72" type="qcurve"/>
      <point x="216" y="36"/>
      <point x="172" y="-11"/>
      <point x="137" y="-11" type="qcurve"/>
      <point x="99" y="-11"/>
      <point x="58" y="32"/>
      <point x="58" y="72" type="qcurve"/>
      <point x="58" y="109"/>
      <point x="102" y="156"/>
      <point x="137" y="156" type="qcurve"/>
      <point x="175" y="156"/>
      <point x="216" y="112"/>
    </contour>
  </outline>
</glyph>
<glyph name="numbersign" format="2">
  <advance width="711"/>
  <unicode hex="0023"/>
  <outline>
    <contour>
      <point x="224" y="0" type="line"/>
      <point x="104" y="0" type="line"/>
      <point x="224" y="700" type="line"/>
      <point x="344" y="700" type="line"/>
    </contour>
    <contour>
      <point x="670" y="440" type="line"/>
      <point x="79" y="440" type="line"/>
      <point x="79" y="549" type="line"/>
      <point x="670" y="549" type="line"/>
    </contour>
    <contour>
      <point x="487" y="0" type="line"/>
      <point x="368" y="0" type="line"/>
      <point x="488" y="700" type="line"/>
      <point x="607" y="700" type="line"/>
    </contour>
    <contour>
      <point x="633" y="160" type="line"/>
      <point x="41" y="160" type="line"/>
      <point x="41" y="269" type="line"/>
      <point x="633" y="269" type="line"/>
    </contour>
  </outline>
</glyph>
<glyph name="asterisk" format="2">
  <advance width="418"/>
  <unicode hex="002A"/>
  <outline>
    <contour>
      <point x="261" y="363" type="line"/>
      <point x="163" y="363" type="line"/>
      <point x="175" y="490" type="line"/>
      <point x="187" y="488" type="line"/>
      <point x="71" y="409" type="line"/>
      <point x="24" y="490" type="line"/>
      <point x="149" y="544" type="line"/>
      <point x="148" y="537" type="line"/>
      <point x="23" y="595" type="line"/>
      <point x="70" y="676" type="line"/>
      <point x="188" y="591" type="line"/>
      <point x="175" y="591" type="line"/>
      <point x="162" y="721" type="line"/>
      <point x="260" y="721" type="line"/>
      <point x="248" y="584" type="line"/>
      <point x="235" y="591" type="line"/>
      <point x="349" y="674" type="line"/>
      <point x="395" y="593" type="line"/>
      <point x="268" y="534" type="line"/>
      <point x="268" y="545" type="line"/>
      <point x="394" y="491" type="line"/>
      <point x="347" y="411" type="line"/>
      <point x="235" y="491" type="line"/>
      <point x="249" y="490" type="line"/>
    </contour>
  </outline>
</glyph>
<glyph name="plus" format="2">
  <advance width="594"/>
  <unicode hex="002B"/>
  <outline>
    <contour>
      <point x="548" y="225" type="line"/>
      <point x="47" y="225" type="line"/>
      <point x="47" y="339" type="line"/>
      <point x="548" y="339" type="line"/>
    </contour>
    <contour>
      <point x="360" y="40" type="line"/>
      <point x="233" y="40" type="line"/>
      <point x="233" y="527" type="line"/>
      <point x="360" y="527" type="line"/>
    </contour>
  </outline>
</glyph>
<glyph name="zero" format="2">
  <advance width="646"/>
  <unicode hex="0030"/>
  <outline>
    <contour>
      <point x="604" y="350" type="qcurve"/>
      <point x="604" y="182"/>
      <point x="455" y="-10"/>
      <point x="323" y="-10" type="qcurve"/>
      <point x="190" y="-10"/>
      <point x="42" y="182"/>
      <point x="42" y="350" type="qcurve"/>
      <point x="42" y="518"/>
      <point x="190" y="710"/>
      <point x="323" y="710" type="qcurve"/>
      <point x="455" y="710"/>
      <point x="604" y="518"/>
    </contour>
    <contour>
      <point x="180" y="350" type="qcurve"/>
      <point x="180" y="237"/>
      <point x="254" y="115"/>
      <point x="323" y="115" type="qcurve"/>
      <point x="391" y="115"/>
      <point x="466" y="237"/>
      <point x="466" y="350" type="qcurve"/>
      <point x="466" y="464"/>
      <point x="391" y="589"/>
      <point x="323" y="589" type="qcurve"/>
      <point x="254" y="589"/>
      <point x="180" y="464"/>
    </contour>
  </outline>
</glyph>
<glyph name="one" format="2">
  <advance width="536"/>
  <unicode hex="0031"/>
  <outline>
    <contour>
      <point x="356" y="49" type="line"/>
      <point x="214" y="49" type="line"/>
      <point x="214" y="617" type="line"/>
      <point x="251" y="556" type="line"/>
      <point x="106" y="484" type="line"/>
      <point x="77" y="612" type="line"/>
      <point x="271" y="710" type="line"/>
      <point x="356" y="710" type="line"/>
    </contour>
    <contour>
      <point x="480" y="131" type="line"/>
      <point x="480" y="0" type="line"/>
      <point x="93" y="0" type="line"/>
      <point x="93" y="131" type="line"/>
    </contour>
  </outline>
</glyph>
<glyph name="two" format="2">
  <advance width="548"/>
  <unicode hex="0032"/>
  <outline>
    <contour>
      <point x="182" y="131" type="line"/>
      <point x="529" y="131" type="line"/>
      <point x="529" y="0" type="line"/>
      <point x="73" y="0" type="line"/>
      <point x="40" y="82" type="line"/>
      <point x="248" y="313" type="line"/>
      <point x="304" y="375"/>
      <point x="363" y="464"/>
      <point x="363" y="499" type="qcurve"/>
      <point x="363" y="536"/>
      <point x="316" y="580"/>
      <point x="273" y="580" type="qcurve"/>
      <point x="235" y="580"/>
      <point x="166" y="518"/>
      <point x="144" y="461" type="qcurve"/>
      <point x="37" y="522" type="line"/>
      <point x="65" y="609"/>
      <point x="201" y="714"/>
      <point x="289" y="713" type="qcurve"/>
      <point x="380" y="713"/>
      <point x="502" y="603"/>
      <point x="502" y="514" type="qcurve"/>
      <point x="502" y="459"/>
      <point x="437" y="331"/>
      <point x="361" y="247" type="qcurve"/>
      <point x="202" y="74" type="line"/>
    </contour>
  </outline>
</glyph>
<glyph name="four" format="2">
  <advance width="644"/>
  <unicode hex="0034"/>
  <outline>
    <contour>
      <point x="489" y="0" type="line"/>
      <point x="350" y="0" type="line"/>
      <point x="350" y="565" type="line"/>
      <point x="414" y="561" type="line"/>
      <point x="170" y="264" type="line"/>
      <point x="155" y="286" type="line"/>
      <point x="606" y="286" type="line"/>
      <point x="606" y="163" type="line"/>
      <point x="83" y="163" type="line"/>
      <point x="23" y="277" type="line"/>
      <point x="375" y="703" type="line"/>
      <point x="489" y="703" type="line"/>
    </contour>
  </outline>
</glyph>
<glyph name="five" format="2">
  <advance width="584"/>
  <unicode hex="0035"/>
  <outline>
    <contour>
      <point x="529" y="238" type="qcurve"/>
      <point x="529" y="134"/>
      <point x="381" y="-7"/>
      <point x="272" y="-7" type="qcurve"/>
      <point x="197" y="-7"/>
      <point x="75" y="56"/>
      <point x="35" y="116" type="qcurve"/>
      <point x="113" y="202" type="line"/>
      <point x="156" y="154"/>
      <point x="226" y="119"/>
      <point x="268" y="119" type="qcurve"/>
      <point x="323" y="119"/>
      <point x="394" y="186"/>
      <point x="394" y="235" type="qcurve"/>
      <point x="394" y="287"/>
      <point x="324" y="355"/>
      <point x="272" y="355" type="qcurve"/>
      <point x="241" y="355"/>
      <point x="185" y="339"/>
      <point x="133" y="311" type="qcurve"/>
      <point x="67" y="399" type="line"/>
      <point x="110" y="703" type="line"/>
      <point x="502" y="703" type="line"/>
      <point x="502" y="578" type="line"/>
      <point x="185" y="578" type="line"/>
      <point x="219" y="619" type="line"/>
      <point x="186" y="397" type="line"/>
      <point x="141" y="421" type="line"/>
      <point x="164" y="441"/>
      <point x="256" y="473"/>
      <point x="300" y="473" type="qcurve"/>
      <point x="398" y="473"/>
      <point x="529" y="341"/>
    </contour>
  </outline>
</glyph>
<glyph name="seven" format="2">
  <advance width="548"/>
  <unicode hex="0037"/>
  <outline>
    <contour>
      <point x="243" y="0" type="line"/>
      <point x="96" y="0" type="line"/>
      <point x="380" y="635" type="line"/>
      <point x="413" y="575" type="line"/>
      <point x="52" y="575" type="line"/>
      <point x="52" y="703" type="line"/>
      <point x="498" y="703" type="line"/>
      <point x="513" y="627" type="line"/>
    </contour>
  </outline>
</glyph>
<glyph name="eight" format="2">
  <advance width="590"/>
  <unicode hex="0038"/>
  <outline>
    <contour>
      <point x="524" y="516" type="qcurve"/>
      <point x="524" y="464"/>
      <point x="462" y="386"/>
      <point x="404" y="363" type="qcurve"/>
      <point x="398" y="391" type="line"/>
      <point x="463" y="371"/>
      <point x="545" y="272"/>
      <point x="545" y="203" type="qcurve"/>
      <point x="545" y="115"/>
      <point x="399" y="-3"/>
      <point x="295" y="-3" type="qcurve"/>
      <point x="191" y="-3"/>
      <point x="45" y="116"/>
      <point x="45" y="203" type="qcurve"/>
      <point x="45" y="275"/>
      <point x="122" y="370"/>
      <point x="194" y="395" type="qcurve"/>
      <point x="184" y="363" type="line"/>
      <point x="130" y="384"/>
      <point x="66" y="464"/>
      <point x="66" y="516" type="qcurve"/>
      <point x="66" y="597"/>
      <point x="200" y="707"/>
      <point x="295" y="707" type="qcurve"/>
      <point x="390" y="707"/>
      <point x="524" y="597"/>
    </contour>
    <contour>
      <point x="295" y="594" type="qcurve"/>
      <point x="253" y="594"/>
      <point x="198" y="546"/>
      <point x="198" y="510" type="qcurve"/>
      <point x="198" y="474"/>
      <point x="253" y="428"/>
      <point x="295" y="428" type="qcurve"/>
      <point x="336" y="428"/>
      <point x="391" y="474"/>
      <point x="391" y="510" type="qcurve"/>
      <point x="391" y="546"/>
      <point x="336" y="594"/>
    </contour>
    <contour>
      <point x="184" y="211" type="qcurve"/>
      <point x="184" y="171"/>
      <point x="248" y="117"/>
      <point x="295" y="117" type="qcurve"/>
      <point x="343" y="117"/>
      <point x="406" y="170"/>
      <point x="406" y="211" type="qcurve"/>
      <point x="406" y="254"/>
      <point x="343" y="310"/>
      <point x="295" y="310" type="qcurve"/>
      <point x="248" y="310"/>
      <point x="184" y="254"/>
    </contour>
  </outline>
</glyph>
<glyph name="semicolon" format="2">
  <advance width="273"/>
  <unicode hex="003B"/>
  <outline>
    <contour>
      <point x="137" y="125" type="qcurve"/>
      <point x="178" y="125"/>
      <point x="234" y="58"/>
      <point x="234" y="4" type="qcurve"/>
      <point x="234" y="-59"/>
      <point x="149" y="-169"/>
      <point x="85" y="-191" type="qcurve"/>
      <point x="42" y="-139" type="line"/>
      <point x="80" y="-120"/>
      <point x="127" y="-66"/>
      <point x="127" y="-47" type="qcurve"/>
      <point x="127" y="-37"/>
      <point x="117" y="-17"/>
      <point x="100" y="-2" type="qcurve"/>
      <point x="79" y="16"/>
      <point x="64" y="45"/>
      <point x="64" y="63" type="qcurve"/>
      <point x="64" y="91"/>
      <point x="105" y="125"/>
    </contour>
    <contour>
      <point x="217" y="455" type="qcurve"/>
      <point x="217" y="419"/>
      <point x="173" y="372"/>
      <point x="138" y="372" type="qcurve"/>
      <point x="100" y="372"/>
      <point x="59" y="415"/>
      <point x="59" y="455" type="qcurve"/>
      <point x="59" y="492"/>
      <point x="102" y="539"/>
      <point x="138" y="539" type="qcurve"/>
      <point x="175" y="539"/>
      <point x="217" y="495"/>
    </contour>
  </outline>
</glyph>
<glyph name="less" format="2">
  <advance width="525"/>
  <unicode hex="003C"/>
  <outline>
    <contour>
      <point x="132" y="221" type="line"/>
      <point x="132" y="289" type="line"/>
      <point x="480" y="99" type="line"/>
      <point x="422" y="-6" type="line"/>
      <point x="45" y="210" type="line"/>
      <point x="45" y="300" type="line"/>
      <point x="422" y="516" type="line"/>
      <point x="480" y="411" type="line"/>
    </contour>
  </outline>
</glyph>
<glyph name="greater" format="2">
  <advance width="525"/>
  <unicode hex="003E"/>
  <outline>
    <contour>
      <point x="398" y="289" type="line"/>
      <point x="398" y="221" type="line"/>
      <point x="50" y="411" type="line"/>
      <point x="108" y="516" type="line"/>
      <point x="485" y="300" type="line"/>
      <point x="485" y="210" type="line"/>
      <point x="108" y="-6" type="line"/>
      <point x="50" y="99" type="line"/>
    </contour>
  </outline>
</glyph>
<glyph name="B" format="2">
  <advance width="688"/>
  <unicode hex="0042"/>
  <outline>
    <contour>
      <point x="92" y="700" type="line"/>
      <point x="394" y="700" type="line"/>
      <point x="499" y="700"/>
      <point x="610" y="609"/>
      <point x="610" y="526" type="qcurve"/>
      <point x="610" y="452"/>
      <point x="514" y="364"/>
      <point x="428" y="363" type="qcurve"/>
      <point x="429" y="399" type="line"/>
      <point x="523" y="398"/>
      <point x="647" y="296"/>
      <point x="647" y="209" type="qcurve"/>
      <point x="647" y="106"/>
      <point x="514" y="0"/>
      <point x="404" y="0" type="qcurve"/>
      <point x="92" y="0" type="line"/>
    </contour>
    <contour>
      <point x="469" y="495" type="qcurve"/>
      <point x="469" y="532"/>
      <point x="418" y="574"/>
      <point x="369" y="574" type="qcurve"/>
      <point x="213" y="574" type="line"/>
      <point x="231" y="601" type="line"/>
      <point x="231" y="399" type="line"/>
      <point x="214" y="415" type="line"/>
      <point x="378" y="415" type="line"/>
      <point x="419" y="416"/>
      <point x="469" y="459"/>
    </contour>
    <contour>
      <point x="504" y="215" type="qcurve"/>
      <point x="504" y="255"/>
      <point x="444" y="298"/>
      <point x="393" y="298" type="qcurve"/>
      <point x="218" y="298" type="line"/>
      <point x="231" y="321" type="line"/>
      <point x="231" y="104" type="line"/>
      <point x="217" y="126" type="line"/>
      <point x="398" y="126" type="line"/>
      <point x="448" y="126"/>
      <point x="504" y="172"/>
    </contour>
  </outline>
</glyph>
<glyph name="C" format="2">
  <advance width="688"/>
  <unicode hex="0043"/>
  <outline>
    <contour>
      <point x="581" y="199" type="qcurve"/>
      <point x="651" y="86" type="line"/>
      <point x="615" y="45"/>
      <point x="472" y="-10"/>
      <point x="396" y="-10" type="qcurve"/>
      <point x="242" y="-10"/>
      <point x="45" y="192"/>
      <point x="45" y="352" type="qcurve"/>
      <point x="45" y="505"/>
      <point x="251" y="711"/>
      <point x="404" y="711" type="qcurve"/>
      <point x="479" y="711"/>
      <point x="618" y="648"/>
      <point x="660" y="595" type="qcurve"/>
      <point x="569" y="494" type="line"/>
      <point x="533" y="532"/>
      <point x="451" y="574"/>
      <point x="403" y="574" type="qcurve"/>
      <point x="315" y="574"/>
      <point x="193" y="450"/>
      <point x="193" y="351" type="qcurve"/>
      <point x="193" y="249"/>
      <point x="315" y="127"/>
      <point x="415" y="127" type="qcurve"/>
      <point x="464" y="127"/>
      <point x="550" y="167"/>
    </contour>
  </outline>
</glyph>
<glyph name="H" format="2">
  <advance width="772"/>
  <unicode hex="0048"/>
  <outline>
    <contour>
      <point x="92" y="700" type="line"/>
      <point x="236" y="700" type="line"/>
      <point x="236" y="0" type="line"/>
      <point x="92" y="0" type="line"/>
    </contour>
    <contour>
      <point x="536" y="700" type="line"/>
      <point x="680" y="700" type="line"/>
      <point x="680" y="0" type="line"/>
      <point x="536" y="0" type="line"/>
    </contour>
    <contour>
      <point x="150" y="283" type="line"/>
      <point x="151" y="415" type="line"/>
      <point x="608" y="415" type="line"/>
      <point x="608" y="283" type="line"/>
    </contour>
  </outline>
</glyph>
<glyph name="K" format="2">
  <advance width="736"/>
  <unicode hex="004B"/>
  <outline>
    <contour>
      <point x="92" y="0" type="line"/>
      <point x="92" y="700" type="line"/>
      <point x="236" y="700" type="line"/>
      <point x="236" y="0" type="line"/>
    </contour>
    <contour>
      <point x="202" y="208" type="line"/>
      <point x="174" y="342" type="line"/>
      <point x="529" y="700" type="line"/>
      <point x="706" y="700" type="line"/>
    </contour>
    <contour>
      <point x="548" y="0" type="line"/>
      <point x="284" y="349" type="line"/>
      <point x="384" y="435" type="line"/>
      <point x="719" y="0" type="line"/>
    </contour>
  </outline>
</glyph>
<glyph name="L" format="2">
  <advance width="605"/>
  <unicode hex="004C"/>
  <outline>
    <contour>
      <point x="182" y="131" type="line"/>
      <point x="555" y="131" type="line"/>
      <point x="555" y="0" type="line"/>
      <point x="92" y="0" type="line"/>
      <point x="92" y="700" type="line"/>
      <point x="236" y="700" type="line"/>
      <point x="236" y="78" type="line"/>
    </contour>
  </outline>
</glyph>
<glyph name="P" format="2">
  <advance width="647"/>
  <unicode hex="0050"/>
  <outline>
    <contour>
      <point x="89" y="700" type="line"/>
      <point x="384" y="700" type="line"/>
      <point x="476" y="700"/>
      <point x="604" y="572"/>
      <point x="604" y="477" type="qcurve"/>
      <point x="604" y="380"/>
      <point x="476" y="248"/>
      <point x="384" y="248" type="qcurve"/>
      <point x="215" y="248" type="line"/>
      <point x="233" y="269" type="line"/>
      <point x="233" y="0" type="line"/>
      <point x="89" y="0" type="line"/>
    </contour>
    <contour>
      <point x="214" y="379" type="line"/>
      <point x="369" y="379" type="line"/>
      <point x="405" y="379"/>
      <point x="456" y="434"/>
      <point x="456" y="475" type="qcurve"/>
      <point x="456" y="516"/>
      <point x="405" y="569"/>
      <point x="369" y="569" type="qcurve"/>
      <point x="214" y="569" type="line"/>
      <point x="231" y="591" type="line"/>
      <point x="231" y="358" type="line"/>
    </contour>
  </outline>
</glyph>
<glyph name="T" format="2">
  <advance width="622"/>
  <unicode hex="0054"/>
  <outline>
    <contour>
      <point x="380" y="0" type="line"/>
      <point x="236" y="0" type="line"/>
      <point x="236" y="651" type="line"/>
      <point x="380" y="651" type="line"/>
    </contour>
    <contour>
      <point x="589" y="569" type="line"/>
      <point x="33" y="569" type="line"/>
      <point x="33" y="700" type="line"/>
      <point x="589" y="700" type="line"/>
    </contour>
  </outline>
</glyph>
<glyph name="U" format="2">
  <advance width="755"/>
  <unicode hex="0055"/>
  <outline>
    <contour>
      <point x="530" y="701" type="line"/>
      <point x="669" y="701" type="line"/>
      <point x="669" y="269" type="line"/>
      <point x="669" y="150"/>
      <point x="504" y="-6"/>
      <point x="377" y="-6" type="qcurve"/>
      <point x="251" y="-6"/>
      <point x="85" y="150"/>
      <point x="85" y="269" type="qcurve"/>
      <point x="85" y="701" type="line"/>
      <point x="230" y="701" type="line"/>
      <point x="230" y="278" type="line"/>
      <point x="230" y="213"/>
      <point x="316" y="125"/>
      <point x="377" y="125" type="qcurve"/>
      <point x="442" y="125"/>
      <point x="530" y="213"/>
      <point x="530" y="278" type="qcurve"/>
    </contour>
  </outline>
</glyph>
<glyph name="V" format="2">
  <advance width="713"/>
  <unicode hex="0056"/>
  <outline>
    <contour>
      <point x="292" y="0" type="line"/>
      <point x="13" y="700" type="line"/>
      <point x="167" y="700" type="line"/>
      <point x="315" y="315" type="line"/>
      <point x="339" y="253"/>
      <point x="364" y="178"/>
      <point x="376" y="134" type="qcurve"/>
      <point x="347" y="133" type="line"/>
      <point x="359" y="178"/>
      <point x="384" y="255"/>
      <point x="406" y="315" type="qcurve"/>
      <point x="547" y="700" type="line"/>
      <point x="701" y="700" type="line"/>
      <point x="419" y="0" type="line"/>
    </contour>
  </outline>
</glyph>
<glyph name="Z" format="2">
  <advance width="673"/>
  <unicode hex="005A"/>
  <outline>
    <contour>
      <point x="86" y="700" type="line"/>
      <point x="605" y="700" type="line"/>
      <point x="605" y="602" type="line"/>
      <point x="222" y="87" type="line"/>
      <point x="180" y="130" type="line"/>
      <point x="616" y="130" type="line"/>
      <point x="616" y="0" type="line"/>
      <point x="60" y="0" type="line"/>
      <point x="60" y="99" type="line"/>
      <point x="446" y="613" type="line"/>
      <point x="486" y="566" type="line"/>
      <point x="86" y="566" type="line"/>
    </contour>
  </outline>
</glyph>
<glyph name="bracketleft" format="2">
  <advance width="413"/>
  <unicode hex="005B"/>
  <outline>
    <contour>
      <point x="360" y="-190" type="line"/>
      <point x="80" y="-190" type="line"/>
      <point x="80" y="700" type="line"/>
      <point x="360" y="700" type="line"/>
      <point x="360" y="587" type="line"/>
      <point x="202" y="587" type="line"/>
      <point x="208" y="595" type="line"/>
      <point x="208" y="-89" type="line"/>
      <point x="198" y="-77" type="line"/>
      <point x="360" y="-77" type="line"/>
    </contour>
  </outline>
</glyph>
<glyph name="backslash" format="2">
  <advance width="573"/>
  <unicode hex="005C"/>
  <outline>
    <contour>
      <point x="566" y="-107" type="line"/>
      <point x="430" y="-107" type="line"/>
      <point x="32" y="700" type="line"/>
      <point x="166" y="700" type="line"/>
    </contour>
  </outline>
</glyph>
<glyph name="bracketright" format="2">
  <advance width="413"/>
  <unicode hex="005D"/>
  <outline>
    <contour>
      <point x="52" y="700" type="line"/>
      <point x="333" y="700" type="line"/>
      <point x="333" y="-190" type="line"/>
      <point x="52" y="-190" type="line"/>
      <point x="52" y="-77" type="line"/>
      <point x="210" y="-77" type="line"/>
      <point x="204" y="-85" type="line"/>
      <point x="204" y="599" type="line"/>
      <point x="214" y="587" type="line"/>
      <point x="52" y="587" type="line"/>
    </contour>
  </outline>
</glyph>
<glyph name="underscore" format="2">
  <advance width="688"/>
  <unicode hex="005F"/>
  <outline>
    <contour>
      <point x="643" y="-179" type="line"/>
      <point x="45" y="-179" type="line"/>
      <point x="45" y="-70" type="line"/>
      <point x="643" y="-70" type="line"/>
    </contour>
  </outline>
</glyph>
<glyph name="grave" format="2">
  <advance width="276"/>
  <unicode hex="0060"/>
  <outline>
    <contour>
      <point x="243" y="630" type="line"/>
      <point x="201" y="567" type="line"/>
      <point x="9" y="670" type="line"/>
      <point x="79" y="765" type="line"/>
    </contour>
  </outline>
</glyph>
<glyph name="b" format="2">
  <advance width="646"/>
  <unicode hex="0062"/>
  <outline>
    <contour>
      <point x="369" y="539" type="qcurve"/>
      <point x="473" y="539"/>
      <point x="610" y="385"/>
      <point x="610" y="265" type="qcurve"/>
      <point x="610" y="145"/>
      <point x="475" y="-10"/>
      <point x="372" y="-10" type="qcurve"/>
      <point x="302" y="-10"/>
      <point x="186" y="66"/>
      <point x="175" y="114" type="qcurve"/>
      <point x="206" y="127" type="line"/>
      <point x="201" y="2" type="line"/>
      <point x="71" y="2" type="line"/>
      <point x="71" y="740" type="line"/>
      <point x="208" y="740" type="line"/>
      <point x="208" y="405" type="line"/>
      <point x="182" y="415" type="line"/>
      <point x="193" y="464"/>
      <point x="303" y="539"/>
    </contour>
    <contour>
      <point x="477" y="265" type="qcurve"/>
      <point x="477" y="334"/>
      <point x="402" y="421"/>
      <point x="341" y="421" type="qcurve"/>
      <point x="279" y="421"/>
      <point x="203" y="334"/>
      <point x="203" y="265" type="qcurve"/>
      <point x="203" y="195"/>
      <point x="279" y="107"/>
      <point x="341" y="107" type="qcurve"/>
      <point x="401" y="107"/>
      <point x="477" y="195"/>
    </contour>
  </outline>
</glyph>
<glyph name="d" format="2">
  <advance width="646"/>
  <unicode hex="0064"/>
  <outline>
    <contour>
      <point x="442" y="740" type="line"/>
      <point x="579" y="740" type="line"/>
      <point x="579" y="0" type="line"/>
      <point x="449" y="0" type="line"/>
      <point x="444" y="123" type="line"/>
      <point x="471" y="120" type="line"/>
      <point x="468" y="71"/>
      <point x="353" y="-10"/>
      <point x="280" y="-10" type="qcurve"/>
      <point x="175" y="-10"/>
      <point x="37" y="145"/>
      <point x="37" y="264" type="qcurve"/>
      <point x="37" y="383"/>
      <point x="175" y="539"/>
      <point x="280" y="539" type="qcurve"/>
      <point x="355" y="539"/>
      <point x="473" y="453"/>
      <point x="477" y="400" type="qcurve"/>
      <point x="442" y="394" type="line"/>
    </contour>
    <contour>
      <point x="173" y="264" type="qcurve"/>
      <point x="173" y="193"/>
      <point x="249" y="104"/>
      <point x="310" y="104" type="qcurve"/>
      <point x="371" y="104"/>
      <point x="447" y="193"/>
      <point x="447" y="264" type="qcurve"/>
      <point x="447" y="336"/>
      <point x="371" y="425"/>
      <point x="310" y="425" type="qcurve"/>
      <point x="249" y="425"/>
      <point x="173" y="336"/>
    </contour>
  </outline>
</glyph>
<glyph name="f" format="2">
  <advance width="393"/>
  <unicode hex="0066"/>
  <outline>
    <contour>
      <point x="367" y="516" type="line"/>
      <point x="367" y="399" type="line"/>
      <point x="34" y="399" type="line"/>
      <point x="34" y="516" type="line"/>
    </contour>
    <contour>
      <point x="402" y="698" type="qcurve"/>
      <point x="361" y="597" type="line"/>
      <point x="348" y="606"/>
      <point x="321" y="617"/>
      <point x="309" y="617" type="qcurve"/>
      <point x="280" y="617"/>
      <point x="252" y="588"/>
      <point x="252" y="560" type="qcurve"/>
      <point x="252" y="0" type="line"/>
      <point x="226" y="0"/>
      <point x="141" y="0"/>
      <point x="115" y="0" type="qcurve"/>
      <point x="115" y="568" type="line"/>
      <point x="115" y="642"/>
      <point x="209" y="741"/>
      <point x="285" y="741" type="qcurve"/>
      <point x="320" y="741"/>
      <point x="380" y="718"/>
    </contour>
  </outline>
</glyph>
<glyph name="k" format="2">
  <advance width="603"/>
  <unicode hex="006B"/>
  <outline>
    <contour>
      <point x="209" y="0" type="line"/>
      <point x="73" y="0" type="line"/>
      <point x="73" y="740" type="line"/>
      <point x="209" y="740" type="line"/>
    </contour>
    <contour>
      <point x="415" y="528" type="line"/>
      <point x="595" y="528" type="line"/>
      <point x="202" y="159" type="line"/>
      <point x="165" y="276" type="line"/>
    </contour>
    <contour>
      <point x="595" y="0" type="line"/>
      <point x="430" y="0" type="line"/>
      <point x="239" y="238" type="line"/>
      <point x="335" y="316" type="line"/>
    </contour>
  </outline>
</glyph>
<glyph name="m" format="2">
  <advance width="945"/>
  <unicode hex="006D"/>
  <outline>
    <contour>
      <point x="362" y="538" type="qcurve"/>
      <point x="425" y="538"/>
      <point x="506" y="478"/>
      <point x="528" y="411" type="qcurve"/>
      <point x="507" y="414" type="line"/>
      <point x="515" y="430" type="line"/>
      <point x="544" y="479"/>
      <point x="645" y="538"/>
      <point x="700" y="538" type="qcurve"/>
      <point x="790" y="538"/>
      <point x="881" y="428"/>
      <point x="881" y="320" type="qcurve"/>
      <point x="881" y="0" type="line"/>
      <point x="744" y="0" type="line"/>
      <point x="744" y="310" type="line"/>
      <point x="744" y="366"/>
      <point x="699" y="420"/>
      <point x="654" y="420" type="qcurve"/>
      <point x="606" y="420"/>
      <point x="543" y="360"/>
      <point x="543" y="315" type="qcurve"/>
      <point x="543" y="0" type="line"/>
      <point x="406" y="0" type="line"/>
      <point x="406" y="312" type="line"/>
      <point x="406" y="364"/>
      <point x="360" y="420"/>
      <point x="317" y="420" type="qcurve"/>
      <point x="270" y="420"/>
      <point x="207" y="360"/>
      <point x="207" y="317" type="qcurve"/>
      <point x="207" y="0" type="line"/>
      <point x="70" y="0" type="line"/>
      <point x="70" y="528" type="line"/>
      <point x="202" y="528" type="line"/>
      <point x="205" y="426" type="line"/>
      <point x="184" y="420" type="line"/>
      <point x="210" y="472"/>
      <point x="306" y="538"/>
    </contour>
  </outline>
</glyph>
<glyph name="x" format="2">
  <advance width="588"/>
  <unicode hex="0078"/>
  <outline>
    <contour>
      <point x="20" y="528" type="line"/>
      <point x="186" y="528" type="line"/>
      <point x="319" y="342" type="line"/>
      <point x="364" y="281" type="line"/>
      <point x="571" y="0" type="line"/>
      <point x="408" y="0" type="line"/>
      <point x="271" y="192" type="line"/>
      <point x="227" y="251" type="line"/>
    </contour>
    <contour>
      <point x="177" y="-1" type="line"/>
      <point x="17" y="0" type="line"/>
      <point x="228" y="286" type="line"/>
      <point x="301" y="191" type="line"/>
    </contour>
    <contour>
      <point x="397" y="528" type="line"/>
      <point x="557" y="528" type="line"/>
      <point x="355" y="241" type="line"/>
      <point x="282" y="330" type="line"/>
    </contour>
  </outline>
</glyph>
<glyph name="braceleft" format="2">
  <advance width="420"/>
  <unicode hex="007B"/>
  <outline>
    <contour>
      <point x="394" y="-104" type="qcurve"/>
      <point x="366" y="-203" type="line"/>
      <point x="265" y="-183"/>
      <point x="172" y="-92"/>
      <point x="172" y="-7" type="qcurve"/>
      <point x="173" y="88" type="line"/>
      <point x="173" y="141"/>
      <point x="126" y="196"/>
      <point x="82" y="197" type="qcurve"/>
      <point x="41" y="197" type="line"/>
      <point x="41" y="303" type="line"/>
      <point x="84" y="303" type="line"/>
      <point x="128" y="304"/>
      <point x="173" y="358"/>
      <point x="173" y="412" type="qcurve"/>
      <point x="172" y="507" type="line"/>
      <point x="172" y="589"/>
      <point x="264" y="682"/>
      <point x="366" y="703" type="qcurve"/>
      <point x="394" y="608" type="line"/>
      <point x="336" y="589"/>
      <point x="294" y="543"/>
      <point x="294" y="486" type="qcurve"/>
      <point x="296" y="398" type="line"/>
      <point x="296" y="340"/>
      <point x="232" y="263"/>
      <point x="167" y="246" type="qcurve"/>
      <point x="167" y="255" type="line"/>
      <point x="232" y="236"/>
      <point x="296" y="159"/>
      <point x="296" y="102" type="qcurve"/>
      <point x="294" y="14" type="line"/>
      <point x="294" y="-40"/>
      <point x="336" y="-85"/>
    </contour>
  </outline>
</glyph>
<glyph name="braceright" format="2">
  <advance width="420"/>
  <unicode hex="007D"/>
  <outline>
    <contour>
      <point x="26" y="604" type="qcurve"/>
      <point x="54" y="703" type="line"/>
      <point x="155" y="683"/>
      <point x="248" y="592"/>
      <point x="248" y="507" type="qcurve"/>
      <point x="247" y="412" type="line"/>
      <point x="247" y="359"/>
      <point x="294" y="304"/>
      <point x="338" y="303" type="qcurve"/>
      <point x="379" y="303" type="line"/>
      <point x="379" y="197" type="line"/>
      <point x="336" y="197" type="line"/>
      <point x="292" y="196"/>
      <point x="247" y="142"/>
      <point x="247" y="88" type="qcurve"/>
      <point x="248" y="-7" type="line"/>
      <point x="248" y="-89"/>
      <point x="156" y="-182"/>
      <point x="54" y="-203" type="qcurve"/>
      <point x="26" y="-108" type="line"/>
      <point x="84" y="-89"/>
      <point x="126" y="-43"/>
      <point x="126" y="14" type="qcurve"/>
      <point x="124" y="102" type="line"/>
      <point x="124" y="160"/>
      <point x="188" y="237"/>
      <point x="253" y="254" type="qcurve"/>
      <point x="253" y="245" type="line"/>
      <point x="188" y="264"/>
      <point x="124" y="341"/>
      <point x="124" y="398" type="qcurve"/>
      <point x="126" y="486" type="line"/>
      <point x="126" y="540"/>
      <point x="84" y="585"/>
    </contour>
  </outline>
</glyph>
<glyph name="cent" format="2">
  <advance width="554"/>
  <unicode hex="00A2"/>
  <outline>
    <contour>
      <point x="361" y="107" type="line"/>
      <point x="361" y="0" type="line"/>
      <point x="251" y="0" type="line"/>
      <point x="251" y="108" type="line"/>
      <point x="269" y="145" type="line"/>
      <point x="269" y="559" type="line"/>
      <point x="251" y="606" type="line"/>
      <point x="251" y="703" type="line"/>
      <point x="361" y="703" type="line"/>
      <point x="361" y="605" type="line"/>
      <point x="345" y="565" type="line"/>
      <point x="345" y="142" type="line"/>
    </contour>
    <contour>
      <point x="323" y="508" type="qcurve"/>
      <point x="258" y="508"/>
      <point x="175" y="420"/>
      <point x="175" y="353" type="qcurve"/>
      <point x="175" y="287"/>
      <point x="260" y="198"/>
      <point x="324" y="198" type="qcurve"/>
      <point x="363" y="198"/>
      <point x="429" y="233"/>
      <point x="456" y="265" type="qcurve"/>
      <point x="531" y="175" type="line"/>
      <point x="497" y="131"/>
      <point x="377" y="78"/>
      <point x="310" y="78" type="qcurve"/>
      <point x="196" y="78"/>
      <point x="43" y="235"/>
      <point x="43" y="353" type="qcurve"/>
      <point x="43" y="470"/>
      <point x="196" y="627"/>
      <point x="310" y="627" type="qcurve"/>
      <point x="381" y="627"/>
      <point x="498" y="575"/>
      <point x="531" y="528" type="qcurve"/>
      <point x="456" y="438" type="line"/>
      <point x="435" y="467"/>
      <point x="361" y="508"/>
    </contour>
  </outline>
</glyph>
<glyph name="yen" format="2">
  <advance width="683"/>
  <unicode hex="00A5"/>
  <outline>
    <contour>
      <point x="572" y="108" type="line"/>
      <point x="147" y="109" type="line"/>
      <point x="147" y="187" type="line"/>
      <point x="572" y="185" type="line"/>
    </contour>
    <contour>
      <point x="572" y="238" type="line"/>
      <point x="147" y="239" type="line"/>
      <point x="147" y="317" type="line"/>
      <point x="572" y="315" type="line"/>
    </contour>
    <contour>
      <point x="519" y="700" type="line"/>
      <point x="680" y="700" type="line"/>
      <point x="409" y="289" type="line"/>
      <point x="424" y="357" type="line"/>
      <point x="424" y="0" type="line"/>
      <point x="279" y="0" type="line"/>
      <point x="279" y="349" type="line"/>
      <point x="286" y="300" type="line"/>
      <point x="3" y="700" type="line"/>
      <point x="170" y="700" type="line"/>
      <point x="386" y="390" type="line"/>
      <point x="324" y="393" type="line"/>
    </contour>
  </outline>
</glyph>
<glyph name="brokenbar" format="2">
  <advance width="288"/>
  <unicode hex="00A6"/>
  <outline>
    <contour>
      <point x="209" y="740" type="line"/>
      <point x="209" y="344" type="line"/>
      <point x="79" y="344" type="line"/>
      <point x="79" y="740" type="line"/>
    </contour>
    <contour>
      <point x="209" y="195" type="line"/>
      <point x="209" y="-202" type="line"/>
      <point x="79" y="-202" type="line"/>
      <point x="79" y="195" type="line"/>
    </contour>
  </outline>
</glyph>
<glyph name="guillemotleft" format="2">
  <advance width="525"/>
  <unicode hex="00AB"/>
  <outline>
    <contour>
      <point x="367" y="248" type="line"/>
      <point x="368" y="272" type="line"/>
      <point x="489" y="92" type="line"/>
      <point x="409" y="36" type="line"/>
      <point x="238" y="257" type="line"/>
      <point x="238" y="259" type="line"/>
      <point x="409" y="483" type="line"/>
      <point x="488" y="428" type="line"/>
    </contour>
    <contour>
      <point x="134" y="248" type="line"/>
      <point x="135" y="272" type="line"/>
      <point x="256" y="92" type="line"/>
      <point x="176" y="36" type="line"/>
      <point x="5" y="257" type="line"/>
      <point x="5" y="259" type="line"/>
      <point x="176" y="483" type="line"/>
      <point x="255" y="428" type="line"/>
    </contour>
  </outline>
</glyph>
<glyph name="macron" format="2">
  <advance width="424"/>
  <unicode hex="00AF"/>
  <outline>
    <contour>
      <point x="362" y="583" type="line"/>
      <point x="62" y="583" type="line"/>
      <point x="62" y="673" type="line"/>
      <point x="362" y="673" type="line"/>
    </contour>
  </outline>
</glyph>
<glyph name="plusminus" format="2">
  <advance width="582"/>
  <unicode hex="00B1"/>
  <outline>
    <contour>
      <point x="540" y="301" type="line"/>
      <point x="45" y="301" type="line"/>
      <point x="45" y="414" type="line"/>
      <point x="540" y="414" type="line"/>
    </contour>
    <contour>
      <point x="358" y="167" type="line"/>
      <point x="227" y="167" type="line"/>
      <point x="227" y="558" type="line"/>
      <point x="358" y="558" type="line"/>
    </contour>
    <contour>
      <point x="541" y="-4" type="line"/>
      <point x="46" y="-4" type="line"/>
      <point x="46" y="111" type="line"/>
      <point x="541" y="111" type="line"/>
    </contour>
  </outline>
</glyph>
<glyph name="uni00B2" format="2">
  <advance width="358"/>
  <unicode hex="00B2"/>
  <outline>
    <contour>
      <point x="315" y="418" type="line"/>
      <point x="61" y="418" type="line"/>
      <point x="49" y="496" type="line"/>
      <point x="135" y="571" type="line"/>
      <point x="144" y="579"/>
      <point x="174" y="606"/>
      <point x="184" y="617" type="qcurve"/>
      <point x="198" y="632"/>
      <point x="210" y="655"/>
      <point x="210" y="666" type="qcurve"/>
      <point x="210" y="681"/>
      <point x="190" y="701"/>
      <point x="173" y="701" type="qcurve"/>
      <point x="160" y="701"/>
      <point x="127" y="678"/>
      <point x="105" y="650" type="qcurve"/>
      <point x="38" y="697" type="line"/>
      <point x="66" y="740"/>
      <point x="140" y="788"/>
      <point x="184" y="788" type="qcurve"/>
      <point x="241" y="788"/>
      <point x="309" y="724"/>
      <point x="309" y="676" type="qcurve"/>
      <point x="309" y="637"/>
      <point x="258" y="579"/>
      <point x="200" y="531" type="qcurve"/>
      <point x="140" y="480" type="line"/>
      <point x="143" y="498" type="line"/>
      <point x="315" y="498" type="line"/>
    </contour>
  </outline>
</glyph>
<glyph name="acute" format="2">
  <advance width="291"/>
  <unicode hex="00B4"/>
  <outline>
    <contour>
      <point x="263" y="670" type="line"/>
      <point x="71" y="567" type="line"/>
      <point x="29" y="630" type="line"/>
      <point x="193" y="765" type="line"/>
    </contour>
  </outline>
</glyph>
<glyph name="paragraph" format="2">
  <advance width="740"/>
  <unicode hex="00B6"/>
  <outline>
    <contour>
      <point x="651" y="0" type="line"/>
      <point x="510" y="0" type="line"/>
      <point x="510" y="660" type="line"/>
      <point x="546" y="596" type="line"/>
      <point x="326" y="596" type="line"/>
      <point x="390" y="652" type="line"/>
      <point x="390" y="0" type="line"/>
      <point x="248" y="0" type="line"/>
      <point x="248" y="314" type="line"/>
      <point x="286" y="276" type="line"/>
      <point x="235" y="276" type="line"/>
      <point x="154" y="276"/>
      <point x="47" y="394"/>
      <point x="47" y="484" type="qcurve"/>
      <point x="47" y="582"/>
      <point x="170" y="700"/>
      <point x="272" y="700" type="qcurve"/>
      <point x="651" y="700" type="line"/>
    </contour>
  </outline>
</glyph>
<glyph name="uni00B9" format="2">
  <advance width="288"/>
  <unicode hex="00B9"/>
  <outline>
    <contour>
      <point x="218" y="788" type="line"/>
      <point x="218" y="430" type="line"/>
      <point x="192" y="430"/>
      <point x="146" y="430"/>
      <point x="120" y="430" type="qcurve"/>
      <point x="120" y="714" type="line"/>
      <point x="133" y="683" type="line"/>
      <point x="76" y="647" type="line"/>
      <point x="35" y="723" type="line"/>
      <point x="144" y="788" type="line"/>
    </contour>
  </outline>
</glyph>
<glyph name="ordmasculine" format="2">
  <advance width="381"/>
  <unicode hex="00BA"/>
  <outline>
    <contour>
      <point x="189" y="714" type="qcurve"/>
      <point x="259" y="714"/>
      <point x="354" y="620"/>
      <point x="354" y="551" type="qcurve"/>
      <point x="354" y="483"/>
      <point x="260" y="392"/>
      <point x="189" y="392" type="qcurve"/>
      <point x="119" y="392"/>
      <point x="27" y="482"/>
      <point x="27" y="551" type="qcurve"/>
      <point x="27" y="621"/>
      <point x="119" y="714"/>
    </contour>
    <contour>
      <point x="189" y="471" type="qcurve"/>
      <point x="217" y="471"/>
      <point x="250" y="517"/>
      <point x="250" y="552" type="qcurve"/>
      <point x="250" y="589"/>
      <point x="217" y="634"/>
      <point x="189" y="634" type="qcurve"/>
      <point x="162" y="634"/>
      <point x="129" y="588"/>
      <point x="129" y="552" type="qcurve"/>
      <point x="129" y="516"/>
      <point x="162" y="471"/>
    </contour>
  </outline>
</glyph>
<glyph name="onequarter" format="2">
  <advance width="811"/>
  <unicode hex="00BC"/>
  <outline>
    <contour>
      <point x="226" y="718" type="line"/>
      <point x="226" y="360" type="line"/>
      <point x="200" y="360"/>
      <point x="154" y="360"/>
      <point x="128" y="360" type="qcurve"/>
      <point x="128" y="644" type="line"/>
      <point x="141" y="613" type="line"/>
      <point x="84" y="577" type="line"/>
      <point x="43" y="653" type="line"/>
      <point x="152" y="718" type="line"/>
    </contour>
    <contour>
      <point x="223" y="0" type="line"/>
      <point x="98" y="0" type="line"/>
      <point x="333" y="354" type="line"/>
      <point x="561" y="700" type="line"/>
      <point x="691" y="700" type="line"/>
      <point x="428" y="307" type="line"/>
    </contour>
    <contour>
      <point x="712" y="-1" type="line"/>
      <point x="610" y="-1" type="line"/>
      <point x="610" y="98" type="line"/>
      <point x="620" y="127" type="line"/>
      <point x="620" y="295" type="line"/>
      <point x="656" y="280" type="line"/>
      <point x="521" y="123" type="line"/>
      <point x="513" y="155" type="line"/>
      <point x="771" y="155" type="line"/>
      <point x="771" y="74" type="line"/>
      <point x="466" y="74" type="line"/>
      <point x="447" y="150" type="line"/>
      <point x="622" y="364" type="line"/>
      <point x="712" y="364" type="line"/>
    </contour>
  </outline>
</glyph>
<glyph name="threequarters" format="2">
  <advance width="825"/>
  <unicode hex="00BE"/>
  <outline>
    <contour>
      <point x="282" y="464" type="qcurve"/>
      <point x="282" y="410"/>
      <point x="203" y="342"/>
      <point x="147" y="342" type="qcurve"/>
      <point x="111" y="342"/>
      <point x="49" y="360"/>
      <point x="20" y="376" type="qcurve"/>
      <point x="60" y="444" type="line"/>
      <point x="78" y="434"/>
      <point x="113" y="423"/>
      <point x="131" y="423" type="qcurve"/>
      <point x="156" y="423"/>
      <point x="187" y="448"/>
      <point x="187" y="468" type="qcurve"/>
      <point x="187" y="485"/>
      <point x="159" y="507"/>
      <point x="135" y="507" type="qcurve"/>
      <point x="125" y="507"/>
      <point x="104" y="503"/>
      <point x="79" y="496" type="qcurve"/>
      <point x="56" y="555" type="line"/>
      <point x="182" y="650" type="line"/>
      <point x="195" y="631" type="line"/>
      <point x="45" y="631" type="line"/>
      <point x="45" y="712" type="line"/>
      <point x="250" y="712" type="line"/>
      <point x="259" y="635" type="line"/>
      <point x="148" y="551" type="line"/>
      <point x="139" y="557" type="line"/>
      <point x="147" y="562"/>
      <point x="168" y="568"/>
      <point x="174" y="568" type="qcurve"/>
      <point x="222" y="568"/>
      <point x="282" y="511"/>
    </contour>
    <contour>
      <point x="245" y="0" type="line"/>
      <point x="120" y="0" type="line"/>
      <point x="355" y="354" type="line"/>
      <point x="583" y="700" type="line"/>
      <point x="713" y="700" type="line"/>
      <point x="450" y="307" type="line"/>
    </contour>
    <contour>
      <point x="726" y="-1" type="line"/>
      <point x="624" y="-1" type="line"/>
      <point x="624" y="98" type="line"/>
      <point x="634" y="127" type="line"/>
      <point x="634" y="295" type="line"/>
      <point x="670" y="280" type="line"/>
      <point x="535" y="123" type="line"/>
      <point x="527" y="155" type="line"/>
      <point x="785" y="155" type="line"/>
      <point x="785" y="74" type="line"/>
      <point x="480" y="74" type="line"/>
      <point x="461" y="150" type="line"/>
      <point x="637" y="364" type="line"/>
      <point x="726" y="364" type="line"/>
    </contour>
  </outline>
</glyph>
<glyph name="Acircumflex" format="2">
  <advance width="697"/>
  <unicode hex="00C2"/>
  <outline>
    <contour>
      <point x="334" y="573" type="qcurve"/>
      <point x="360" y="574" type="line"/>
      <point x="348" y="531"/>
      <point x="313" y="422"/>
      <point x="297" y="381" type="qcurve"/>
      <point x="153" y="0" type="line"/>
      <point x="10" y="0" type="line"/>
      <point x="284" y="700" type="line"/>
      <point x="414" y="700" type="line"/>
      <point x="687" y="0" type="line"/>
      <point x="539" y="0" type="line"/>
      <point x="395" y="383" type="line"/>
      <point x="380" y="424"/>
      <point x="346" y="530"/>
    </contour>
    <contour>
      <point x="351" y="151" type="line"/>
      <point x="137" y="151" type="line"/>
      <point x="184" y="269" type="line"/>
      <point x="351" y="269" type="line"/>
    </contour>
    <contour>
      <point x="554" y="151" type="line"/>
      <point x="351" y="151" type="line"/>
      <point x="351" y="269" type="line"/>
      <point x="505" y="269" type="line"/>
    </contour>
    <contour>
      <point x="475" y="758" type="line"/>
      <point x="335" y="836" type="line"/>
      <point x="364" y="836" type="line"/>
      <point x="225" y="758" type="line"/>
      <point x="177" y="804" type="line"/>
      <point x="308" y="920" type="line"/>
      <point x="391" y="920" type="line"/>
      <point x="522" y="804" type="line"/>
    </contour>
  </outline>
</glyph>
<glyph name="Egrave" format="2">
  <advance width="632"/>
  <unicode hex="00C8"/>
  <outline>
    <contour>
      <point x="233" y="0" type="line"/>
      <point x="92" y="0" type="line"/>
      <point x="92" y="700" type="line"/>
      <point x="233" y="700" type="line"/>
    </contour>
    <contour>
      <point x="566" y="0" type="line"/>
      <point x="159" y="0" type="line"/>
      <point x="159" y="128" type="line"/>
      <point x="566" y="128" type="line"/>
    </contour>
    <contour>
      <point x="511" y="295" type="line"/>
      <point x="159" y="295" type="line"/>
      <point x="159" y="419" type="line"/>
      <point x="511" y="419" type="line"/>
    </contour>
    <contour>
      <point x="560" y="572" type="line"/>
      <point x="159" y="572" type="line"/>
      <point x="159" y="700" type="line"/>
      <point x="560" y="700" type="line"/>
    </contour>
    <contour>
      <point x="413" y="824" type="line"/>
      <point x="371" y="759" type="line"/>
      <point x="179" y="863" type="line"/>
      <point x="250" y="959" type="line"/>
    </contour>
  </outline>
</glyph>
<glyph name="Igrave" format="2">
  <advance width="519"/>
  <unicode hex="00CC"/>
  <outline>
    <contour>
      <point x="333" y="700" type="qcurve"/>
      <point x="333" y="0" type="line"/>
      <point x="189" y="0" type="line"/>
      <point x="189" y="700" type="line"/>
      <point x="216" y="700"/>
      <point x="306" y="700"/>
    </contour>
    <contour>
      <point x="450" y="700" type="line"/>
      <point x="450" y="575" type="line"/>
      <point x="73" y="575" type="line"/>
      <point x="73" y="700" type="line"/>
    </contour>
    <contour>
      <point x="450" y="125" type="line"/>
      <point x="450" y="0" type="line"/>
      <point x="73" y="0" type="line"/>
      <point x="73" y="125" type="line"/>
    </contour>
    <contour>
      <point x="345" y="824" type="line"/>
      <point x="302" y="759" type="line"/>
      <point x="110" y="863" type="line"/>
      <point x="181" y="959" type="line"/>
    </contour>
  </outline>
</glyph>
<glyph name="Icircumflex" format="2">
  <advance width="519"/>
  <unicode hex="00CE"/>
  <outline>
    <contour>
      <point x="333" y="700" type="qcurve"/>
      <point x="333" y="0" type="line"/>
      <point x="189" y="0" type="line"/>
      <point x="189" y="700" type="line"/>
      <point x="216" y="700"/>
      <point x="306" y="700"/>
    </contour>
    <contour>
      <point x="450" y="700" type="line"/>
      <point x="450" y="575" type="line"/>
      <point x="73" y="575" type="line"/>
      <point x="73" y="700" type="line"/>
    </contour>
    <contour>
      <point x="450" y="125" type="line"/>
      <point x="450" y="0" type="line"/>
      <point x="73" y="0" type="line"/>
      <point x="73" y="125" type="line"/>
    </contour>
    <contour>
      <point x="384" y="758" type="line"/>
      <point x="244" y="836" type="line"/>
      <point x="274" y="836" type="line"/>
      <point x="134" y="758" type="line"/>
      <point x="87" y="804" type="line"/>
      <point x="218" y="920" type="line"/>
      <point x="300" y="920" type="line"/>
      <point x="431" y="804" type="line"/>
    </contour>
  </outline>
</glyph>
<glyph name="Idieresis" format="2">
  <advance width="519"/>
  <unicode hex="00CF"/>
  <outline>
    <contour>
      <point x="333" y="700" type="qcurve"/>
      <point x="333" y="0" type="line"/>
      <point x="189" y="0" type="line"/>
      <point x="189" y="700" type="line"/>
      <point x="216" y="700"/>
      <point x="306" y="700"/>
    </contour>
    <contour>
      <point x="450" y="700" type="line"/>
      <point x="450" y="575" type="line"/>
      <point x="73" y="575" type="line"/>
      <point x="73" y="700" type="line"/>
    </contour>
    <contour>
      <point x="450" y="125" type="line"/>
      <point x="450" y="0" type="line"/>
      <point x="73" y="0" type="line"/>
      <point x="73" y="125" type="line"/>
    </contour>
    <contour>
      <point x="226" y="833" type="qcurve"/>
      <point x="226" y="799"/>
      <point x="183" y="756"/>
      <point x="146" y="756" type="qcurve"/>
      <point x="108" y="756"/>
      <point x="67" y="796"/>
      <point x="67" y="833" type="qcurve"/>
      <point x="67" y="867"/>
      <point x="110" y="909"/>
      <point x="146" y="909" type="qcurve"/>
      <point x="184" y="909"/>
      <point x="226" y="870"/>
    </contour>
    <contour>
      <point x="454" y="833" type="qcurve"/>
      <point x="454" y="799"/>
      <point x="411" y="756"/>
      <point x="374" y="756" type="qcurve"/>
      <point x="336" y="756"/>
      <point x="295" y="796"/>
      <point x="295" y="833" type="qcurve"/>
      <point x="295" y="867"/>
      <point x="338" y="909"/>
      <point x="374" y="909" type="qcurve"/>
      <point x="412" y="909"/>
      <point x="454" y="870"/>
    </contour>
  </outline>
</glyph>
<glyph name="Eth" format="2">
  <advance width="762"/>
  <unicode hex="00D0"/>
  <outline>
    <contour>
      <point x="92" y="700" type="line"/>
      <point x="377" y="700" type="line"/>
      <point x="530" y="700"/>
      <point x="717" y="505"/>
      <point x="717" y="350" type="qcurve"/>
      <point x="717" y="194"/>
      <point x="531" y="0"/>
      <point x="377" y="0" type="qcurve"/>
      <point x="92" y="0" type="line"/>
    </contour>
    <contour>
      <point x="222" y="131" type="line"/>
      <point x="372" y="131" type="line"/>
      <point x="465" y="131"/>
      <point x="571" y="249"/>
      <point x="571" y="350" type="qcurve"/>
      <point x="571" y="450"/>
      <point x="464" y="569"/>
      <point x="372" y="569" type="qcurve"/>
      <point x="219" y="569" type="line"/>
      <point x="236" y="592" type="line"/>
      <point x="236" y="106" type="line"/>
    </contour>
    <contour>
      <point x="318" y="297" type="line"/>
      <point x="16" y="297" type="line"/>
      <point x="16" y="404" type="line"/>
      <point x="318" y="404" type="line"/>
    </contour>
  </outline>
</glyph>
<glyph name="Ograve" format="2">
  <advance width="799"/>
  <unicode hex="00D2"/>
  <outline>
    <contour>
      <point x="400" y="713" type="qcurve"/>
      <point x="553" y="713"/>
      <point x="754" y="507"/>
      <point x="754" y="352" type="qcurve"/>
      <point x="754" y="196"/>
      <point x="553" y="-10"/>
      <point x="400" y="-10" type="qcurve"/>
      <point x="246" y="-10"/>
      <point x="45" y="195"/>
      <point x="45" y="352" type="qcurve"/>
      <point x="45" y="508"/>
      <point x="246" y="713"/>
    </contour>
    <contour>
      <point x="400" y="127" type="qcurve"/>
      <point x="490" y="127"/>
      <point x="607" y="254"/>
      <point x="607" y="352" type="qcurve"/>
      <point x="607" y="449"/>
      <point x="490" y="577"/>
      <point x="400" y="577" type="qcurve"/>
      <point x="309" y="577"/>
      <point x="192" y="450"/>
      <point x="192" y="352" type="qcurve"/>
      <point x="192" y="254"/>
      <point x="309" y="127"/>
    </contour>
    <contour>
      <point x="479" y="824" type="line"/>
      <point x="437" y="759" type="line"/>
      <point x="245" y="863" type="line"/>
      <point x="316" y="959" type="line"/>
    </contour>
  </outline>
</glyph>
<glyph name="Otilde" format="2">
  <advance width="799"/>
  <unicode hex="00D5"/>
  <outline>
    <contour>
      <point x="400" y="713" type="qcurve"/>
      <point x="553" y="713"/>
      <point x="754" y="507"/>
      <point x="754" y="352" type="qcurve"/>
      <point x="754" y="196"/>
      <point x="553" y="-10"/>
      <point x="400" y="-10" type="qcurve"/>
      <point x="246" y="-10"/>
      <point x="45" y="195"/>
      <point x="45" y="352" type="qcurve"/>
      <point x="45" y="508"/>
      <point x="246" y="713"/>
    </contour>
    <contour>
      <point x="400" y="127" type="qcurve"/>
      <point x="490" y="127"/>
      <point x="607" y="254"/>
      <point x="607" y="352" type="qcurve"/>
      <point x="607" y="449"/>
      <point x="490" y="577"/>
      <point x="400" y="577" type="qcurve"/>
      <point x="309" y="577"/>
      <point x="192" y="450"/>
      <point x="192" y="352" type="qcurve"/>
      <point x="192" y="254"/>
      <point x="309" y="127"/>
    </contour>
    <contour>
      <point x="306" y="801" type="qcurve"/>
      <point x="216" y="801" type="line"/>
      <point x="216" y="861"/>
      <point x="278" y="931"/>
      <point x="332" y="931" type="qcurve"/>
      <point x="347" y="931"/>
      <point x="381" y="922"/>
      <point x="413" y="908" type="qcurve"/>
      <point x="436" y="897"/>
      <point x="457" y="891"/>
      <point x="464" y="891" type="qcurve"/>
      <point x="478" y="891"/>
      <point x="490" y="913"/>
      <point x="490" y="931" type="qcurve"/>
      <point x="579" y="931" type="line"/>
      <point x="579" y="875"/>
      <point x="522" y="800"/>
      <point x="477" y="800" type="qcurve"/>
      <point x="460" y="800"/>
      <point x="421" y="810"/>
      <point x="384" y="824" type="qcurve"/>
      <point x="360" y="833"/>
      <point x="340" y="840"/>
      <point x="333" y="840" type="qcurve"/>
      <point x="321" y="840"/>
      <point x="306" y="819"/>
    </contour>
  </outline>
</glyph>
<glyph name="multiply" format="2">
  <advance width="512"/>
  <unicode hex="00D7"/>
  <outline>
    <contour>
      <point x="475" y="143" type="line"/>
      <point x="393" y="63" type="line"/>
      <point x="37" y="418" type="line"/>
      <point x="119" y="498" type="line"/>
    </contour>
    <contour>
      <point x="119" y="59" type="line"/>
      <point x="39" y="142" type="line"/>
      <point x="394" y="498" type="line"/>
      <point x="474" y="416" type="line"/>
    </contour>
  </outline>
</glyph>
<glyph name="Ugrave" format="2">
  <advance width="755"/>
  <unicode hex="00D9"/>
  <outline>
    <contour>
      <point x="530" y="701" type="line"/>
      <point x="669" y="701" type="line"/>
      <point x="669" y="269" type="line"/>
      <point x="669" y="150"/>
      <point x="504" y="-6"/>
      <point x="377" y="-6" type="qcurve"/>
      <point x="251" y="-6"/>
      <point x="85" y="150"/>
      <point x="85" y="269" type="qcurve"/>
      <point x="85" y="701" type="line"/>
      <point x="230" y="701" type="line"/>
      <point x="230" y="278" type="line"/>
      <point x="230" y="213"/>
      <point x="316" y="125"/>
      <point x="377" y="125" type="qcurve"/>
      <point x="442" y="125"/>
      <point x="530" y="213"/>
      <point x="530" y="278" type="qcurve"/>
    </contour>
    <contour>
      <point x="462" y="824" type="line"/>
      <point x="419" y="759" type="line"/>
      <point x="227" y="863" type="line"/>
      <point x="298" y="959" type="line"/>
    </contour>
  </outline>
</glyph>
<glyph name="Uacute" format="2">
  <advance width="755"/>
  <unicode hex="00DA"/>
  <outline>
    <contour>
      <point x="530" y="701" type="line"/>
      <point x="669" y="701" type="line"/>
      <point x="669" y="269" type="line"/>
      <point x="669" y="150"/>
      <point x="504" y="-6"/>
      <point x="377" y="-6" type="qcurve"/>
      <point x="251" y="-6"/>
      <point x="85" y="150"/>
      <point x="85" y="269" type="qcurve"/>
      <point x="85" y="701" type="line"/>
      <point x="230" y="701" type="line"/>
      <point x="230" y="278" type="line"/>
      <point x="230" y="213"/>
      <point x="316" y="125"/>
      <point x="377" y="125" type="qcurve"/>
      <point x="442" y="125"/>
      <point x="530" y="213"/>
      <point x="530" y="278" type="qcurve"/>
    </contour>
    <contour>
      <point x="533" y="860" type="line"/>
      <point x="341" y="757" type="line"/>
      <point x="298" y="822" type="line"/>
      <point x="462" y="956" type="line"/>
    </contour>
  </outline>
</glyph>
<glyph name="Yacute" format="2">
  <advance width="677"/>
  <unicode hex="00DD"/>
  <outline>
    <contour>
      <point x="516" y="700" type="line"/>
      <point x="677" y="700" type="line"/>
      <point x="406" y="289" type="line"/>
      <point x="421" y="357" type="line"/>
      <point x="421" y="0" type="line"/>
      <point x="276" y="0" type="line"/>
      <point x="276" y="349" type="line"/>
      <point x="283" y="300" type="line"/>
      <point x="0" y="700" type="line"/>
      <point x="167" y="700" type="line"/>
      <point x="383" y="390" type="line"/>
      <point x="321" y="393" type="line"/>
    </contour>
    <contour>
      <point x="503" y="860" type="line"/>
      <point x="311" y="757" type="line"/>
      <point x="268" y="822" type="line"/>
      <point x="432" y="956" type="line"/>
    </contour>
  </outline>
</glyph>
<glyph name="germandbls" format="2">
  <advance width="682"/>
  <unicode hex="00DF"/>
  <outline>
    <contour>
      <point x="188" y="381" type="line"/>
      <point x="43" y="381" type="line"/>
      <point x="43" y="500" type="line"/>
      <point x="188" y="500" type="line"/>
    </contour>
    <contour>
      <point x="256" y="0" type="line"/>
      <point x="124" y="0" type="line"/>
      <point x="124" y="499" type="line"/>
      <point x="124" y="604"/>
      <point x="250" y="734"/>
      <point x="360" y="734" type="qcurve"/>
      <point x="454" y="734"/>
      <point x="573" y="645"/>
      <point x="573" y="569" type="qcurve"/>
      <point x="573" y="524"/>
      <point x="514" y="439"/>
      <point x="464" y="417" type="qcurve"/>
      <point x="462" y="439" type="line"/>
      <point x="543" y="414"/>
      <point x="644" y="290"/>
      <point x="644" y="203" type="qcurve"/>
      <point x="644" y="112"/>
      <point x="525" y="-10"/>
      <point x="434" y="-10" type="qcurve"/>
      <point x="389" y="-10"/>
      <point x="321" y="19"/>
      <point x="296" y="48" type="qcurve"/>
      <point x="354" y="135" type="line"/>
      <point x="376" y="116"/>
      <point x="412" y="101"/>
      <point x="432" y="101" type="qcurve"/>
      <point x="469" y="101"/>
      <point x="513" y="153"/>
      <point x="513" y="196" type="qcurve"/>
      <point x="513" y="259"/>
      <point x="439" y="335"/>
      <point x="352" y="364" type="qcurve"/>
      <point x="352" y="441" type="line"/>
      <point x="401" y="462"/>
      <point x="445" y="511"/>
      <point x="445" y="542" type="qcurve"/>
      <point x="445" y="575"/>
      <point x="397" y="612"/>
      <point x="355" y="612" type="qcurve"/>
      <point x="308" y="612"/>
      <point x="256" y="551"/>
      <point x="256" y="500" type="qcurve"/>
    </contour>
  </outline>
</glyph>
<glyph name="acircumflex" format="2">
  <advance width="648"/>
  <unicode hex="00E2"/>
  <outline>
    <contour>
      <point x="441" y="528" type="line"/>
      <point x="577" y="528" type="line"/>
      <point x="577" y="0" type="line"/>
      <point x="440" y="0" type="line"/>
      <point x="440" y="127" type="line"/>
      <point x="471" y="130" type="line"/>
      <point x="456" y="75"/>
      <point x="344" y="-10"/>
      <point x="270" y="-10" type="qcurve"/>
      <point x="171" y="-10"/>
      <point x="35" y="147"/>
      <point x="35" y="265" type="qcurve"/>
      <point x="35" y="386"/>
      <point x="173" y="539"/>
      <point x="276" y="539" type="qcurve"/>
      <point x="355" y="539"/>
      <point x="457" y="453"/>
      <point x="470" y="393" type="qcurve"/>
      <point x="441" y="398" type="line"/>
    </contour>
    <contour>
      <point x="172" y="265" type="qcurve"/>
      <point x="172" y="195"/>
      <point x="247" y="109"/>
      <point x="307" y="109" type="qcurve"/>
      <point x="368" y="109"/>
      <point x="444" y="195"/>
      <point x="444" y="265" type="qcurve"/>
      <point x="444" y="335"/>
      <point x="368" y="421"/>
      <point x="307" y="421" type="qcurve"/>
      <point x="247" y="421"/>
      <point x="172" y="335"/>
    </contour>
    <contour>
      <point x="448" y="627" type="line"/>
      <point x="305" y="708" type="line"/>
      <point x="335" y="708" type="line"/>
      <point x="191" y="627" type="line"/>
      <point x="142" y="670" type="line"/>
      <point x="274" y="792" type="line"/>
      <point x="365" y="792" type="line"/>
      <point x="497" y="670" type="line"/>
    </contour>
  </outline>
</glyph>
<glyph name="atilde" format="2">
  <advance width="648"/>
  <unicode hex="00E3"/>
  <outline>
    <contour>
      <point x="441" y="528" type="line"/>
      <point x="577" y="528" type="line"/>
      <point x="577" y="0" type="line"/>
      <point x="440" y="0" type="line"/>
      <point x="440" y="127" type="line"/>
      <point x="471" y="130" type="line"/>
      <point x="456" y="75"/>
      <point x="344" y="-10"/>
      <point x="270" y="-10" type="qcurve"/>
      <point x="171" y="-10"/>
      <point x="35" y="147"/>
      <point x="35" y="265" type="qcurve"/>
      <point x="35" y="386"/>
      <point x="173" y="539"/>
      <point x="276" y="539" type="qcurve"/>
      <point x="355" y="539"/>
      <point x="457" y="453"/>
      <point x="470" y="393" type="qcurve"/>
      <point x="441" y="398" type="line"/>
    </contour>
    <contour>
      <point x="172" y="265" type="qcurve"/>
      <point x="172" y="195"/>
      <point x="247" y="109"/>
      <point x="307" y="109" type="qcurve"/>
      <point x="368" y="109"/>
      <point x="444" y="195"/>
      <point x="444" y="265" type="qcurve"/>
      <point x="444" y="335"/>
      <point x="368" y="421"/>
      <point x="307" y="421" type="qcurve"/>
      <point x="247" y="421"/>
      <point x="172" y="335"/>
    </contour>
    <contour>
      <point x="230" y="630" type="qcurve"/>
      <point x="146" y="641" type="line"/>
      <point x="148" y="696"/>
      <point x="210" y="771"/>
      <point x="259" y="771" type="qcurve"/>
      <point x="277" y="771"/>
      <point x="312" y="757"/>
      <point x="336" y="736" type="qcurve"/>
      <point x="353" y="721"/>
      <point x="369" y="713"/>
      <point x="376" y="713" type="qcurve"/>
      <point x="390" y="713"/>
      <point x="408" y="739"/>
      <point x="407" y="760" type="qcurve"/>
      <point x="491" y="744" type="line"/>
      <point x="489" y="696"/>
      <point x="430" y="625"/>
      <point x="385" y="625" type="qcurve"/>
      <point x="365" y="625"/>
      <point x="326" y="640"/>
      <point x="300" y="662" type="qcurve"/>
      <point x="287" y="674"/>
      <point x="272" y="682"/>
      <point x="267" y="682" type="qcurve"/>
      <point x="250" y="682"/>
      <point x="231" y="656"/>
    </contour>
  </outline>
</glyph>
<glyph name="aring" format="2">
  <advance width="648"/>
  <unicode hex="00E5"/>
  <outline>
    <contour>
      <point x="441" y="528" type="line"/>
      <point x="577" y="528" type="line"/>
      <point x="577" y="0" type="line"/>
      <point x="440" y="0" type="line"/>
      <point x="440" y="127" type="line"/>
      <point x="471" y="130" type="line"/>
      <point x="456" y="75"/>
      <point x="344" y="-10"/>
      <point x="270" y="-10" type="qcurve"/>
      <point x="171" y="-10"/>
      <point x="35" y="147"/>
      <point x="35" y="265" type="qcurve"/>
      <point x="35" y="386"/>
      <point x="173" y="539"/>
      <point x="276" y="539" type="qcurve"/>
      <point x="355" y="539"/>
      <point x="457" y="453"/>
      <point x="470" y="393" type="qcurve"/>
      <point x="441" y="398" type="line"/>
    </contour>
    <contour>
      <point x="172" y="265" type="qcurve"/>
      <point x="172" y="195"/>
      <point x="247" y="109"/>
      <point x="307" y="109" type="qcurve"/>
      <point x="368" y="109"/>
      <point x="444" y="195"/>
      <point x="444" y="265" type="qcurve"/>
      <point x="444" y="335"/>
      <point x="368" y="421"/>
      <point x="307" y="421" type="qcurve"/>
      <point x="247" y="421"/>
      <point x="172" y="335"/>
    </contour>
    <contour>
      <point x="435" y="719" type="qcurve"/>
      <point x="435" y="674"/>
      <point x="365" y="608"/>
      <point x="318" y="608" type="qcurve"/>
      <point x="272" y="608"/>
      <point x="203" y="674"/>
      <point x="203" y="719" type="qcurve"/>
      <point x="203" y="765"/>
      <point x="271" y="832"/>
      <point x="318" y="832" type="qcurve"/>
      <point x="365" y="832"/>
      <point x="435" y="765"/>
    </contour>
    <contour>
      <point x="276" y="719" type="qcurve"/>
      <point x="276" y="702"/>
      <point x="301" y="679"/>
      <point x="318" y="679" type="qcurve"/>
      <point x="336" y="679"/>
      <point x="361" y="702"/>
      <point x="361" y="719" type="qcurve"/>
      <point x="361" y="737"/>
      <point x="336" y="760"/>
      <point x="318" y="760" type="qcurve"/>
      <point x="300" y="760"/>
      <point x="276" y="737"/>
    </contour>
  </outline>
</glyph>
<glyph name="ccedilla" format="2">
  <advance width="544"/>
  <unicode hex="00E7"/>
  <outline>
    <contour>
      <point x="313" y="420" type="qcurve"/>
      <point x="250" y="420"/>
      <point x="169" y="332"/>
      <point x="169" y="265" type="qcurve"/>
      <point x="169" y="199"/>
      <point x="252" y="110"/>
      <point x="314" y="110" type="qcurve"/>
      <point x="353" y="110"/>
      <point x="419" y="145"/>
      <point x="446" y="177" type="qcurve"/>
      <point x="521" y="87" type="line"/>
      <point x="487" y="43"/>
      <point x="367" y="-10"/>
      <point x="300" y="-10" type="qcurve"/>
      <point x="187" y="-10"/>
      <point x="37" y="147"/>
      <point x="37" y="265" type="qcurve"/>
      <point x="37" y="382"/>
      <point x="187" y="539"/>
      <point x="300" y="539" type="qcurve"/>
      <point x="371" y="539"/>
      <point x="488" y="487"/>
      <point x="521" y="440" type="qcurve"/>
      <point x="446" y="350" type="line"/>
      <point x="425" y="379"/>
      <point x="351" y="420"/>
    </contour>
    <contour>
      <point x="294" y="-93" type="line"/>
      <point x="228" y="-86" type="line"/>
      <point x="298" y="24" type="line"/>
      <point x="371" y="24" type="line"/>
    </contour>
    <contour>
      <point x="428" y="-139" type="qcurve"/>
      <point x="428" y="-162"/>
      <point x="389" y="-211"/>
      <point x="356" y="-226" type="qcurve"/>
      <point x="329" y="-237"/>
      <point x="264" y="-246"/>
      <point x="228" y="-245" type="qcurve"/>
      <point x="219" y="-179" type="line"/>
      <point x="252" y="-179"/>
      <point x="323" y="-152"/>
      <point x="323" y="-133" type="qcurve"/>
      <point x="323" y="-119"/>
      <point x="278" y="-99"/>
      <point x="244" y="-98" type="qcurve"/>
      <point x="228" y="-88" type="line"/>
      <point x="228" y="-86" type="line"/>
      <point x="302" y="-40" type="line"/>
      <point x="365" y="-45"/>
      <point x="428" y="-98"/>
    </contour>
  </outline>
</glyph>
<glyph name="egrave" format="2">
  <advance width="586"/>
  <unicode hex="00E8"/>
  <outline>
    <contour>
      <point x="464" y="161" type="qcurve"/>
      <point x="530" y="69" type="line"/>
      <point x="487" y="31"/>
      <point x="376" y="-10"/>
      <point x="321" y="-10" type="qcurve"/>
      <point x="193" y="-10"/>
      <point x="37" y="142"/>
      <point x="37" y="261" type="qcurve"/>
      <point x="37" y="384"/>
      <point x="188" y="539"/>
      <point x="306" y="540" type="qcurve"/>
      <point x="413" y="539"/>
      <point x="551" y="391"/>
      <point x="551" y="277" type="qcurve"/>
      <point x="550" y="234" type="line"/>
      <point x="125" y="234" type="line"/>
      <point x="102" y="320" type="line"/>
      <point x="437" y="320" type="line"/>
      <point x="421" y="302" type="line"/>
      <point x="421" y="324" type="line"/>
      <point x="418" y="367"/>
      <point x="353" y="422"/>
      <point x="307" y="422" type="qcurve"/>
      <point x="238" y="422"/>
      <point x="166" y="344"/>
      <point x="166" y="271" type="qcurve"/>
      <point x="166" y="198"/>
      <point x="257" y="111"/>
      <point x="335" y="111" type="qcurve"/>
      <point x="371" y="111"/>
      <point x="430" y="133"/>
    </contour>
    <contour>
      <point x="376" y="691" type="line"/>
      <point x="334" y="627" type="line"/>
      <point x="142" y="730" type="line"/>
      <point x="212" y="825" type="line"/>
    </contour>
  </outline>
</glyph>
<glyph name="igrave" format="2">
  <advance width="270"/>
  <unicode hex="00EC"/>
  <outline>
    <contour>
      <point x="204" y="528" type="line"/>
      <point x="204" y="0" type="line"/>
      <point x="68" y="0" type="line"/>
      <point x="68" y="528" type="line"/>
    </contour>
    <contour>
      <point x="216" y="687" type="line"/>
      <point x="174" y="624" type="line"/>
      <point x="-18" y="727" type="line"/>
      <point x="52" y="822" type="line"/>
    </contour>
  </outline>
</glyph>
<glyph name="iacute" format="2">
  <advance width="270"/>
  <unicode hex="00ED"/>
  <outline>
    <contour>
      <point x="204" y="528" type="line"/>
      <point x="204" y="0" type="line"/>
      <point x="68" y="0" type="line"/>
      <point x="68" y="528" type="line"/>
    </contour>
    <contour>
      <point x="297" y="726" type="line"/>
      <point x="105" y="622" type="line"/>
      <point x="63" y="686" type="line"/>
      <point x="227" y="821" type="line"/>
    </contour>
  </outline>
</glyph>
<glyph name="otilde" format="2">
  <advance width="630"/>
  <unicode hex="00F5"/>
  <outline>
    <contour>
      <point x="316" y="539" type="qcurve"/>
      <point x="435" y="539"/>
      <point x="593" y="384"/>
      <point x="593" y="265" type="qcurve"/>
      <point x="593" y="146"/>
      <point x="435" y="-10"/>
      <point x="316" y="-10" type="qcurve"/>
      <point x="195" y="-10"/>
      <point x="37" y="146"/>
      <point x="37" y="265" type="qcurve"/>
      <point x="37" y="384"/>
      <point x="195" y="539"/>
    </contour>
    <contour>
      <point x="316" y="109" type="qcurve"/>
      <point x="377" y="109"/>
      <point x="456" y="198"/>
      <point x="455" y="265" type="qcurve"/>
      <point x="456" y="333"/>
      <point x="377" y="420"/>
      <point x="316" y="420" type="qcurve"/>
      <point x="254" y="420"/>
      <point x="174" y="332"/>
      <point x="175" y="265" type="qcurve"/>
      <point x="174" y="198"/>
      <point x="254" y="109"/>
    </contour>
    <contour>
      <point x="226" y="618" type="qcurve"/>
      <point x="142" y="630" type="line"/>
      <point x="143" y="685"/>
      <point x="206" y="759"/>
      <point x="255" y="759" type="qcurve"/>
      <point x="273" y="759"/>
      <point x="308" y="746"/>
      <point x="332" y="725" type="qcurve"/>
      <point x="349" y="710"/>
      <point x="364" y="702"/>
      <point x="372" y="702" type="qcurve"/>
      <point x="385" y="702"/>
      <point x="403" y="728"/>
      <point x="403" y="749" type="qcurve"/>
      <point x="487" y="733" type="line"/>
      <point x="485" y="684"/>
      <point x="426" y="613"/>
      <point x="381" y="613" type="qcurve"/>
      <point x="361" y="613"/>
      <point x="322" y="628"/>
      <point x="296" y="651" type="qcurve"/>
      <point x="282" y="663"/>
      <point x="268" y="670"/>
      <point x="262" y="670" type="qcurve"/>
      <point x="246" y="670"/>
      <point x="226" y="645"/>
    </contour>
  </outline>
</glyph>
<glyph name="aogonek" format="2">
  <advance width="640"/>
  <unicode hex="0105"/>
  <outline>
    <contour>
      <point x="395" y="26" type="qcurve"/>
      <point x="367" y="8"/>
      <point x="310" y="-10"/>
      <point x="278" y="-10" type="qcurve"/>
      <point x="173" y="-10"/>
      <point x="35" y="146"/>
      <point x="35" y="265" type="qcurve"/>
      <point x="35" y="385"/>
      <point x="172" y="539"/>
      <point x="277" y="539" type="qcurve"/>
      <point x="346" y="539"/>
      <point x="453" y="466"/>
      <point x="468" y="414" type="qcurve"/>
      <point x="441" y="410" type="line"/>
      <point x="441" y="528" type="line"/>
      <point x="577" y="528" type="line"/>
      <point x="577" y="0" type="line"/>
      <point x="520" y="-20"/>
      <point x="456" y="-68"/>
      <point x="456" y="-92" type="qcurve"/>
      <point x="456" y="-107"/>
      <point x="478" y="-128"/>
      <point x="495" y="-128" type="qcurve"/>
      <point x="507" y="-128"/>
      <point x="534" y="-115"/>
      <point x="548" y="-103" type="qcurve"/>
      <point x="601" y="-162" type="line"/>
      <point x="573" y="-187"/>
      <point x="509" y="-221"/>
      <point x="475" y="-221" type="qcurve"/>
      <point x="422" y="-221"/>
      <point x="352" y="-158"/>
      <point x="352" y="-110" type="qcurve"/>
      <point x="352" y="-74"/>
      <point x="412" y="-6"/>
      <point x="497" y="40" type="qcurve"/>
      <point x="498" y="0" type="line"/>
      <point x="440" y="0" type="line"/>
      <point x="440" y="124" type="line"/>
      <point x="466" y="122" type="line"/>
      <point x="459" y="95"/>
      <point x="423" y="45"/>
    </contour>
    <contour>
      <point x="172" y="265" type="qcurve"/>
      <point x="172" y="195"/>
      <point x="247" y="109"/>
      <point x="307" y="109" type="qcurve"/>
      <point x="368" y="109"/>
      <point x="444" y="195"/>
      <point x="444" y="265" type="qcurve"/>
      <point x="444" y="335"/>
      <point x="368" y="421"/>
      <point x="307" y="421" type="qcurve"/>
      <point x="247" y="421"/>
      <point x="172" y="335"/>
    </contour>
  </outline>
</glyph>
<glyph name="cacute" format="2">
  <advance width="544"/>
  <unicode hex="0107"/>
  <outline>
    <contour>
      <point x="313" y="420" type="qcurve"/>
      <point x="250" y="420"/>
      <point x="169" y="332"/>
      <point x="169" y="265" type="qcurve"/>
      <point x="169" y="199"/>
      <point x="252" y="110"/>
      <point x="314" y="110" type="qcurve"/>
      <point x="353" y="110"/>
      <point x="419" y="145"/>
      <point x="446" y="177" type="qcurve"/>
      <point x="521" y="87" type="line"/>
      <point x="487" y="43"/>
      <point x="367" y="-10"/>
      <point x="300" y="-10" type="qcurve"/>
      <point x="187" y="-10"/>
      <point x="37" y="147"/>
      <point x="37" y="265" type="qcurve"/>
      <point x="37" y="382"/>
      <point x="187" y="539"/>
      <point x="300" y="539" type="qcurve"/>
      <point x="371" y="539"/>
      <point x="488" y="487"/>
      <point x="521" y="440" type="qcurve"/>
      <point x="446" y="350" type="line"/>
      <point x="425" y="379"/>
      <point x="351" y="420"/>
    </contour>
    <contour>
      <point x="462" y="729" type="line"/>
      <point x="270" y="626" type="line"/>
      <point x="228" y="689" type="line"/>
      <point x="392" y="824" type="line"/>
    </contour>
  </outline>
</glyph>
<glyph name="ccircumflex" format="2">
  <advance width="544"/>
  <unicode hex="0109"/>
  <outline>
    <contour>
      <point x="313" y="420" type="qcurve"/>
      <point x="250" y="420"/>
      <point x="169" y="332"/>
      <point x="169" y="265" type="qcurve"/>
      <point x="169" y="199"/>
      <point x="252" y="110"/>
      <point x="314" y="110" type="qcurve"/>
      <point x="353" y="110"/>
      <point x="419" y="145"/>
      <point x="446" y="177" type="qcurve"/>
      <point x="521" y="87" type="line"/>
      <point x="487" y="43"/>
      <point x="367" y="-10"/>
      <point x="300" y="-10" type="qcurve"/>
      <point x="187" y="-10"/>
      <point x="37" y="147"/>
      <point x="37" y="265" type="qcurve"/>
      <point x="37" y="382"/>
      <point x="187" y="539"/>
      <point x="300" y="539" type="qcurve"/>
      <point x="371" y="539"/>
      <point x="488" y="487"/>
      <point x="521" y="440" type="qcurve"/>
      <point x="446" y="350" type="line"/>
      <point x="425" y="379"/>
      <point x="351" y="420"/>
    </contour>
    <contour>
      <point x="439" y="627" type="line"/>
      <point x="296" y="708" type="line"/>
      <point x="326" y="708" type="line"/>
      <point x="183" y="627" type="line"/>
      <point x="133" y="670" type="line"/>
      <point x="265" y="792" type="line"/>
      <point x="357" y="792" type="line"/>
      <point x="489" y="670" type="line"/>
    </contour>
  </outline>
</glyph>
<glyph name="Ccaron" format="2">
  <advance width="684"/>
  <unicode hex="010C"/>
  <outline>
    <contour>
      <point x="581" y="199" type="qcurve"/>
      <point x="651" y="86" type="line"/>
      <point x="615" y="45"/>
      <point x="472" y="-10"/>
      <point x="396" y="-10" type="qcurve"/>
      <point x="242" y="-10"/>
      <point x="45" y="192"/>
      <point x="45" y="352" type="qcurve"/>
      <point x="45" y="505"/>
      <point x="251" y="711"/>
      <point x="404" y="711" type="qcurve"/>
      <point x="479" y="711"/>
      <point x="618" y="648"/>
      <point x="660" y="595" type="qcurve"/>
      <point x="569" y="494" type="line"/>
      <point x="533" y="532"/>
      <point x="451" y="574"/>
      <point x="403" y="574" type="qcurve"/>
      <point x="315" y="574"/>
      <point x="193" y="450"/>
      <point x="193" y="351" type="qcurve"/>
      <point x="193" y="249"/>
      <point x="315" y="127"/>
      <point x="415" y="127" type="qcurve"/>
      <point x="464" y="127"/>
      <point x="550" y="167"/>
    </contour>
    <contour>
      <point x="505" y="926" type="line"/>
      <point x="361" y="845" type="line"/>
      <point x="391" y="845" type="line"/>
      <point x="248" y="926" type="line"/>
      <point x="199" y="883" type="line"/>
      <point x="331" y="761" type="line"/>
      <point x="422" y="761" type="line"/>
      <point x="554" y="883" type="line"/>
    </contour>
  </outline>
</glyph>
<glyph name="ccaron" format="2">
  <advance width="544"/>
  <unicode hex="010D"/>
  <outline>
    <contour>
      <point x="313" y="420" type="qcurve"/>
      <point x="250" y="420"/>
      <point x="169" y="332"/>
      <point x="169" y="265" type="qcurve"/>
      <point x="169" y="199"/>
      <point x="252" y="110"/>
      <point x="314" y="110" type="qcurve"/>
      <point x="353" y="110"/>
      <point x="419" y="145"/>
      <point x="446" y="177" type="qcurve"/>
      <point x="521" y="87" type="line"/>
      <point x="487" y="43"/>
      <point x="367" y="-10"/>
      <point x="300" y="-10" type="qcurve"/>
      <point x="187" y="-10"/>
      <point x="37" y="147"/>
      <point x="37" y="265" type="qcurve"/>
      <point x="37" y="382"/>
      <point x="187" y="539"/>
      <point x="300" y="539" type="qcurve"/>
      <point x="371" y="539"/>
      <point x="488" y="487"/>
      <point x="521" y="440" type="qcurve"/>
      <point x="446" y="350" type="line"/>
      <point x="425" y="379"/>
      <point x="351" y="420"/>
    </contour>
    <contour>
      <point x="321" y="714" type="line"/>
      <point x="291" y="714" type="line"/>
      <point x="428" y="795" type="line"/>
      <point x="477" y="752" type="line"/>
      <point x="352" y="630" type="line"/>
      <point x="260" y="630" type="line"/>
      <point x="135" y="752" type="line"/>
      <point x="184" y="795" type="line"/>
    </contour>
  </outline>
</glyph>
<glyph name="Dcaron" format="2">
  <advance width="762"/>
  <unicode hex="010E"/>
  <outline>
    <contour>
      <point x="92" y="700" type="line"/>
      <point x="377" y="700" type="line"/>
      <point x="530" y="700"/>
      <point x="717" y="505"/>
      <point x="717" y="350" type="qcurve"/>
      <point x="717" y="194"/>
      <point x="531" y="0"/>
      <point x="377" y="0" type="qcurve"/>
      <point x="92" y="0" type="line"/>
    </contour>
    <contour>
      <point x="222" y="131" type="line"/>
      <point x="372" y="131" type="line"/>
      <point x="465" y="131"/>
      <point x="571" y="249"/>
      <point x="571" y="350" type="qcurve"/>
      <point x="571" y="450"/>
      <point x="464" y="569"/>
      <point x="372" y="569" type="qcurve"/>
      <point x="219" y="569" type="line"/>
      <point x="236" y="592" type="line"/>
      <point x="236" y="106" type="line"/>
    </contour>
    <contour>
      <point x="463" y="926" type="line"/>
      <point x="319" y="845" type="line"/>
      <point x="349" y="845" type="line"/>
      <point x="206" y="926" type="line"/>
      <point x="157" y="883" type="line"/>
      <point x="289" y="761" type="line"/>
      <point x="380" y="761" type="line"/>
      <point x="512" y="883" type="line"/>
    </contour>
  </outline>
</glyph>
<glyph name="ebreve" format="2">
  <advance width="586"/>
  <unicode hex="0115"/>
  <outline>
    <contour>
      <point x="464" y="161" type="qcurve"/>
      <point x="530" y="69" type="line"/>
      <point x="487" y="31"/>
      <point x="376" y="-10"/>
      <point x="321" y="-10" type="qcurve"/>
      <point x="193" y="-10"/>
      <point x="37" y="142"/>
      <point x="37" y="261" type="qcurve"/>
      <point x="37" y="384"/>
      <point x="188" y="539"/>
      <point x="306" y="540" type="qcurve"/>
      <point x="413" y="539"/>
      <point x="551" y="391"/>
      <point x="551" y="277" type="qcurve"/>
      <point x="550" y="234" type="line"/>
      <point x="125" y="234" type="line"/>
      <point x="102" y="320" type="line"/>
      <point x="437" y="320" type="line"/>
      <point x="421" y="302" type="line"/>
      <point x="421" y="324" type="line"/>
      <point x="418" y="367"/>
      <point x="353" y="422"/>
      <point x="307" y="422" type="qcurve"/>
      <point x="238" y="422"/>
      <point x="166" y="344"/>
      <point x="166" y="271" type="qcurve"/>
      <point x="166" y="198"/>
      <point x="257" y="111"/>
      <point x="335" y="111" type="qcurve"/>
      <point x="371" y="111"/>
      <point x="430" y="133"/>
    </contour>
    <contour>
      <point x="298" y="628" type="qcurve"/>
      <point x="233" y="628"/>
      <point x="140" y="712"/>
      <point x="126" y="785" type="qcurve"/>
      <point x="217" y="797" type="line"/>
      <point x="228" y="762"/>
      <point x="273" y="722"/>
      <point x="298" y="722" type="qcurve"/>
      <point x="323" y="722"/>
      <point x="368" y="762"/>
      <point x="379" y="797" type="qcurve"/>
      <point x="470" y="785" type="line"/>
      <point x="456" y="712"/>
      <point x="363" y="628"/>
    </contour>
  </outline>
</glyph>
<glyph name="edotaccent" format="2">
  <advance width="586"/>
  <unicode hex="0117"/>
  <outline>
    <contour>
      <point x="464" y="161" type="qcurve"/>
      <point x="530" y="69" type="line"/>
      <point x="487" y="31"/>
      <point x="376" y="-10"/>
      <point x="321" y="-10" type="qcurve"/>
      <point x="193" y="-10"/>
      <point x="37" y="142"/>
      <point x="37" y="261" type="qcurve"/>
      <point x="37" y="384"/>
      <point x="188" y="539"/>
      <point x="306" y="540" type="qcurve"/>
      <point x="413" y="539"/>
      <point x="551" y="391"/>
      <point x="551" y="277" type="qcurve"/>
      <point x="550" y="234" type="line"/>
      <point x="125" y="234" type="line"/>
      <point x="102" y="320" type="line"/>
      <point x="437" y="320" type="line"/>
      <point x="421" y="302" type="line"/>
      <point x="421" y="324" type="line"/>
      <point x="418" y="367"/>
      <point x="353" y="422"/>
      <point x="307" y="422" type="qcurve"/>
      <point x="238" y="422"/>
      <point x="166" y="344"/>
      <point x="166" y="271" type="qcurve"/>
      <point x="166" y="198"/>
      <point x="257" y="111"/>
      <point x="335" y="111" type="qcurve"/>
      <point x="371" y="111"/>
      <point x="430" y="133"/>
    </contour>
    <contour>
      <point x="384" y="710" type="qcurve"/>
      <point x="384" y="676"/>
      <point x="339" y="634"/>
      <point x="300" y="634" type="qcurve"/>
      <point x="260" y="634"/>
      <point x="215" y="674"/>
      <point x="215" y="710" type="qcurve"/>
      <point x="215" y="743"/>
      <point x="261" y="785"/>
      <point x="300" y="785" type="qcurve"/>
      <point x="340" y="785"/>
      <point x="384" y="746"/>
    </contour>
  </outline>
</glyph>
<glyph name="Ecaron" format="2">
  <advance width="632"/>
  <unicode hex="011A"/>
  <outline>
    <contour>
      <point x="233" y="0" type="line"/>
      <point x="92" y="0" type="line"/>
      <point x="92" y="700" type="line"/>
      <point x="233" y="700" type="line"/>
    </contour>
    <contour>
      <point x="566" y="0" type="line"/>
      <point x="159" y="0" type="line"/>
      <point x="159" y="128" type="line"/>
      <point x="566" y="128" type="line"/>
    </contour>
    <contour>
      <point x="511" y="295" type="line"/>
      <point x="159" y="295" type="line"/>
      <point x="159" y="419" type="line"/>
      <point x="511" y="419" type="line"/>
    </contour>
    <contour>
      <point x="560" y="572" type="line"/>
      <point x="159" y="572" type="line"/>
      <point x="159" y="700" type="line"/>
      <point x="560" y="700" type="line"/>
    </contour>
    <contour>
      <point x="453" y="926" type="line"/>
      <point x="310" y="845" type="line"/>
      <point x="340" y="845" type="line"/>
      <point x="197" y="926" type="line"/>
      <point x="147" y="883" type="line"/>
      <point x="279" y="761" type="line"/>
      <point x="371" y="761" type="line"/>
      <point x="503" y="883" type="line"/>
    </contour>
  </outline>
</glyph>
<glyph name="hcircumflex" format="2">
  <advance width="618"/>
  <unicode hex="0125"/>
  <outline>
    <contour>
      <point x="371" y="539" type="qcurve"/>
      <point x="461" y="539"/>
      <point x="553" y="431"/>
      <point x="553" y="323" type="qcurve"/>
      <point x="553" y="0" type="line"/>
      <point x="417" y="0" type="line"/>
      <point x="417" y="313" type="line"/>
      <point x="417" y="369"/>
      <point x="369" y="424"/>
      <point x="322" y="422" type="qcurve"/>
      <point x="273" y="422"/>
      <point x="208" y="362"/>
      <point x="208" y="318" type="qcurve"/>
      <point x="208" y="0" type="line"/>
      <point x="182" y="0"/>
      <point x="97" y="0"/>
      <point x="71" y="0" type="qcurve"/>
      <point x="71" y="740" type="line"/>
      <point x="206" y="740" type="line"/>
      <point x="206" y="420" type="line"/>
      <point x="180" y="408" type="line"/>
      <point x="195" y="462"/>
      <point x="306" y="539"/>
    </contour>
    <contour>
      <point x="263" y="775" type="line"/>
      <point x="120" y="856" type="line"/>
      <point x="150" y="856" type="line"/>
      <point x="7" y="775" type="line"/>
      <point x="-43" y="818" type="line"/>
      <point x="89" y="941" type="line"/>
      <point x="181" y="941" type="line"/>
      <point x="313" y="818" type="line"/>
    </contour>
  </outline>
</glyph>
<glyph name="Ibreve" format="2">
  <advance width="519"/>
  <unicode hex="012C"/>
  <outline>
    <contour>
      <point x="333" y="700" type="qcurve"/>
      <point x="333" y="0" type="line"/>
      <point x="189" y="0" type="line"/>
      <point x="189" y="700" type="line"/>
      <point x="216" y="700"/>
      <point x="306" y="700"/>
    </contour>
    <contour>
      <point x="450" y="700" type="line"/>
      <point x="450" y="575" type="line"/>
      <point x="73" y="575" type="line"/>
      <point x="73" y="700" type="line"/>
    </contour>
    <contour>
      <point x="450" y="125" type="line"/>
      <point x="450" y="0" type="line"/>
      <point x="73" y="0" type="line"/>
      <point x="73" y="125" type="line"/>
    </contour>
    <contour>
      <point x="257" y="757" type="qcurve"/>
      <point x="192" y="757"/>
      <point x="99" y="842"/>
      <point x="85" y="915" type="qcurve"/>
      <point x="176" y="927" type="line"/>
      <point x="187" y="892"/>
      <point x="232" y="852"/>
      <point x="257" y="852" type="qcurve"/>
      <point x="282" y="852"/>
      <point x="327" y="892"/>
      <point x="338" y="927" type="qcurve"/>
      <point x="429" y="915" type="line"/>
      <point x="415" y="842"/>
      <point x="322" y="757"/>
    </contour>
  </outline>
</glyph>
<glyph name="ibreve" format="2">
  <advance width="270"/>
  <unicode hex="012D"/>
  <outline>
    <contour>
      <point x="204" y="528" type="line"/>
      <point x="204" y="0" type="line"/>
      <point x="68" y="0" type="line"/>
      <point x="68" y="528" type="line"/>
    </contour>
    <contour>
      <point x="134" y="624" type="qcurve"/>
      <point x="70" y="624"/>
      <point x="-23" y="709"/>
      <point x="-38" y="782" type="qcurve"/>
      <point x="53" y="794" type="line"/>
      <point x="65" y="759"/>
      <point x="110" y="719"/>
      <point x="134" y="719" type="qcurve"/>
      <point x="160" y="719"/>
      <point x="204" y="759"/>
      <point x="216" y="794" type="qcurve"/>
      <point x="306" y="782" type="line"/>
      <point x="292" y="709"/>
      <point x="200" y="624"/>
    </contour>
  </outline>
</glyph>
<glyph name="iogonek" format="2">
  <advance width="312"/>
  <unicode hex="012F"/>
  <outline>
    <contour>
      <point x="140" y="44" type="qcurve"/>
      <point x="88" y="-5" type="line"/>
      <point x="88" y="528" type="line"/>
      <point x="225" y="528" type="line"/>
      <point x="225" y="0" type="line"/>
      <point x="173" y="-18"/>
      <point x="111" y="-69"/>
      <point x="111" y="-93" type="qcurve"/>
      <point x="111" y="-109"/>
      <point x="133" y="-129"/>
      <point x="150" y="-129" type="qcurve"/>
      <point x="161" y="-129"/>
      <point x="183" y="-116"/>
      <point x="196" y="-104" type="qcurve"/>
      <point x="249" y="-163" type="line"/>
      <point x="223" y="-187"/>
      <point x="162" y="-221"/>
      <point x="130" y="-221" type="qcurve"/>
      <point x="76" y="-221"/>
      <point x="7" y="-158"/>
      <point x="7" y="-110" type="qcurve"/>
      <point x="7" y="-68"/>
      <point x="73" y="5"/>
    </contour>
    <contour>
      <point x="245" y="690" type="qcurve"/>
      <point x="245" y="657"/>
      <point x="199" y="615"/>
      <point x="160" y="615" type="qcurve"/>
      <point x="120" y="615"/>
      <point x="76" y="654"/>
      <point x="76" y="690" type="qcurve"/>
      <point x="76" y="723"/>
      <point x="121" y="765"/>
      <point x="160" y="765" type="qcurve"/>
      <point x="200" y="765"/>
      <point x="245" y="726"/>
    </contour>
  </outline>
</glyph>
<glyph name="Idotaccent" format="2">
  <advance width="519"/>
  <unicode hex="0130"/>
  <outline>
    <contour>
      <point x="333" y="700" type="qcurve"/>
      <point x="333" y="0" type="line"/>
      <point x="189" y="0" type="line"/>
      <point x="189" y="700" type="line"/>
      <point x="216" y="700"/>
      <point x="306" y="700"/>
    </contour>
    <contour>
      <point x="450" y="700" type="line"/>
      <point x="450" y="575" type="line"/>
      <point x="73" y="575" type="line"/>
      <point x="73" y="700" type="line"/>
    </contour>
    <contour>
      <point x="450" y="125" type="line"/>
      <point x="450" y="0" type="line"/>
      <point x="73" y="0" type="line"/>
      <point x="73" y="125" type="line"/>
    </contour>
    <contour>
      <point x="344" y="838" type="qcurve"/>
      <point x="344" y="805"/>
      <point x="299" y="763"/>
      <point x="260" y="763" type="qcurve"/>
      <point x="220" y="763"/>
      <point x="175" y="802"/>
      <point x="175" y="838" type="qcurve"/>
      <point x="175" y="871"/>
      <point x="221" y="913"/>
      <point x="260" y="913" type="qcurve"/>
      <point x="300" y="913"/>
      <point x="344" y="874"/>
    </contour>
  </outline>
</glyph>
<glyph name="Jcircumflex" format="2">
  <advance width="655"/>
  <unicode hex="0134"/>
  <outline>
    <contour>
      <point x="259" y="-10" type="qcurve"/>
      <point x="185" y="-10"/>
      <point x="74" y="58"/>
      <point x="44" y="116" type="qcurve"/>
      <point x="129" y="205" type="line"/>
      <point x="163" y="157"/>
      <point x="216" y="123"/>
      <point x="248" y="123" type="qcurve"/>
      <point x="292" y="123"/>
      <point x="346" y="182"/>
      <point x="346" y="229" type="qcurve"/>
      <point x="346" y="700" type="line"/>
      <point x="487" y="700" type="line"/>
      <point x="487" y="213" type="line"/>
      <point x="487" y="114"/>
      <point x="358" y="-10"/>
    </contour>
    <contour>
      <point x="595" y="700" type="line"/>
      <point x="595" y="572" type="line"/>
      <point x="218" y="572" type="line"/>
      <point x="218" y="700" type="line"/>
    </contour>
    <contour>
      <point x="536" y="758" type="line"/>
      <point x="396" y="836" type="line"/>
      <point x="426" y="836" type="line"/>
      <point x="286" y="758" type="line"/>
      <point x="239" y="804" type="line"/>
      <point x="370" y="920" type="line"/>
      <point x="452" y="920" type="line"/>
      <point x="583" y="804" type="line"/>
    </contour>
  </outline>
</glyph>
<glyph name="Lacute" format="2">
  <advance width="605"/>
  <unicode hex="0139"/>
  <outline>
    <contour>
      <point x="182" y="131" type="line"/>
      <point x="555" y="131" type="line"/>
      <point x="555" y="0" type="line"/>
      <point x="92" y="0" type="line"/>
      <point x="92" y="700" type="line"/>
      <point x="236" y="700" type="line"/>
      <point x="236" y="78" type="line"/>
    </contour>
    <contour>
      <point x="300" y="860" type="line"/>
      <point x="108" y="757" type="line"/>
      <point x="65" y="822" type="line"/>
      <point x="229" y="956" type="line"/>
    </contour>
  </outline>
</glyph>
<glyph name="Lcaron" format="2">
  <advance width="761"/>
  <unicode hex="013D"/>
  <outline>
    <contour>
      <point x="182" y="131" type="line"/>
      <point x="555" y="131" type="line"/>
      <point x="555" y="0" type="line"/>
      <point x="92" y="0" type="line"/>
      <point x="92" y="700" type="line"/>
      <point x="236" y="700" type="line"/>
      <point x="236" y="78" type="line"/>
    </contour>
    <contour>
      <point x="492" y="724" type="qcurve"/>
      <point x="533" y="724"/>
      <point x="589" y="657"/>
      <point x="589" y="604" type="qcurve"/>
      <point x="589" y="541"/>
      <point x="504" y="430"/>
      <point x="440" y="408" type="qcurve"/>
      <point x="397" y="460" type="line"/>
      <point x="435" y="479"/>
      <point x="482" y="533"/>
      <point x="482" y="553" type="qcurve"/>
      <point x="482" y="562"/>
      <point x="472" y="582"/>
      <point x="455" y="597" type="qcurve"/>
      <point x="434" y="615"/>
      <point x="419" y="645"/>
      <point x="419" y="663" type="qcurve"/>
      <point x="419" y="691"/>
      <point x="460" y="724"/>
    </contour>
  </outline>
</glyph>
<glyph name="ldot" format="2">
  <advance width="428"/>
  <unicode hex="0140"/>
  <outline>
    <contour>
      <point x="209" y="0" type="line"/>
      <point x="73" y="0" type="line"/>
      <point x="73" y="740" type="line"/>
      <point x="209" y="740" type="line"/>
    </contour>
    <contour>
      <point x="431" y="352" type="qcurve"/>
      <point x="431" y="315"/>
      <point x="388" y="268"/>
      <point x="352" y="268" type="qcurve"/>
      <point x="315" y="268"/>
      <point x="273" y="312"/>
      <point x="273" y="352" type="qcurve"/>
      <point x="273" y="388"/>
      <point x="317" y="435"/>
      <point x="352" y="435" type="qcurve"/>
      <point x="390" y="435"/>
      <point x="431" y="392"/>
    </contour>
  </outline>
</glyph>
<glyph name="uni0145" format="2">
  <advance width="794"/>
  <unicode hex="0145"/>
  <outline>
    <contour>
      <point x="564" y="503" type="qcurve"/>
      <point x="564" y="700" type="line"/>
      <point x="706" y="700" type="line"/>
      <point x="706" y="0" type="line"/>
      <point x="575" y="0" type="line"/>
      <point x="176" y="531" type="line"/>
      <point x="210" y="533" type="line"/>
      <point x="218" y="459"/>
      <point x="230" y="319"/>
      <point x="230" y="258" type="qcurve"/>
      <point x="230" y="0" type="line"/>
      <point x="89" y="0" type="line"/>
      <point x="89" y="700" type="line"/>
      <point x="218" y="700" type="line"/>
      <point x="610" y="170" type="line"/>
      <point x="584" y="168" type="line"/>
      <point x="574" y="243"/>
      <point x="564" y="397"/>
    </contour>
    <contour>
      <point x="345" y="-282" type="qcurve"/>
      <point x="312" y="-233" type="line"/>
      <point x="341" y="-224"/>
      <point x="377" y="-193"/>
      <point x="377" y="-178" type="qcurve"/>
      <point x="377" y="-170"/>
      <point x="367" y="-162"/>
      <point x="355" y="-157" type="qcurve"/>
      <point x="335" y="-150"/>
      <point x="320" y="-128"/>
      <point x="320" y="-110" type="qcurve"/>
      <point x="320" y="-82"/>
      <point x="361" y="-52"/>
      <point x="394" y="-52" type="qcurve"/>
      <point x="432" y="-52"/>
      <point x="485" y="-98"/>
      <point x="485" y="-141" type="qcurve"/>
      <point x="485" y="-190"/>
      <point x="409" y="-263"/>
    </contour>
  </outline>
</glyph>
<glyph name="uni0146" format="2">
  <advance width="618"/>
  <unicode hex="0146"/>
  <outline>
    <contour>
      <point x="371" y="539" type="qcurve"/>
      <point x="461" y="539"/>
      <point x="553" y="431"/>
      <point x="553" y="323" type="qcurve"/>
      <point x="553" y="0" type="line"/>
      <point x="417" y="0" type="line"/>
      <point x="417" y="313" type="line"/>
      <point x="417" y="369"/>
      <point x="369" y="424"/>
      <point x="322" y="422" type="qcurve"/>
      <point x="273" y="422"/>
      <point x="208" y="362"/>
      <point x="208" y="318" type="qcurve"/>
      <point x="208" y="0" type="line"/>
      <point x="182" y="0"/>
      <point x="97" y="0"/>
      <point x="71" y="0" type="qcurve"/>
      <point x="71" y="528" type="line"/>
      <point x="203" y="528" type="line"/>
      <point x="206" y="420" type="line"/>
      <point x="180" y="408" type="line"/>
      <point x="195" y="462"/>
      <point x="306" y="539"/>
    </contour>
    <contour>
      <point x="265" y="-282" type="qcurve"/>
      <point x="232" y="-232" type="line"/>
      <point x="260" y="-223"/>
      <point x="296" y="-193"/>
      <point x="296" y="-177" type="qcurve"/>
      <point x="296" y="-170"/>
      <point x="287" y="-161"/>
      <point x="274" y="-157" type="qcurve"/>
      <point x="255" y="-150"/>
      <point x="239" y="-128"/>
      <point x="239" y="-110" type="qcurve"/>
      <point x="239" y="-82"/>
      <point x="282" y="-51"/>
      <point x="315" y="-51" type="qcurve"/>
      <point x="353" y="-51"/>
      <point x="404" y="-98"/>
      <point x="404" y="-142" type="qcurve"/>
      <point x="404" y="-188"/>
      <point x="329" y="-259"/>
    </contour>
  </outline>
</glyph>
<glyph name="eng" format="2">
  <advance width="619"/>
  <unicode hex="014B"/>
  <outline>
    <contour>
      <point x="371" y="539" type="qcurve"/>
      <point x="461" y="539"/>
      <point x="553" y="431"/>
      <point x="553" y="323" type="qcurve"/>
      <point x="553" y="-16" type="line"/>
      <point x="553" y="-104"/>
      <point x="444" y="-200"/>
      <point x="348" y="-200" type="qcurve"/>
      <point x="297" y="-95" type="line"/>
      <point x="357" y="-95"/>
      <point x="415" y="-36"/>
      <point x="417" y="21" type="qcurve"/>
      <point x="417" y="313" type="line"/>
      <point x="417" y="369"/>
      <point x="369" y="424"/>
      <point x="322" y="422" type="qcurve"/>
      <point x="273" y="422"/>
      <point x="208" y="362"/>
      <point x="208" y="318" type="qcurve"/>
      <point x="208" y="0" type="line"/>
      <point x="71" y="0" type="line"/>
      <point x="71" y="528" type="line"/>
      <point x="203" y="528" type="line"/>
      <point x="204" y="456" type="line"/>
      <point x="231" y="492"/>
      <point x="321" y="539"/>
    </contour>
  </outline>
</glyph>
<glyph name="Obreve" format="2">
  <advance width="799"/>
  <unicode hex="014E"/>
  <outline>
    <contour>
      <point x="400" y="713" type="qcurve"/>
      <point x="553" y="713"/>
      <point x="754" y="507"/>
      <point x="754" y="352" type="qcurve"/>
      <point x="754" y="196"/>
      <point x="553" y="-10"/>
      <point x="400" y="-10" type="qcurve"/>
      <point x="246" y="-10"/>
      <point x="45" y="195"/>
      <point x="45" y="352" type="qcurve"/>
      <point x="45" y="508"/>
      <point x="246" y="713"/>
    </contour>
    <contour>
      <point x="400" y="127" type="qcurve"/>
      <point x="490" y="127"/>
      <point x="607" y="254"/>
      <point x="607" y="352" type="qcurve"/>
      <point x="607" y="449"/>
      <point x="490" y="577"/>
      <point x="400" y="577" type="qcurve"/>
      <point x="309" y="577"/>
      <point x="192" y="450"/>
      <point x="192" y="352" type="qcurve"/>
      <point x="192" y="254"/>
      <point x="309" y="127"/>
    </contour>
    <contour>
      <point x="394" y="757" type="qcurve"/>
      <point x="329" y="757"/>
      <point x="237" y="842"/>
      <point x="222" y="915" type="qcurve"/>
      <point x="313" y="927" type="line"/>
      <point x="325" y="892"/>
      <point x="369" y="852"/>
      <point x="394" y="852" type="qcurve"/>
      <point x="419" y="852"/>
      <point x="464" y="892"/>
      <point x="476" y="927" type="qcurve"/>
      <point x="566" y="915" type="line"/>
      <point x="552" y="842"/>
      <point x="459" y="757"/>
    </contour>
  </outline>
</glyph>
<glyph name="obreve" format="2">
  <advance width="630"/>
  <unicode hex="014F"/>
  <outline>
    <contour>
      <point x="316" y="539" type="qcurve"/>
      <point x="435" y="539"/>
      <point x="593" y="384"/>
      <point x="593" y="265" type="qcurve"/>
      <point x="593" y="146"/>
      <point x="435" y="-10"/>
      <point x="316" y="-10" type="qcurve"/>
      <point x="195" y="-10"/>
      <point x="37" y="146"/>
      <point x="37" y="265" type="qcurve"/>
      <point x="37" y="384"/>
      <point x="195" y="539"/>
    </contour>
    <contour>
      <point x="316" y="109" type="qcurve"/>
      <point x="377" y="109"/>
      <point x="456" y="198"/>
      <point x="455" y="265" type="qcurve"/>
      <point x="456" y="333"/>
      <point x="377" y="420"/>
      <point x="316" y="420" type="qcurve"/>
      <point x="254" y="420"/>
      <point x="174" y="332"/>
      <point x="175" y="265" type="qcurve"/>
      <point x="174" y="198"/>
      <point x="254" y="109"/>
    </contour>
    <contour>
      <point x="311" y="616" type="qcurve"/>
      <point x="246" y="616"/>
      <point x="154" y="701"/>
      <point x="139" y="774" type="qcurve"/>
      <point x="230" y="786" type="line"/>
      <point x="242" y="751"/>
      <point x="286" y="711"/>
      <point x="311" y="711" type="qcurve"/>
      <point x="336" y="711"/>
      <point x="381" y="751"/>
      <point x="393" y="786" type="qcurve"/>
      <point x="483" y="774" type="line"/>
      <point x="469" y="701"/>
      <point x="376" y="616"/>
    </contour>
  </outline>
</glyph>
<glyph name="Racute" format="2">
  <advance width="696"/>
  <unicode hex="0154"/>
  <outline>
    <contour>
      <point x="628" y="477" type="qcurve"/>
      <point x="628" y="383"/>
      <point x="494" y="253"/>
      <point x="397" y="253" type="qcurve"/>
      <point x="194" y="253" type="line"/>
      <point x="194" y="372" type="line"/>
      <point x="392" y="372" type="line"/>
      <point x="434" y="372"/>
      <point x="484" y="429"/>
      <point x="484" y="472" type="qcurve"/>
      <point x="484" y="518"/>
      <point x="423" y="574"/>
      <point x="372" y="574" type="qcurve"/>
      <point x="197" y="574" type="line"/>
      <point x="228" y="630" type="line"/>
      <point x="228" y="0" type="line"/>
      <point x="89" y="0" type="line"/>
      <point x="89" y="700" type="line"/>
      <point x="397" y="700" type="line"/>
      <point x="493" y="700"/>
      <point x="628" y="573"/>
    </contour>
    <contour>
      <point x="310" y="316" type="line"/>
      <point x="458" y="341" type="line"/>
      <point x="656" y="-1" type="line"/>
      <point x="488" y="0" type="line"/>
    </contour>
    <contour>
      <point x="488" y="860" type="line"/>
      <point x="296" y="757" type="line"/>
      <point x="253" y="822" type="line"/>
      <point x="417" y="956" type="line"/>
    </contour>
  </outline>
</glyph>
<glyph name="racute" format="2">
  <advance width="433"/>
  <unicode hex="0155"/>
  <outline>
    <contour>
      <point x="423" y="530" type="qcurve"/>
      <point x="386" y="380" type="line"/>
      <point x="375" y="386"/>
      <point x="341" y="394"/>
      <point x="324" y="394" type="qcurve"/>
      <point x="275" y="394"/>
      <point x="208" y="327"/>
      <point x="208" y="276" type="qcurve"/>
      <point x="208" y="0" type="line"/>
      <point x="71" y="0" type="line"/>
      <point x="71" y="528" type="line"/>
      <point x="203" y="528" type="line"/>
      <point x="207" y="359" type="line"/>
      <point x="186" y="395" type="line"/>
      <point x="203" y="456"/>
      <point x="304" y="539"/>
      <point x="363" y="539" type="qcurve"/>
      <point x="381" y="539"/>
      <point x="412" y="534"/>
    </contour>
    <contour>
      <point x="389" y="716" type="line"/>
      <point x="197" y="612" type="line"/>
      <point x="155" y="676" type="line"/>
      <point x="319" y="811" type="line"/>
    </contour>
  </outline>
</glyph>
<glyph name="uni0157" format="2">
  <advance width="433"/>
  <unicode hex="0157"/>
  <outline>
    <contour>
      <point x="423" y="530" type="qcurve"/>
      <point x="386" y="380" type="line"/>
      <point x="375" y="386"/>
      <point x="341" y="394"/>
      <point x="324" y="394" type="qcurve"/>
      <point x="275" y="394"/>
      <point x="208" y="327"/>
      <point x="208" y="276" type="qcurve"/>
      <point x="208" y="0" type="line"/>
      <point x="71" y="0" type="line"/>
      <point x="71" y="528" type="line"/>
      <point x="203" y="528" type="line"/>
      <point x="207" y="359" type="line"/>
      <point x="186" y="395" type="line"/>
      <point x="203" y="456"/>
      <point x="304" y="539"/>
      <point x="363" y="539" type="qcurve"/>
      <point x="381" y="539"/>
      <point x="412" y="534"/>
    </contour>
    <contour>
      <point x="90" y="-282" type="qcurve"/>
      <point x="57" y="-232" type="line"/>
      <point x="86" y="-223"/>
      <point x="122" y="-193"/>
      <point x="122" y="-177" type="qcurve"/>
      <point x="122" y="-170"/>
      <point x="112" y="-161"/>
      <point x="100" y="-157" type="qcurve"/>
      <point x="80" y="-150"/>
      <point x="65" y="-128"/>
      <point x="65" y="-110" type="qcurve"/>
      <point x="65" y="-82"/>
      <point x="107" y="-51"/>
      <point x="140" y="-51" type="qcurve"/>
      <point x="178" y="-51"/>
      <point x="230" y="-98"/>
      <point x="230" y="-142" type="qcurve"/>
      <point x="230" y="-188"/>
      <point x="154" y="-259"/>
    </contour>
  </outline>
</glyph>
<glyph name="Rcaron" format="2">
  <advance width="696"/>
  <unicode hex="0158"/>
  <outline>
    <contour>
      <point x="628" y="477" type="qcurve"/>
      <point x="628" y="383"/>
      <point x="494" y="253"/>
      <point x="397" y="253" type="qcurve"/>
      <point x="194" y="253" type="line"/>
      <point x="194" y="372" type="line"/>
      <point x="392" y="372" type="line"/>
      <point x="434" y="372"/>
      <point x="484" y="429"/>
      <point x="484" y="472" type="qcurve"/>
      <point x="484" y="518"/>
      <point x="423" y="574"/>
      <point x="372" y="574" type="qcurve"/>
      <point x="197" y="574" type="line"/>
      <point x="228" y="630" type="line"/>
      <point x="228" y="0" type="line"/>
      <point x="89" y="0" type="line"/>
      <point x="89" y="700" type="line"/>
      <point x="397" y="700" type="line"/>
      <point x="493" y="700"/>
      <point x="628" y="573"/>
    </contour>
    <contour>
      <point x="310" y="316" type="line"/>
      <point x="458" y="341" type="line"/>
      <point x="656" y="-1" type="line"/>
      <point x="488" y="0" type="line"/>
    </contour>
    <contour>
      <point x="460" y="926" type="line"/>
      <point x="317" y="845" type="line"/>
      <point x="347" y="845" type="line"/>
      <point x="204" y="926" type="line"/>
      <point x="154" y="883" type="line"/>
      <point x="286" y="761" type="line"/>
      <point x="378" y="761" type="line"/>
      <point x="510" y="883" type="line"/>
    </contour>
  </outline>
</glyph>
<glyph name="scedilla" format="2">
  <advance width="488"/>
  <unicode hex="015F"/>
  <outline>
    <contour>
      <point x="27" y="82" type="qcurve"/>
      <point x="113" y="155" type="line"/>
      <point x="145" y="121"/>
      <point x="219" y="93"/>
      <point x="261" y="93" type="qcurve"/>
      <point x="290" y="93"/>
      <point x="327" y="121"/>
      <point x="327" y="146" type="qcurve"/>
      <point x="327" y="168"/>
      <point x="291" y="193"/>
      <point x="223" y="211" type="qcurve"/>
      <point x="129" y="236"/>
      <point x="43" y="316"/>
      <point x="43" y="381" type="qcurve"/>
      <point x="43" y="452"/>
      <point x="163" y="539"/>
      <point x="245" y="539" type="qcurve"/>
      <point x="307" y="539"/>
      <point x="417" y="495"/>
      <point x="454" y="457" type="qcurve"/>
      <point x="380" y="376" type="line"/>
      <point x="352" y="402"/>
      <point x="275" y="437"/>
      <point x="246" y="437" type="qcurve"/>
      <point x="213" y="437"/>
      <point x="176" y="412"/>
      <point x="176" y="388" type="qcurve"/>
      <point x="177" y="364"/>
      <point x="216" y="335"/>
      <point x="289" y="316" type="qcurve"/>
      <point x="380" y="291"/>
      <point x="457" y="217"/>
      <point x="457" y="157" type="qcurve"/>
      <point x="457" y="84"/>
      <point x="337" y="-10"/>
      <point x="249" y="-10" type="qcurve"/>
      <point x="176" y="-10"/>
      <point x="62" y="38"/>
    </contour>
    <contour>
      <point x="229" y="-94" type="line"/>
      <point x="163" y="-87" type="line"/>
      <point x="233" y="24" type="line"/>
      <point x="306" y="24" type="line"/>
    </contour>
    <contour>
      <point x="363" y="-139" type="qcurve"/>
      <point x="363" y="-162"/>
      <point x="324" y="-211"/>
      <point x="291" y="-226" type="qcurve"/>
      <point x="264" y="-237"/>
      <point x="199" y="-246"/>
      <point x="163" y="-245" type="qcurve"/>
      <point x="154" y="-179" type="line"/>
      <point x="187" y="-179"/>
      <point x="258" y="-152"/>
      <point x="258" y="-134" type="qcurve"/>
      <point x="258" y="-119"/>
      <point x="213" y="-99"/>
      <point x="179" y="-99" type="qcurve"/>
      <point x="163" y="-89" type="line"/>
      <point x="163" y="-87" type="line"/>
      <point x="237" y="-40" type="line"/>
      <point x="300" y="-46"/>
      <point x="363" y="-99"/>
    </contour>
  </outline>
</glyph>
<glyph name="uni0163" format="2">
  <advance width="392"/>
  <unicode hex="0163"/>
  <outline>
    <contour>
      <point x="260" y="663" type="line"/>
      <point x="260" y="0" type="line"/>
      <point x="124" y="0" type="line"/>
      <point x="124" y="663" type="line"/>
    </contour>
    <contour>
      <point x="371" y="528" type="line"/>
      <point x="371" y="405" type="line"/>
      <point x="24" y="405" type="line"/>
      <point x="24" y="528" type="line"/>
    </contour>
    <contour>
      <point x="171" y="-93" type="line"/>
      <point x="105" y="-86" type="line"/>
      <point x="175" y="24" type="line"/>
      <point x="247" y="24" type="line"/>
    </contour>
    <contour>
      <point x="304" y="-139" type="qcurve"/>
      <point x="304" y="-162"/>
      <point x="266" y="-211"/>
      <point x="232" y="-226" type="qcurve"/>
      <point x="206" y="-237"/>
      <point x="141" y="-246"/>
      <point x="104" y="-245" type="qcurve"/>
      <point x="96" y="-179" type="line"/>
      <point x="129" y="-179"/>
      <point x="199" y="-152"/>
      <point x="199" y="-133" type="qcurve"/>
      <point x="199" y="-119"/>
      <point x="155" y="-99"/>
      <point x="120" y="-98" type="qcurve"/>
      <point x="105" y="-88" type="line"/>
      <point x="105" y="-86" type="line"/>
      <point x="178" y="-40" type="line"/>
      <point x="242" y="-45"/>
      <point x="304" y="-98"/>
    </contour>
  </outline>
</glyph>
<glyph name="Tcaron" format="2">
  <advance width="622"/>
  <unicode hex="0164"/>
  <outline>
    <contour>
      <point x="380" y="0" type="line"/>
      <point x="236" y="0" type="line"/>
      <point x="236" y="651" type="line"/>
      <point x="380" y="651" type="line"/>
    </contour>
    <contour>
      <point x="589" y="569" type="line"/>
      <point x="33" y="569" type="line"/>
      <point x="33" y="700" type="line"/>
      <point x="589" y="700" type="line"/>
    </contour>
    <contour>
      <point x="437" y="926" type="line"/>
      <point x="293" y="845" type="line"/>
      <point x="323" y="845" type="line"/>
      <point x="180" y="926" type="line"/>
      <point x="131" y="883" type="line"/>
      <point x="263" y="761" type="line"/>
      <point x="354" y="761" type="line"/>
      <point x="486" y="883" type="line"/>
    </contour>
  </outline>
</glyph>
<glyph name="Utilde" format="2">
  <advance width="755"/>
  <unicode hex="0168"/>
  <outline>
    <contour>
      <point x="530" y="701" type="line"/>
      <point x="669" y="701" type="line"/>
      <point x="669" y="269" type="line"/>
      <point x="669" y="150"/>
      <point x="504" y="-6"/>
      <point x="377" y="-6" type="qcurve"/>
      <point x="251" y="-6"/>
      <point x="85" y="150"/>
      <point x="85" y="269" type="qcurve"/>
      <point x="85" y="701" type="line"/>
      <point x="230" y="701" type="line"/>
      <point x="230" y="278" type="line"/>
      <point x="230" y="213"/>
      <point x="316" y="125"/>
      <point x="377" y="125" type="qcurve"/>
      <point x="442" y="125"/>
      <point x="530" y="213"/>
      <point x="530" y="278" type="qcurve"/>
    </contour>
    <contour>
      <point x="288" y="801" type="qcurve"/>
      <point x="197" y="801" type="line"/>
      <point x="197" y="861"/>
      <point x="260" y="931"/>
      <point x="313" y="931" type="qcurve"/>
      <point x="328" y="931"/>
      <point x="362" y="922"/>
      <point x="394" y="908" type="qcurve"/>
      <point x="418" y="897"/>
      <point x="438" y="891"/>
      <point x="446" y="891" type="qcurve"/>
      <point x="459" y="891"/>
      <point x="472" y="913"/>
      <point x="471" y="931" type="qcurve"/>
      <point x="560" y="931" type="line"/>
      <point x="560" y="875"/>
      <point x="504" y="800"/>
      <point x="458" y="800" type="qcurve"/>
      <point x="441" y="800"/>
      <point x="402" y="810"/>
      <point x="365" y="824" type="qcurve"/>
      <point x="342" y="833"/>
      <point x="321" y="840"/>
      <point x="315" y="840" type="qcurve"/>
      <point x="303" y="840"/>
      <point x="288" y="819"/>
    </contour>
  </outline>
</glyph>
<glyph name="utilde" format="2">
  <advance width="626"/>
  <unicode hex="0169"/>
  <outline>
    <contour>
      <point x="307" y="105" type="qcurve"/>
      <point x="355" y="105"/>
      <point x="418" y="165"/>
      <point x="418" y="212" type="qcurve"/>
      <point x="418" y="528" type="line"/>
      <point x="554" y="528" type="line"/>
      <point x="554" y="0" type="line"/>
      <point x="424" y="0" type="line"/>
      <point x="420" y="109" type="line"/>
      <point x="444" y="121" type="line"/>
      <point x="427" y="65"/>
      <point x="320" y="-10"/>
      <point x="254" y="-10" type="qcurve"/>
      <point x="167" y="-10"/>
      <point x="68" y="103"/>
      <point x="68" y="202" type="qcurve"/>
      <point x="68" y="528" type="line"/>
      <point x="204" y="528" type="line"/>
      <point x="204" y="227" type="line"/>
      <point x="204" y="170"/>
      <point x="259" y="105"/>
    </contour>
    <contour>
      <point x="221" y="616" type="qcurve"/>
      <point x="138" y="628" type="line"/>
      <point x="139" y="683"/>
      <point x="202" y="757"/>
      <point x="251" y="757" type="qcurve"/>
      <point x="268" y="757"/>
      <point x="303" y="744"/>
      <point x="327" y="723" type="qcurve"/>
      <point x="345" y="708"/>
      <point x="360" y="700"/>
      <point x="368" y="700" type="qcurve"/>
      <point x="381" y="700"/>
      <point x="399" y="726"/>
      <point x="399" y="747" type="qcurve"/>
      <point x="482" y="731" type="line"/>
      <point x="480" y="682"/>
      <point x="422" y="611"/>
      <point x="377" y="611" type="qcurve"/>
      <point x="356" y="611"/>
      <point x="317" y="626"/>
      <point x="292" y="649" type="qcurve"/>
      <point x="278" y="661"/>
      <point x="264" y="668"/>
      <point x="258" y="668" type="qcurve"/>
      <point x="242" y="668"/>
      <point x="222" y="643"/>
    </contour>
  </outline>
</glyph>
<glyph name="Umacron" format="2">
  <advance width="755"/>
  <unicode hex="016A"/>
  <outline>
    <contour>
      <point x="530" y="701" type="line"/>
      <point x="669" y="701" type="line"/>
      <point x="669" y="269" type="line"/>
      <point x="669" y="150"/>
      <point x="504" y="-6"/>
      <point x="377" y="-6" type="qcurve"/>
      <point x="251" y="-6"/>
      <point x="85" y="150"/>
      <point x="85" y="269" type="qcurve"/>
      <point x="85" y="701" type="line"/>
      <point x="230" y="701" type="line"/>
      <point x="230" y="278" type="line"/>
      <point x="230" y="213"/>
      <point x="316" y="125"/>
      <point x="377" y="125" type="qcurve"/>
      <point x="442" y="125"/>
      <point x="530" y="213"/>
      <point x="530" y="278" type="qcurve"/>
    </contour>
    <contour>
      <point x="552" y="774" type="line"/>
      <point x="205" y="774" type="line"/>
      <point x="205" y="864" type="line"/>
      <point x="552" y="864" type="line"/>
    </contour>
  </outline>
</glyph>
<glyph name="Uogonek" format="2">
  <advance width="743"/>
  <unicode hex="0172"/>
  <outline>
    <contour>
      <point x="383" y="-14" type="qcurve"/>
      <point x="246" y="-14"/>
      <point x="81" y="155"/>
      <point x="81" y="269" type="qcurve"/>
      <point x="81" y="701" type="line"/>
      <point x="226" y="701" type="line"/>
      <point x="226" y="278" type="line"/>
      <point x="226" y="210"/>
      <point x="312" y="118"/>
      <point x="373" y="118" type="qcurve"/>
      <point x="438" y="118"/>
      <point x="526" y="209"/>
      <point x="526" y="278" type="qcurve"/>
      <point x="526" y="701" type="line"/>
      <point x="665" y="701" type="line"/>
      <point x="665" y="269" type="line"/>
      <point x="665" y="178"/>
      <point x="567" y="42"/>
      <point x="484" y="8" type="qcurve"/>
      <point x="450" y="-5"/>
      <point x="410" y="-51"/>
      <point x="410" y="-74" type="qcurve"/>
      <point x="410" y="-93"/>
      <point x="429" y="-114"/>
      <point x="447" y="-114" type="qcurve"/>
      <point x="457" y="-114"/>
      <point x="473" y="-101"/>
      <point x="481" y="-89" type="qcurve"/>
      <point x="542" y="-140" type="line"/>
      <point x="530" y="-165"/>
      <point x="467" y="-204"/>
      <point x="430" y="-204" type="qcurve"/>
      <point x="381" y="-204"/>
      <point x="314" y="-140"/>
      <point x="314" y="-91" type="qcurve"/>
      <point x="314" y="-51"/>
      <point x="368" y="13"/>
      <point x="427" y="41" type="qcurve"/>
      <point x="460" y="9" type="line"/>
      <point x="448" y="-2"/>
      <point x="401" y="-14"/>
    </contour>
  </outline>
</glyph>
<glyph name="uogonek" format="2">
  <advance width="626"/>
  <unicode hex="0173"/>
  <outline>
    <contour>
      <point x="307" y="105" type="qcurve"/>
      <point x="355" y="105"/>
      <point x="418" y="165"/>
      <point x="418" y="212" type="qcurve"/>
      <point x="418" y="528" type="line"/>
      <point x="554" y="528" type="line"/>
      <point x="554" y="0" type="line"/>
      <point x="424" y="0" type="line"/>
      <point x="420" y="109" type="line"/>
      <point x="444" y="121" type="line"/>
      <point x="427" y="65"/>
      <point x="320" y="-10"/>
      <point x="254" y="-10" type="qcurve"/>
      <point x="167" y="-10"/>
      <point x="68" y="103"/>
      <point x="68" y="202" type="qcurve"/>
      <point x="68" y="528" type="line"/>
      <point x="204" y="528" type="line"/>
      <point x="204" y="227" type="line"/>
      <point x="204" y="170"/>
      <point x="259" y="105"/>
    </contour>
    <contour>
      <point x="464" y="-206" type="qcurve"/>
      <point x="417" y="-206"/>
      <point x="349" y="-143"/>
      <point x="349" y="-99" type="qcurve"/>
      <point x="349" y="-48"/>
      <point x="432" y="29"/>
      <point x="510" y="51" type="qcurve"/>
      <point x="543" y="44" type="line"/>
      <point x="554" y="0" type="line"/>
      <point x="512" y="-10"/>
      <point x="451" y="-56"/>
      <point x="451" y="-83" type="qcurve"/>
      <point x="451" y="-97"/>
      <point x="468" y="-114"/>
      <point x="482" y="-114" type="qcurve"/>
      <point x="492" y="-114"/>
      <point x="508" y="-102"/>
      <point x="516" y="-90" type="qcurve"/>
      <point x="580" y="-136" type="line"/>
      <point x="567" y="-163"/>
      <point x="503" y="-206"/>
    </contour>
  </outline>
</glyph>
<glyph name="Ycircumflex" format="2">
  <advance width="677"/>
  <unicode hex="0176"/>
  <outline>
    <contour>
      <point x="516" y="700" type="line"/>
      <point x="677" y="700" type="line"/>
      <point x="406" y="289" type="line"/>
      <point x="421" y="357" type="line"/>
      <point x="421" y="0" type="line"/>
      <point x="276" y="0" type="line"/>
      <point x="276" y="349" type="line"/>
      <point x="283" y="300" type="line"/>
      <point x="0" y="700" type="line"/>
      <point x="167" y="700" type="line"/>
      <point x="383" y="390" type="line"/>
      <point x="321" y="393" type="line"/>
    </contour>
    <contour>
      <point x="464" y="758" type="line"/>
      <point x="324" y="836" type="line"/>
      <point x="354" y="836" type="line"/>
      <point x="214" y="758" type="line"/>
      <point x="167" y="804" type="line"/>
      <point x="298" y="920" type="line"/>
      <point x="380" y="920" type="line"/>
      <point x="511" y="804" type="line"/>
    </contour>
  </outline>
</glyph>
<glyph name="Ydieresis" format="2">
  <advance width="677"/>
  <unicode hex="0178"/>
  <outline>
    <contour>
      <point x="516" y="700" type="line"/>
      <point x="677" y="700" type="line"/>
      <point x="406" y="289" type="line"/>
      <point x="421" y="357" type="line"/>
      <point x="421" y="0" type="line"/>
      <point x="276" y="0" type="line"/>
      <point x="276" y="349" type="line"/>
      <point x="283" y="300" type="line"/>
      <point x="0" y="700" type="line"/>
      <point x="167" y="700" type="line"/>
      <point x="383" y="390" type="line"/>
      <point x="321" y="393" type="line"/>
    </contour>
    <contour>
      <point x="306" y="833" type="qcurve"/>
      <point x="306" y="799"/>
      <point x="263" y="756"/>
      <point x="226" y="756" type="qcurve"/>
      <point x="188" y="756"/>
      <point x="147" y="796"/>
      <point x="147" y="833" type="qcurve"/>
      <point x="147" y="867"/>
      <point x="190" y="909"/>
      <point x="226" y="909" type="qcurve"/>
      <point x="264" y="909"/>
      <point x="306" y="870"/>
    </contour>
    <contour>
      <point x="534" y="833" type="qcurve"/>
      <point x="534" y="799"/>
      <point x="491" y="756"/>
      <point x="454" y="756" type="qcurve"/>
      <point x="416" y="756"/>
      <point x="375" y="796"/>
      <point x="375" y="833" type="qcurve"/>
      <point x="375" y="867"/>
      <point x="418" y="909"/>
      <point x="454" y="909" type="qcurve"/>
      <point x="492" y="909"/>
      <point x="534" y="870"/>
    </contour>
  </outline>
</glyph>
<glyph name="Zacute" format="2">
  <advance width="673"/>
  <unicode hex="0179"/>
  <outline>
    <contour>
      <point x="86" y="700" type="line"/>
      <point x="605" y="700" type="line"/>
      <point x="605" y="602" type="line"/>
      <point x="222" y="87" type="line"/>
      <point x="180" y="130" type="line"/>
      <point x="616" y="130" type="line"/>
      <point x="616" y="0" type="line"/>
      <point x="60" y="0" type="line"/>
      <point x="60" y="99" type="line"/>
      <point x="446" y="613" type="line"/>
      <point x="486" y="566" type="line"/>
      <point x="86" y="566" type="line"/>
    </contour>
    <contour>
      <point x="498" y="860" type="line"/>
      <point x="306" y="757" type="line"/>
      <point x="263" y="822" type="line"/>
      <point x="427" y="956" type="line"/>
    </contour>
  </outline>
</glyph>
<glyph name="Zdotaccent" format="2">
  <advance width="673"/>
  <unicode hex="017B"/>
  <outline>
    <contour>
      <point x="86" y="700" type="line"/>
      <point x="605" y="700" type="line"/>
      <point x="605" y="602" type="line"/>
      <point x="222" y="87" type="line"/>
      <point x="180" y="130" type="line"/>
      <point x="616" y="130" type="line"/>
      <point x="616" y="0" type="line"/>
      <point x="60" y="0" type="line"/>
      <point x="60" y="99" type="line"/>
      <point x="446" y="613" type="line"/>
      <point x="486" y="566" type="line"/>
      <point x="86" y="566" type="line"/>
    </contour>
    <contour>
      <point x="422" y="838" type="qcurve"/>
      <point x="422" y="805"/>
      <point x="377" y="763"/>
      <point x="338" y="763" type="qcurve"/>
      <point x="297" y="763"/>
      <point x="253" y="802"/>
      <point x="253" y="838" type="qcurve"/>
      <point x="253" y="871"/>
      <point x="298" y="913"/>
      <point x="338" y="913" type="qcurve"/>
      <point x="378" y="913"/>
      <point x="422" y="874"/>
    </contour>
  </outline>
</glyph>
<glyph name="zdotaccent" format="2">
  <advance width="522"/>
  <unicode hex="017C"/>
  <outline>
    <contour>
      <point x="195" y="113" type="line"/>
      <point x="474" y="113" type="line"/>
      <point x="474" y="0" type="line"/>
      <point x="50" y="0" type="line"/>
      <point x="50" y="89" type="line"/>
      <point x="328" y="451" type="line"/>
      <point x="328" y="416" type="line"/>
      <point x="50" y="416" type="line"/>
      <point x="50" y="528" type="line"/>
      <point x="466" y="528" type="line"/>
      <point x="466" y="438" type="line"/>
      <point x="199" y="84" type="line"/>
    </contour>
    <contour>
      <point x="349" y="696" type="qcurve"/>
      <point x="349" y="663"/>
      <point x="304" y="621"/>
      <point x="265" y="621" type="qcurve"/>
      <point x="225" y="621"/>
      <point x="180" y="660"/>
      <point x="180" y="696" type="qcurve"/>
      <point x="180" y="730"/>
      <point x="226" y="772"/>
      <point x="265" y="772" type="qcurve"/>
      <point x="305" y="772"/>
      <point x="349" y="732"/>
    </contour>
  </outline>
</glyph>
<glyph name="zcaron" format="2">
  <advance width="522"/>
  <unicode hex="017E"/>
  <outline>
    <contour>
      <point x="195" y="113" type="line"/>
      <point x="474" y="113" type="line"/>
      <point x="474" y="0" type="line"/>
      <point x="50" y="0" type="line"/>
      <point x="50" y="89" type="line"/>
      <point x="328" y="451" type="line"/>
      <point x="328" y="416" type="line"/>
      <point x="50" y="416" type="line"/>
      <point x="50" y="528" type="line"/>
      <point x="466" y="528" type="line"/>
      <point x="466" y="438" type="line"/>
      <point x="199" y="84" type="line"/>
    </contour>
    <contour>
      <point x="280" y="701" type="line"/>
      <point x="250" y="701" type="line"/>
      <point x="386" y="782" type="line"/>
      <point x="436" y="739" type="line"/>
      <point x="310" y="616" type="line"/>
      <point x="219" y="616" type="line"/>
      <point x="94" y="739" type="line"/>
      <point x="143" y="782" type="line"/>
    </contour>
  </outline>
</glyph>
<glyph name="uni018F" format="2">
  <advance width="775"/>
  <unicode hex="018F"/>
  <outline>
    <contour>
      <point x="729" y="350" type="qcurve"/>
      <point x="729" y="201"/>
      <point x="528" y="-10"/>
      <point x="387" y="-10" type="qcurve"/>
      <point x="251" y="-10"/>
      <point x="52" y="174"/>
      <point x="45" y="313" type="qcurve"/>
      <point x="45" y="404" type="line"/>
      <point x="683" y="404" type="line"/>
      <point x="692" y="284" type="line"/>
      <point x="193" y="284" type="line"/>
      <point x="208" y="212"/>
      <point x="319" y="121"/>
      <point x="387" y="121" type="qcurve"/>
      <point x="474" y="121"/>
      <point x="587" y="245"/>
      <point x="587" y="351" type="qcurve"/>
      <point x="587" y="456"/>
      <point x="472" y="579"/>
      <point x="378" y="579" type="qcurve"/>
      <point x="317" y="579"/>
      <point x="226" y="544"/>
      <point x="182" y="507" type="qcurve"/>
      <point x="111" y="611" type="line"/>
      <point x="172" y="663"/>
      <point x="297" y="710"/>
      <point x="384" y="710" type="qcurve"/>
      <point x="526" y="710"/>
      <point x="729" y="499"/>
    </contour>
  </outline>
</glyph>
<glyph name="florin" format="2">
  <advance width="541"/>
  <unicode hex="0192"/>
  <outline>
    <contour>
      <point x="105" y="-31" type="qcurve"/>
      <point x="75" y="-31"/>
      <point x="20" y="-14"/>
      <point x="-1" y="1" type="qcurve"/>
      <point x="42" y="103" type="line"/>
      <point x="57" y="95"/>
      <point x="83" y="88"/>
      <point x="100" y="88" type="qcurve"/>
      <point x="123" y="88"/>
      <point x="153" y="127"/>
      <point x="160" y="163" type="qcurve"/>
      <point x="223" y="529" type="line"/>
      <point x="238" y="614"/>
      <point x="335" y="696"/>
      <point x="416" y="696" type="qcurve"/>
      <point x="452" y="696"/>
      <point x="513" y="679"/>
      <point x="542" y="660" type="qcurve"/>
      <point x="498" y="560" type="line"/>
      <point x="478" y="570"/>
      <point x="448" y="578"/>
      <point x="433" y="578" type="qcurve"/>
      <point x="399" y="578"/>
      <point x="363" y="541"/>
      <point x="356" y="504" type="qcurve"/>
      <point x="293" y="140" type="line"/>
      <point x="277" y="53"/>
      <point x="182" y="-31"/>
    </contour>
    <contour>
      <point x="459" y="331" type="line"/>
      <point x="80" y="332" type="line"/>
      <point x="80" y="442" type="line"/>
      <point x="459" y="441" type="line"/>
    </contour>
  </outline>
</glyph>
<glyph name="Ohorn" format="2">
  <advance width="799"/>
  <unicode hex="01A0"/>
  <outline>
    <contour>
      <point x="400" y="713" type="qcurve"/>
      <point x="553" y="713"/>
      <point x="754" y="507"/>
      <point x="754" y="352" type="qcurve"/>
      <point x="754" y="196"/>
      <point x="553" y="-10"/>
      <point x="400" y="-10" type="qcurve"/>
      <point x="246" y="-10"/>
      <point x="45" y="195"/>
      <point x="45" y="352" type="qcurve"/>
      <point x="45" y="508"/>
      <point x="246" y="713"/>
    </contour>
    <contour>
      <point x="400" y="127" type="qcurve"/>
      <point x="490" y="127"/>
      <point x="607" y="254"/>
      <point x="607" y="352" type="qcurve"/>
      <point x="607" y="449"/>
      <point x="490" y="577"/>
      <point x="400" y="577" type="qcurve"/>
      <point x="309" y="577"/>
      <point x="192" y="450"/>
      <point x="192" y="352" type="qcurve"/>
      <point x="192" y="254"/>
      <point x="309" y="127"/>
    </contour>
    <contour>
      <point x="476" y="607" type="qcurve"/>
      <point x="476" y="702" type="line"/>
      <point x="521" y="702"/>
      <point x="565" y="763"/>
      <point x="565" y="823" type="qcurve"/>
      <point x="677" y="823" type="line"/>
      <point x="677" y="726"/>
      <point x="571" y="607"/>
    </contour>
  </outline>
</glyph>
<glyph name="Uhorn" format="2">
  <advance width="811"/>
  <unicode hex="01AF"/>
  <outline>
    <contour>
      <point x="530" y="700" type="line"/>
      <point x="669" y="700" type="line"/>
      <point x="669" y="268" type="line"/>
      <point x="669" y="149"/>
      <point x="504" y="-7"/>
      <point x="377" y="-7" type="qcurve"/>
      <point x="251" y="-7"/>
      <point x="85" y="149"/>
      <point x="85" y="268" type="qcurve"/>
      <point x="85" y="700" type="line"/>
      <point x="230" y="700" type="line"/>
      <point x="230" y="277" type="line"/>
      <point x="230" y="212"/>
      <point x="316" y="124"/>
      <point x="377" y="124" type="qcurve"/>
      <point x="442" y="124"/>
      <point x="530" y="212"/>
      <point x="530" y="277" type="qcurve"/>
    </contour>
    <contour>
      <point x="598" y="605" type="qcurve"/>
      <point x="598" y="700" type="line"/>
      <point x="643" y="700"/>
      <point x="687" y="760"/>
      <point x="687" y="821" type="qcurve"/>
      <point x="799" y="821" type="line"/>
      <point x="799" y="723"/>
      <point x="694" y="605"/>
    </contour>
  </outline>
</glyph>
<glyph name="uni01C4" format="2">
  <advance width="1420"/>
  <unicode hex="01C4"/>
  <outline>
    <contour>
      <point x="92" y="700" type="line"/>
      <point x="377" y="700" type="line"/>
      <point x="530" y="700"/>
      <point x="717" y="505"/>
      <point x="717" y="350" type="qcurve"/>
      <point x="717" y="194"/>
      <point x="531" y="0"/>
      <point x="377" y="0" type="qcurve"/>
      <point x="92" y="0" type="line"/>
    </contour>
    <contour>
      <point x="222" y="131" type="line"/>
      <point x="372" y="131" type="line"/>
      <point x="465" y="131"/>
      <point x="571" y="249"/>
      <point x="571" y="350" type="qcurve"/>
      <point x="571" y="450"/>
      <point x="464" y="569"/>
      <point x="372" y="569" type="qcurve"/>
      <point x="219" y="569" type="line"/>
      <point x="236" y="592" type="line"/>
      <point x="236" y="106" type="line"/>
    </contour>
    <contour>
      <point x="833" y="700" type="line"/>
      <point x="1352" y="700" type="line"/>
      <point x="1352" y="602" type="line"/>
      <point x="969" y="87" type="line"/>
      <point x="927" y="130" type="line"/>
      <point x="1363" y="130" type="line"/>
      <point x="1363" y="0" type="line"/>
      <point x="807" y="0" type="line"/>
      <point x="807" y="99" type="line"/>
      <point x="1193" y="613" type="line"/>
      <point x="1233" y="566" type="line"/>
      <point x="833" y="566" type="line"/>
    </contour>
    <contour>
      <point x="1210" y="926" type="line"/>
      <point x="1066" y="845" type="line"/>
      <point x="1096" y="845" type="line"/>
      <point x="953" y="926" type="line"/>
      <point x="904" y="883" type="line"/>
      <point x="1036" y="761" type="line"/>
      <point x="1127" y="761" type="line"/>
      <point x="1259" y="883" type="line"/>
    </contour>
  </outline>
</glyph>
<glyph name="uni01C7" format="2">
  <advance width="1260"/>
  <unicode hex="01C7"/>
  <outline>
    <contour>
      <point x="182" y="131" type="line"/>
      <point x="555" y="131" type="line"/>
      <point x="555" y="0" type="line"/>
      <point x="92" y="0" type="line"/>
      <point x="92" y="700" type="line"/>
      <point x="236" y="700" type="line"/>
      <point x="236" y="78" type="line"/>
    </contour>
    <contour>
      <point x="864" y="-10" type="qcurve"/>
      <point x="790" y="-10"/>
      <point x="679" y="58"/>
      <point x="648" y="116" type="qcurve"/>
      <point x="733" y="205" type="line"/>
      <point x="768" y="157"/>
      <point x="820" y="123"/>
      <point x="853" y="123" type="qcurve"/>
      <point x="897" y="123"/>
      <point x="951" y="182"/>
      <point x="951" y="229" type="qcurve"/>
      <point x="951" y="700" type="line"/>
      <point x="1092" y="700" type="line"/>
      <point x="1092" y="213" type="line"/>
      <point x="1092" y="114"/>
      <point x="963" y="-10"/>
    </contour>
    <contour>
      <point x="1200" y="700" type="line"/>
      <point x="1200" y="572" type="line"/>
      <point x="822" y="572" type="line"/>
      <point x="822" y="700" type="line"/>
    </contour>
  </outline>
</glyph>
<glyph name="uni01C8" format="2">
  <advance width="903"/>
  <unicode hex="01C8"/>
  <outline>
    <contour>
      <point x="182" y="131" type="line"/>
      <point x="555" y="131" type="line"/>
      <point x="555" y="0" type="line"/>
      <point x="92" y="0" type="line"/>
      <point x="92" y="700" type="line"/>
      <point x="236" y="700" type="line"/>
      <point x="236" y="78" type="line"/>
    </contour>
    <contour>
      <point x="824" y="528" type="line"/>
      <point x="824" y="-8" type="line"/>
      <point x="824" y="-104"/>
      <point x="716" y="-204"/>
      <point x="621" y="-204" type="qcurve"/>
      <point x="570" y="-99" type="line"/>
      <point x="634" y="-99"/>
      <point x="688" y="-42"/>
      <point x="688" y="24" type="qcurve"/>
      <point x="688" y="528" type="line"/>
    </contour>
    <contour>
      <point x="841" y="704" type="qcurve"/>
      <point x="841" y="671"/>
      <point x="796" y="629"/>
      <point x="757" y="629" type="qcurve"/>
      <point x="717" y="629"/>
      <point x="673" y="668"/>
      <point x="673" y="704" type="qcurve"/>
      <point x="673" y="737"/>
      <point x="718" y="779"/>
      <point x="757" y="779" type="qcurve"/>
      <point x="797" y="779"/>
      <point x="841" y="740"/>
    </contour>
  </outline>
</glyph>
<glyph name="uni01CC" format="2">
  <advance width="917"/>
  <unicode hex="01CC"/>
  <outline>
    <contour>
      <point x="371" y="539" type="qcurve"/>
      <point x="461" y="539"/>
      <point x="553" y="431"/>
      <point x="553" y="323" type="qcurve"/>
      <point x="553" y="0" type="line"/>
      <point x="417" y="0" type="line"/>
      <point x="417" y="313" type="line"/>
      <point x="417" y="369"/>
      <point x="369" y="424"/>
      <point x="322" y="422" type="qcurve"/>
      <point x="273" y="422"/>
      <point x="208" y="362"/>
      <point x="208" y="318" type="qcurve"/>
      <point x="208" y="0" type="line"/>
      <point x="182" y="0"/>
      <point x="97" y="0"/>
      <point x="71" y="0" type="qcurve"/>
      <point x="71" y="528" type="line"/>
      <point x="203" y="528" type="line"/>
      <point x="206" y="420" type="line"/>
      <point x="180" y="408" type="line"/>
      <point x="195" y="462"/>
      <point x="306" y="539"/>
    </contour>
    <contour>
      <point x="838" y="528" type="line"/>
      <point x="838" y="-8" type="line"/>
      <point x="838" y="-104"/>
      <point x="730" y="-204"/>
      <point x="635" y="-204" type="qcurve"/>
      <point x="583" y="-99" type="line"/>
      <point x="647" y="-99"/>
      <point x="702" y="-42"/>
      <point x="702" y="24" type="qcurve"/>
      <point x="702" y="528" type="line"/>
    </contour>
    <contour>
      <point x="855" y="704" type="qcurve"/>
      <point x="855" y="671"/>
      <point x="810" y="629"/>
      <point x="771" y="629" type="qcurve"/>
      <point x="731" y="629"/>
      <point x="686" y="668"/>
      <point x="686" y="704" type="qcurve"/>
      <point x="686" y="737"/>
      <point x="732" y="779"/>
      <point x="771" y="779" type="qcurve"/>
      <point x="811" y="779"/>
      <point x="855" y="740"/>
    </contour>
  </outline>
</glyph>
<glyph name="uni01D1" format="2">
  <advance width="799"/>
  <unicode hex="01D1"/>
  <outline>
    <contour>
      <point x="400" y="713" type="qcurve"/>
      <point x="553" y="713"/>
      <point x="754" y="507"/>
      <point x="754" y="352" type="qcurve"/>
      <point x="754" y="196"/>
      <point x="553" y="-10"/>
      <point x="400" y="-10" type="qcurve"/>
      <point x="246" y="-10"/>
      <point x="45" y="195"/>
      <point x="45" y="352" type="qcurve"/>
      <point x="45" y="508"/>
      <point x="246" y="713"/>
    </contour>
    <contour>
      <point x="400" y="127" type="qcurve"/>
      <point x="490" y="127"/>
      <point x="607" y="254"/>
      <point x="607" y="352" type="qcurve"/>
      <point x="607" y="449"/>
      <point x="490" y="577"/>
      <point x="400" y="577" type="qcurve"/>
      <point x="309" y="577"/>
      <point x="192" y="450"/>
      <point x="192" y="352" type="qcurve"/>
      <point x="192" y="254"/>
      <point x="309" y="127"/>
    </contour>
    <contour>
      <point x="522" y="926" type="line"/>
      <point x="379" y="845" type="line"/>
      <point x="409" y="845" type="line"/>
      <point x="265" y="926" type="line"/>
      <point x="216" y="883" type="line"/>
      <point x="348" y="761" type="line"/>
      <point x="439" y="761" type="line"/>
      <point x="571" y="883" type="line"/>
    </contour>
  </outline>
</glyph>
<glyph name="uni01D2" format="2">
  <advance width="630"/>
  <unicode hex="01D2"/>
  <outline>
    <contour>
      <point x="316" y="539" type="qcurve"/>
      <point x="435" y="539"/>
      <point x="593" y="384"/>
      <point x="593" y="265" type="qcurve"/>
      <point x="593" y="146"/>
      <point x="435" y="-10"/>
      <point x="316" y="-10" type="qcurve"/>
      <point x="195" y="-10"/>
      <point x="37" y="146"/>
      <point x="37" y="265" type="qcurve"/>
      <point x="37" y="384"/>
      <point x="195" y="539"/>
    </contour>
    <contour>
      <point x="316" y="109" type="qcurve"/>
      <point x="377" y="109"/>
      <point x="456" y="198"/>
      <point x="455" y="265" type="qcurve"/>
      <point x="456" y="333"/>
      <point x="377" y="420"/>
      <point x="316" y="420" type="qcurve"/>
      <point x="254" y="420"/>
      <point x="174" y="332"/>
      <point x="175" y="265" type="qcurve"/>
      <point x="174" y="198"/>
      <point x="254" y="109"/>
    </contour>
    <contour>
      <point x="329" y="703" type="line"/>
      <point x="299" y="703" type="line"/>
      <point x="436" y="784" type="line"/>
      <point x="485" y="741" type="line"/>
      <point x="360" y="618" type="line"/>
      <point x="268" y="618" type="line"/>
      <point x="143" y="741" type="line"/>
      <point x="192" y="784" type="line"/>
    </contour>
  </outline>
</glyph>
<glyph name="gcaron" format="2">
  <advance width="661"/>
  <unicode hex="01E7"/>
  <outline>
    <contour>
      <point x="91" y="-164" type="qcurve"/>
      <point x="139" y="-65" type="line"/>
      <point x="170" y="-88"/>
      <point x="255" y="-114"/>
      <point x="299" y="-114" type="qcurve"/>
      <point x="377" y="-114"/>
      <point x="454" y="-42"/>
      <point x="454" y="32" type="qcurve"/>
      <point x="454" y="126" type="line"/>
      <point x="477" y="120" type="line"/>
      <point x="468" y="72"/>
      <point x="357" y="-2"/>
      <point x="291" y="-2" type="qcurve"/>
      <point x="181" y="-2"/>
      <point x="37" y="148"/>
      <point x="37" y="266" type="qcurve"/>
      <point x="37" y="385"/>
      <point x="180" y="539"/>
      <point x="287" y="539" type="qcurve"/>
      <point x="361" y="539"/>
      <point x="476" y="460"/>
      <point x="484" y="415" type="qcurve"/>
      <point x="456" y="407" type="line"/>
      <point x="460" y="528" type="line"/>
      <point x="591" y="528" type="line"/>
      <point x="591" y="39" type="line"/>
      <point x="591" y="-90"/>
      <point x="442" y="-230"/>
      <point x="311" y="-230" type="qcurve"/>
      <point x="250" y="-230"/>
      <point x="129" y="-193"/>
    </contour>
    <contour>
      <point x="459" y="265" type="qcurve"/>
      <point x="459" y="335"/>
      <point x="379" y="422"/>
      <point x="315" y="422" type="qcurve"/>
      <point x="252" y="422"/>
      <point x="173" y="334"/>
      <point x="173" y="265" type="qcurve"/>
      <point x="173" y="196"/>
      <point x="252" y="110"/>
      <point x="315" y="110" type="qcurve"/>
      <point x="380" y="110"/>
      <point x="459" y="196"/>
    </contour>
    <contour>
      <point x="341" y="718" type="line"/>
      <point x="311" y="718" type="line"/>
      <point x="448" y="798" type="line"/>
      <point x="497" y="756" type="line"/>
      <point x="372" y="633" type="line"/>
      <point x="281" y="633" type="line"/>
      <point x="155" y="756" type="line"/>
      <point x="205" y="798" type="line"/>
    </contour>
  </outline>
</glyph>
<glyph name="uni01EA" format="2">
  <advance width="799"/>
  <unicode hex="01EA"/>
  <outline>
    <contour>
      <point x="396" y="713" type="qcurve"/>
      <point x="549" y="713"/>
      <point x="750" y="507"/>
      <point x="750" y="352" type="qcurve"/>
      <point x="750" y="196"/>
      <point x="549" y="-10"/>
      <point x="396" y="-10" type="qcurve"/>
      <point x="242" y="-10"/>
      <point x="41" y="195"/>
      <point x="41" y="352" type="qcurve"/>
      <point x="41" y="508"/>
      <point x="242" y="713"/>
    </contour>
    <contour>
      <point x="396" y="127" type="qcurve"/>
      <point x="486" y="127"/>
      <point x="603" y="254"/>
      <point x="603" y="352" type="qcurve"/>
      <point x="603" y="449"/>
      <point x="486" y="577"/>
      <point x="396" y="577" type="qcurve"/>
      <point x="305" y="577"/>
      <point x="188" y="450"/>
      <point x="188" y="352" type="qcurve"/>
      <point x="188" y="254"/>
      <point x="305" y="127"/>
    </contour>
    <contour>
      <point x="398" y="-206" type="qcurve"/>
      <point x="350" y="-206"/>
      <point x="282" y="-143"/>
      <point x="282" y="-98" type="qcurve"/>
      <point x="282" y="-47"/>
      <point x="366" y="30"/>
      <point x="444" y="51" type="qcurve"/>
      <point x="477" y="45" type="line"/>
      <point x="488" y="1" type="line"/>
      <point x="446" y="-9"/>
      <point x="385" y="-56"/>
      <point x="385" y="-82" type="qcurve"/>
      <point x="385" y="-96"/>
      <point x="401" y="-113"/>
      <point x="415" y="-113" type="qcurve"/>
      <point x="425" y="-113"/>
      <point x="441" y="-101"/>
      <point x="449" y="-89" type="qcurve"/>
      <point x="513" y="-135" type="line"/>
      <point x="501" y="-162"/>
      <point x="436" y="-206"/>
    </contour>
  </outline>
</glyph>
<glyph name="Oslashacute" format="2">
  <advance width="791"/>
  <unicode hex="01FE"/>
  <outline>
    <contour>
      <point x="132" y="-33" type="line"/>
      <point x="69" y="20" type="line"/>
      <point x="658" y="741" type="line"/>
      <point x="726" y="694" type="line"/>
    </contour>
    <contour>
      <point x="400" y="713" type="qcurve"/>
      <point x="554" y="713"/>
      <point x="755" y="507"/>
      <point x="755" y="352" type="qcurve"/>
      <point x="755" y="196"/>
      <point x="554" y="-10"/>
      <point x="400" y="-10" type="qcurve"/>
      <point x="247" y="-10"/>
      <point x="46" y="195"/>
      <point x="46" y="352" type="qcurve"/>
      <point x="46" y="508"/>
      <point x="247" y="713"/>
    </contour>
    <contour>
      <point x="400" y="127" type="qcurve"/>
      <point x="490" y="127"/>
      <point x="608" y="254"/>
      <point x="608" y="352" type="qcurve"/>
      <point x="608" y="449"/>
      <point x="490" y="577"/>
      <point x="400" y="577" type="qcurve"/>
      <point x="310" y="577"/>
      <point x="193" y="450"/>
      <point x="193" y="352" type="qcurve"/>
      <point x="193" y="254"/>
      <point x="310" y="127"/>
    </contour>
    <contour>
      <point x="541" y="860" type="line"/>
      <point x="349" y="757" type="line"/>
      <point x="307" y="822" type="line"/>
      <point x="470" y="956" type="line"/>
    </contour>
  </outline>
</glyph>
<glyph name="oslashacute" format="2">
  <advance width="630"/>
  <unicode hex="01FF"/>
  <outline>
    <contour>
      <point x="115" y="-35" type="line"/>
      <point x="49" y="13" type="line"/>
      <point x="507" y="554" type="line"/>
      <point x="574" y="505" type="line"/>
    </contour>
    <contour>
      <point x="316" y="539" type="qcurve"/>
      <point x="435" y="539"/>
      <point x="593" y="384"/>
      <point x="593" y="265" type="qcurve"/>
      <point x="593" y="146"/>
      <point x="435" y="-10"/>
      <point x="316" y="-10" type="qcurve"/>
      <point x="195" y="-10"/>
      <point x="37" y="146"/>
      <point x="37" y="265" type="qcurve"/>
      <point x="37" y="384"/>
      <point x="195" y="539"/>
    </contour>
    <contour>
      <point x="316" y="109" type="qcurve"/>
      <point x="377" y="109"/>
      <point x="456" y="198"/>
      <point x="455" y="265" type="qcurve"/>
      <point x="456" y="333"/>
      <point x="377" y="420"/>
      <point x="316" y="420" type="qcurve"/>
      <point x="254" y="420"/>
      <point x="174" y="332"/>
      <point x="175" y="265" type="qcurve"/>
      <point x="174" y="198"/>
      <point x="254" y="109"/>
    </contour>
    <contour>
      <point x="472" y="729" type="line"/>
      <point x="280" y="626" type="line"/>
      <point x="238" y="689" type="line"/>
      <point x="402" y="824" type="line"/>
    </contour>
  </outline>
</glyph>
<glyph name="uni0204" format="2">
  <advance width="632"/>
  <unicode hex="0204"/>
  <outline>
    <contour>
      <point x="233" y="0" type="line"/>
      <point x="92" y="0" type="line"/>
      <point x="92" y="700" type="line"/>
      <point x="233" y="700" type="line"/>
    </contour>
    <contour>
      <point x="566" y="0" type="line"/>
      <point x="159" y="0" type="line"/>
      <point x="159" y="128" type="line"/>
      <point x="566" y="128" type="line"/>
    </contour>
    <contour>
      <point x="511" y="295" type="line"/>
      <point x="159" y="295" type="line"/>
      <point x="159" y="419" type="line"/>
      <point x="511" y="419" type="line"/>
    </contour>
    <contour>
      <point x="560" y="572" type="line"/>
      <point x="159" y="572" type="line"/>
      <point x="159" y="700" type="line"/>
      <point x="560" y="700" type="line"/>
    </contour>
    <contour>
      <point x="282" y="829" type="line"/>
      <point x="240" y="772" type="line"/>
      <point x="58" y="869" type="line"/>
      <point x="121" y="957" type="line"/>
    </contour>
    <contour>
      <point x="499" y="829" type="line"/>
      <point x="457" y="772" type="line"/>
      <point x="274" y="869" type="line"/>
      <point x="338" y="957" type="line"/>
    </contour>
  </outline>
</glyph>
<glyph name="uni020A" format="2">
  <advance width="519"/>
  <unicode hex="020A"/>
  <outline>
    <contour>
      <point x="333" y="700" type="qcurve"/>
      <point x="333" y="0" type="line"/>
      <point x="189" y="0" type="line"/>
      <point x="189" y="700" type="line"/>
      <point x="216" y="700"/>
      <point x="306" y="700"/>
    </contour>
    <contour>
      <point x="450" y="700" type="line"/>
      <point x="450" y="575" type="line"/>
      <point x="73" y="575" type="line"/>
      <point x="73" y="700" type="line"/>
    </contour>
    <contour>
      <point x="450" y="125" type="line"/>
      <point x="450" y="0" type="line"/>
      <point x="73" y="0" type="line"/>
      <point x="73" y="125" type="line"/>
    </contour>
    <contour>
      <point x="256" y="945" type="qcurve"/>
      <point x="321" y="945"/>
      <point x="414" y="861"/>
      <point x="428" y="788" type="qcurve"/>
      <point x="338" y="776" type="line"/>
      <point x="326" y="811"/>
      <point x="281" y="851"/>
      <point x="256" y="851" type="qcurve"/>
      <point x="231" y="851"/>
      <point x="187" y="811"/>
      <point x="175" y="776" type="qcurve"/>
      <point x="84" y="788" type="line"/>
      <point x="99" y="861"/>
      <point x="191" y="945"/>
    </contour>
  </outline>
</glyph>
<glyph name="uni020F" format="2">
  <advance width="630"/>
  <unicode hex="020F"/>
  <outline>
    <contour>
      <point x="316" y="539" type="qcurve"/>
      <point x="435" y="539"/>
      <point x="593" y="384"/>
      <point x="593" y="265" type="qcurve"/>
      <point x="593" y="146"/>
      <point x="435" y="-10"/>
      <point x="316" y="-10" type="qcurve"/>
      <point x="195" y="-10"/>
      <point x="37" y="146"/>
      <point x="37" y="265" type="qcurve"/>
      <point x="37" y="384"/>
      <point x="195" y="539"/>
    </contour>
    <contour>
      <point x="316" y="109" type="qcurve"/>
      <point x="377" y="109"/>
      <point x="456" y="198"/>
      <point x="455" y="265" type="qcurve"/>
      <point x="456" y="333"/>
      <point x="377" y="420"/>
      <point x="316" y="420" type="qcurve"/>
      <point x="254" y="420"/>
      <point x="174" y="332"/>
      <point x="175" y="265" type="qcurve"/>
      <point x="174" y="198"/>
      <point x="254" y="109"/>
    </contour>
    <contour>
      <point x="309" y="779" type="qcurve"/>
      <point x="374" y="779"/>
      <point x="467" y="695"/>
      <point x="481" y="622" type="qcurve"/>
      <point x="391" y="610" type="line"/>
      <point x="379" y="644"/>
      <point x="334" y="685"/>
      <point x="309" y="685" type="qcurve"/>
      <point x="284" y="685"/>
      <point x="240" y="644"/>
      <point x="228" y="610" type="qcurve"/>
      <point x="137" y="622" type="line"/>
      <point x="152" y="695"/>
      <point x="244" y="779"/>
    </contour>
  </outline>
</glyph>
<glyph name="uni0210" format="2">
  <advance width="696"/>
  <unicode hex="0210"/>
  <outline>
    <contour>
      <point x="628" y="477" type="qcurve"/>
      <point x="628" y="383"/>
      <point x="494" y="253"/>
      <point x="397" y="253" type="qcurve"/>
      <point x="194" y="253" type="line"/>
      <point x="194" y="372" type="line"/>
      <point x="392" y="372" type="line"/>
      <point x="434" y="372"/>
      <point x="484" y="429"/>
      <point x="484" y="472" type="qcurve"/>
      <point x="484" y="518"/>
      <point x="423" y="574"/>
      <point x="372" y="574" type="qcurve"/>
      <point x="197" y="574" type="line"/>
      <point x="228" y="630" type="line"/>
      <point x="228" y="0" type="line"/>
      <point x="89" y="0" type="line"/>
      <point x="89" y="700" type="line"/>
      <point x="397" y="700" type="line"/>
      <point x="493" y="700"/>
      <point x="628" y="573"/>
    </contour>
    <contour>
      <point x="310" y="316" type="line"/>
      <point x="458" y="341" type="line"/>
      <point x="656" y="-1" type="line"/>
      <point x="488" y="0" type="line"/>
    </contour>
    <contour>
      <point x="276" y="829" type="line"/>
      <point x="234" y="772" type="line"/>
      <point x="51" y="869" type="line"/>
      <point x="115" y="957" type="line"/>
    </contour>
    <contour>
      <point x="493" y="829" type="line"/>
      <point x="451" y="772" type="line"/>
      <point x="268" y="869" type="line"/>
      <point x="331" y="957" type="line"/>
    </contour>
  </outline>
</glyph>
<glyph name="uni0212" format="2">
  <advance width="696"/>
  <unicode hex="0212"/>
  <outline>
    <contour>
      <point x="628" y="477" type="qcurve"/>
      <point x="628" y="383"/>
      <point x="494" y="253"/>
      <point x="397" y="253" type="qcurve"/>
      <point x="194" y="253" type="line"/>
      <point x="194" y="372" type="line"/>
      <point x="392" y="372" type="line"/>
      <point x="434" y="372"/>
      <point x="484" y="429"/>
      <point x="484" y="472" type="qcurve"/>
      <point x="484" y="518"/>
      <point x="423" y="574"/>
      <point x="372" y="574" type="qcurve"/>
      <point x="197" y="574" type="line"/>
      <point x="228" y="630" type="line"/>
      <point x="228" y="0" type="line"/>
      <point x="89" y="0" type="line"/>
      <point x="89" y="700" type="line"/>
      <point x="397" y="700" type="line"/>
      <point x="493" y="700"/>
      <point x="628" y="573"/>
    </contour>
    <contour>
      <point x="310" y="316" type="line"/>
      <point x="458" y="341" type="line"/>
      <point x="656" y="-1" type="line"/>
      <point x="488" y="0" type="line"/>
    </contour>
    <contour>
      <point x="325" y="945" type="qcurve"/>
      <point x="390" y="945"/>
      <point x="483" y="861"/>
      <point x="497" y="788" type="qcurve"/>
      <point x="407" y="776" type="line"/>
      <point x="395" y="811"/>
      <point x="350" y="851"/>
      <point x="325" y="851" type="qcurve"/>
      <point x="300" y="851"/>
      <point x="256" y="811"/>
      <point x="244" y="776" type="qcurve"/>
      <point x="153" y="788" type="line"/>
      <point x="168" y="861"/>
      <point x="260" y="945"/>
    </contour>
  </outline>
</glyph>
<glyph name="uni0214" format="2">
  <advance width="755"/>
  <unicode hex="0214"/>
  <outline>
    <contour>
      <point x="530" y="701" type="line"/>
      <point x="669" y="701" type="line"/>
      <point x="669" y="269" type="line"/>
      <point x="669" y="150"/>
      <point x="504" y="-6"/>
      <point x="377" y="-6" type="qcurve"/>
      <point x="251" y="-6"/>
      <point x="85" y="150"/>
      <point x="85" y="269" type="qcurve"/>
      <point x="85" y="701" type="line"/>
      <point x="230" y="701" type="line"/>
      <point x="230" y="278" type="line"/>
      <point x="230" y="213"/>
      <point x="316" y="125"/>
      <point x="377" y="125" type="qcurve"/>
      <point x="442" y="125"/>
      <point x="530" y="213"/>
      <point x="530" y="278" type="qcurve"/>
    </contour>
    <contour>
      <point x="330" y="829" type="line"/>
      <point x="288" y="772" type="line"/>
      <point x="105" y="869" type="line"/>
      <point x="169" y="957" type="line"/>
    </contour>
    <contour>
      <point x="547" y="829" type="line"/>
      <point x="505" y="772" type="line"/>
      <point x="322" y="869" type="line"/>
      <point x="385" y="957" type="line"/>
    </contour>
  </outline>
</glyph>
<glyph name="uni0217" format="2">
  <advance width="626"/>
  <unicode hex="0217"/>
  <outline>
    <contour>
      <point x="307" y="105" type="qcurve"/>
      <point x="355" y="105"/>
      <point x="418" y="165"/>
      <point x="418" y="212" type="qcurve"/>
      <point x="418" y="528" type="line"/>
      <point x="554" y="528" type="line"/>
      <point x="554" y="0" type="line"/>
      <point x="424" y="0" type="line"/>
      <point x="420" y="109" type="line"/>
      <point x="444" y="121" type="line"/>
      <point x="427" y="65"/>
      <point x="320" y="-10"/>
      <point x="254" y="-10" type="qcurve"/>
      <point x="167" y="-10"/>
      <point x="68" y="103"/>
      <point x="68" y="202" type="qcurve"/>
      <point x="68" y="528" type="line"/>
      <point x="204" y="528" type="line"/>
      <point x="204" y="227" type="line"/>
      <point x="204" y="170"/>
      <point x="259" y="105"/>
    </contour>
    <contour>
      <point x="305" y="777" type="qcurve"/>
      <point x="370" y="777"/>
      <point x="462" y="693"/>
      <point x="477" y="620" type="qcurve"/>
      <point x="386" y="608" type="line"/>
      <point x="374" y="642"/>
      <point x="330" y="683"/>
      <point x="305" y="683" type="qcurve"/>
      <point x="280" y="683"/>
      <point x="235" y="642"/>
      <point x="224" y="608" type="qcurve"/>
      <point x="133" y="620" type="line"/>
      <point x="147" y="693"/>
      <point x="240" y="777"/>
    </contour>
  </outline>
</glyph>
<glyph name="uni022A" format="2">
  <advance width="799"/>
  <unicode hex="022A"/>
  <outline>
    <contour>
      <point x="400" y="713" type="qcurve"/>
      <point x="553" y="713"/>
      <point x="754" y="507"/>
      <point x="754" y="352" type="qcurve"/>
      <point x="754" y="196"/>
      <point x="553" y="-10"/>
      <point x="400" y="-10" type="qcurve"/>
      <point x="246" y="-10"/>
      <point x="45" y="195"/>
      <point x="45" y="352" type="qcurve"/>
      <point x="45" y="508"/>
      <point x="246" y="713"/>
    </contour>
    <contour>
      <point x="400" y="127" type="qcurve"/>
      <point x="490" y="127"/>
      <point x="607" y="254"/>
      <point x="607" y="352" type="qcurve"/>
      <point x="607" y="449"/>
      <point x="490" y="577"/>
      <point x="400" y="577" type="qcurve"/>
      <point x="309" y="577"/>
      <point x="192" y="450"/>
      <point x="192" y="352" type="qcurve"/>
      <point x="192" y="254"/>
      <point x="309" y="127"/>
    </contour>
    <contour>
      <point x="369" y="833" type="qcurve"/>
      <point x="369" y="799"/>
      <point x="326" y="756"/>
      <point x="290" y="756" type="qcurve"/>
      <point x="252" y="756"/>
      <point x="210" y="796"/>
      <point x="210" y="833" type="qcurve"/>
      <point x="210" y="867"/>
      <point x="253" y="909"/>
      <point x="290" y="909" type="qcurve"/>
      <point x="328" y="909"/>
      <point x="369" y="870"/>
    </contour>
    <contour>
      <point x="593" y="833" type="qcurve"/>
      <point x="593" y="799"/>
      <point x="550" y="756"/>
      <point x="513" y="756" type="qcurve"/>
      <point x="475" y="756"/>
      <point x="434" y="796"/>
      <point x="434" y="833" type="qcurve"/>
      <point x="434" y="867"/>
      <point x="477" y="909"/>
      <point x="513" y="909" type="qcurve"/>
      <point x="551" y="909"/>
      <point x="593" y="870"/>
    </contour>
    <contour>
      <point x="551" y="987" type="line"/>
      <point x="251" y="987" type="line"/>
      <point x="251" y="1077" type="line"/>
      <point x="551" y="1077" type="line"/>
    </contour>
  </outline>
</glyph>
<glyph name="uni022B" format="2">
  <advance width="630"/>
  <unicode hex="022B"/>
  <outline>
    <contour>
      <point x="316" y="539" type="qcurve"/>
      <point x="435" y="539"/>
      <point x="593" y="384"/>
      <point x="593" y="265" type="qcurve"/>
      <point x="593" y="146"/>
      <point x="435" y="-10"/>
      <point x="316" y="-10" type="qcurve"/>
      <point x="195" y="-10"/>
      <point x="37" y="146"/>
      <point x="37" y="265" type="qcurve"/>
      <point x="37" y="384"/>
      <point x="195" y="539"/>
    </contour>
    <contour>
      <point x="316" y="109" type="qcurve"/>
      <point x="377" y="109"/>
      <point x="456" y="198"/>
      <point x="455" y="265" type="qcurve"/>
      <point x="456" y="333"/>
      <point x="377" y="420"/>
      <point x="316" y="420" type="qcurve"/>
      <point x="254" y="420"/>
      <point x="174" y="332"/>
      <point x="175" y="265" type="qcurve"/>
      <point x="174" y="198"/>
      <point x="254" y="109"/>
    </contour>
    <contour>
      <point x="286" y="660" type="qcurve"/>
      <point x="286" y="626"/>
      <point x="243" y="584"/>
      <point x="207" y="584" type="qcurve"/>
      <point x="169" y="584"/>
      <point x="127" y="624"/>
      <point x="127" y="660" type="qcurve"/>
      <point x="127" y="694"/>
      <point x="170" y="737"/>
      <point x="207" y="737" type="qcurve"/>
      <point x="245" y="737"/>
      <point x="286" y="697"/>
    </contour>
    <contour>
      <point x="510" y="660" type="qcurve"/>
      <point x="510" y="626"/>
      <point x="467" y="584"/>
      <point x="430" y="584" type="qcurve"/>
      <point x="392" y="584"/>
      <point x="351" y="624"/>
      <point x="351" y="660" type="qcurve"/>
      <point x="351" y="694"/>
      <point x="394" y="737"/>
      <point x="430" y="737" type="qcurve"/>
      <point x="468" y="737"/>
      <point x="510" y="697"/>
    </contour>
    <contour>
      <point x="468" y="815" type="line"/>
      <point x="168" y="815" type="line"/>
      <point x="168" y="905" type="line"/>
      <point x="468" y="905" type="line"/>
    </contour>
  </outline>
</glyph>
<glyph name="uni0230" format="2">
  <advance width="799"/>
  <unicode hex="0230"/>
  <outline>
    <contour>
      <point x="400" y="713" type="qcurve"/>
      <point x="553" y="713"/>
      <point x="754" y="507"/>
      <point x="754" y="352" type="qcurve"/>
      <point x="754" y="196"/>
      <point x="553" y="-10"/>
      <point x="400" y="-10" type="qcurve"/>
      <point x="246" y="-10"/>
      <point x="45" y="195"/>
      <point x="45" y="352" type="qcurve"/>
      <point x="45" y="508"/>
      <point x="246" y="713"/>
    </contour>
    <contour>
      <point x="400" y="127" type="qcurve"/>
      <point x="490" y="127"/>
      <point x="607" y="254"/>
      <point x="607" y="352" type="qcurve"/>
      <point x="607" y="449"/>
      <point x="490" y="577"/>
      <point x="400" y="577" type="qcurve"/>
      <point x="309" y="577"/>
      <point x="192" y="450"/>
      <point x="192" y="352" type="qcurve"/>
      <point x="192" y="254"/>
      <point x="309" y="127"/>
    </contour>
    <contour>
      <point x="483" y="838" type="qcurve"/>
      <point x="483" y="805"/>
      <point x="437" y="763"/>
      <point x="398" y="763" type="qcurve"/>
      <point x="358" y="763"/>
      <point x="314" y="802"/>
      <point x="314" y="838" type="qcurve"/>
      <point x="314" y="871"/>
      <point x="359" y="913"/>
      <point x="398" y="913" type="qcurve"/>
      <point x="438" y="913"/>
      <point x="483" y="874"/>
    </contour>
    <contour>
      <point x="548" y="980" type="line"/>
      <point x="247" y="980" type="line"/>
      <point x="247" y="1070" type="line"/>
      <point x="548" y="1070" type="line"/>
    </contour>
  </outline>
</glyph>
<glyph name="uni0232" format="2">
  <advance width="677"/>
  <unicode hex="0232"/>
  <outline>
    <contour>
      <point x="516" y="700" type="line"/>
      <point x="677" y="700" type="line"/>
      <point x="406" y="289" type="line"/>
      <point x="421" y="357" type="line"/>
      <point x="421" y="0" type="line"/>
      <point x="276" y="0" type="line"/>
      <point x="276" y="349" type="line"/>
      <point x="283" y="300" type="line"/>
      <point x="0" y="700" type="line"/>
      <point x="167" y="700" type="line"/>
      <point x="383" y="390" type="line"/>
      <point x="321" y="393" type="line"/>
    </contour>
    <contour>
      <point x="514" y="774" type="line"/>
      <point x="166" y="774" type="line"/>
      <point x="166" y="864" type="line"/>
      <point x="514" y="864" type="line"/>
    </contour>
  </outline>
</glyph>
<glyph name="uni0259" format="2">
  <advance width="586"/>
  <unicode hex="0259"/>
  <outline>
    <contour>
      <point x="122" y="364" type="qcurve"/>
      <point x="56" y="456" type="line"/>
      <point x="99" y="494"/>
      <point x="210" y="535"/>
      <point x="265" y="535" type="qcurve"/>
      <point x="393" y="535"/>
      <point x="549" y="383"/>
      <point x="549" y="264" type="qcurve"/>
      <point x="549" y="141"/>
      <point x="398" y="-14"/>
      <point x="280" y="-15" type="qcurve"/>
      <point x="173" y="-14"/>
      <point x="35" y="134"/>
      <point x="35" y="248" type="qcurve"/>
      <point x="36" y="291" type="line"/>
      <point x="461" y="291" type="line"/>
      <point x="484" y="205" type="line"/>
      <point x="149" y="205" type="line"/>
      <point x="165" y="223" type="line"/>
      <point x="165" y="201" type="line"/>
      <point x="168" y="158"/>
      <point x="233" y="103"/>
      <point x="279" y="103" type="qcurve"/>
      <point x="348" y="103"/>
      <point x="420" y="181"/>
      <point x="420" y="254" type="qcurve"/>
      <point x="420" y="327"/>
      <point x="329" y="414"/>
      <point x="251" y="414" type="qcurve"/>
      <point x="215" y="414"/>
      <point x="156" y="392"/>
    </contour>
  </outline>
</glyph>
<glyph name="uni02BB" format="2">
  <advance width="265"/>
  <unicode hex="02BB"/>
  <outline>
    <contour>
      <point x="144" y="435" type="qcurve"/>
      <point x="100" y="435"/>
      <point x="40" y="502"/>
      <point x="40" y="555" type="qcurve"/>
      <point x="40" y="613"/>
      <point x="128" y="717"/>
      <point x="195" y="737" type="qcurve"/>
      <point x="238" y="685" type="line"/>
      <point x="197" y="667"/>
      <point x="147" y="617"/>
      <point x="147" y="599" type="qcurve"/>
      <point x="147" y="590"/>
      <point x="158" y="572"/>
      <point x="177" y="558" type="qcurve"/>
      <point x="200" y="541"/>
      <point x="216" y="513"/>
      <point x="216" y="496" type="qcurve"/>
      <point x="216" y="468"/>
      <point x="176" y="435"/>
    </contour>
  </outline>
</glyph>
<glyph name="uni02BC" format="2">
  <advance width="205"/>
  <unicode hex="02BC"/>
  <outline>
    <contour>
      <point x="41" y="439" type="line"/>
      <point x="63" y="700" type="line"/>
      <point x="207" y="700" type="line"/>
      <point x="125" y="439" type="line"/>
    </contour>
  </outline>
</glyph>
<glyph name="uni02BE" format="2">
  <advance width="220"/>
  <unicode hex="02BE"/>
  <outline>
    <contour>
      <point x="56" y="524" type="qcurve"/>
      <point x="56" y="597" type="line"/>
      <point x="74" y="597"/>
      <point x="97" y="619"/>
      <point x="97" y="636" type="qcurve"/>
      <point x="97" y="653"/>
      <point x="74" y="675"/>
      <point x="56" y="675" type="qcurve"/>
      <point x="57" y="748" type="line"/>
      <point x="104" y="748"/>
      <point x="172" y="682"/>
      <point x="172" y="636" type="qcurve"/>
      <point x="172" y="591"/>
      <point x="102" y="524"/>
    </contour>
  </outline>
</glyph>
<glyph name="circumflex" format="2">
  <advance width="384"/>
  <unicode hex="02C6"/>
  <outline>
    <contour>
      <point x="318" y="578" type="line"/>
      <point x="175" y="658" type="line"/>
      <point x="205" y="658" type="line"/>
      <point x="62" y="578" type="line"/>
      <point x="12" y="620" type="line"/>
      <point x="144" y="743" type="line"/>
      <point x="236" y="743" type="line"/>
      <point x="368" y="620" type="line"/>
    </contour>
  </outline>
</glyph>
<glyph name="uni02C9" format="2">
  <advance width="475"/>
  <unicode hex="02C9"/>
  <outline>
    <contour>
      <point x="420" y="595" type="line"/>
      <point x="54" y="595" type="line"/>
      <point x="54" y="697" type="line"/>
      <point x="420" y="697" type="line"/>
    </contour>
  </outline>
</glyph>
<glyph name="uni02CB" format="2">
  <advance width="205"/>
  <unicode hex="02CB"/>
  <outline>
    <contour>
      <point x="164" y="439" type="line"/>
      <point x="142" y="700" type="line"/>
      <point x="-2" y="700" type="line"/>
      <point x="80" y="439" type="line"/>
    </contour>
  </outline>
</glyph>
<glyph name="dotaccent" format="2">
  <advance width="231"/>
  <unicode hex="02D9"/>
  <outline>
    <contour>
      <point x="195" y="689" type="qcurve"/>
      <point x="195" y="656"/>
      <point x="149" y="614"/>
      <point x="110" y="614" type="qcurve"/>
      <point x="70" y="614"/>
      <point x="26" y="653"/>
      <point x="26" y="689" type="qcurve"/>
      <point x="26" y="723"/>
      <point x="71" y="765"/>
      <point x="110" y="765" type="qcurve"/>
      <point x="150" y="765"/>
      <point x="195" y="725"/>
    </contour>
  </outline>
</glyph>
<glyph name="ogonek" format="2">
  <advance width="295"/>
  <unicode hex="02DB"/>
  <outline>
    <contour>
      <point x="141" y="-207" type="qcurve"/>
      <point x="94" y="-207"/>
      <point x="26" y="-144"/>
      <point x="26" y="-100" type="qcurve"/>
      <point x="26" y="-49"/>
      <point x="109" y="28"/>
      <point x="187" y="50" type="qcurve"/>
      <point x="220" y="43" type="line"/>
      <point x="231" y="-1" type="line"/>
      <point x="189" y="-10"/>
      <point x="128" y="-57"/>
      <point x="128" y="-84" type="qcurve"/>
      <point x="128" y="-98"/>
      <point x="145" y="-115"/>
      <point x="159" y="-115" type="qcurve"/>
      <point x="169" y="-115"/>
      <point x="185" y="-103"/>
      <point x="193" y="-91" type="qcurve"/>
      <point x="257" y="-137" type="line"/>
      <point x="244" y="-164"/>
      <point x="180" y="-207"/>
    </contour>
  </outline>
</glyph>
<glyph name="tilde" format="2">
  <advance width="428"/>
  <unicode hex="02DC"/>
  <outline>
    <contour>
      <point x="126" y="612" type="qcurve"/>
      <point x="42" y="623" type="line"/>
      <point x="43" y="678"/>
      <point x="106" y="753"/>
      <point x="155" y="753" type="qcurve"/>
      <point x="173" y="753"/>
      <point x="208" y="739"/>
      <point x="232" y="718" type="qcurve"/>
      <point x="249" y="703"/>
      <point x="264" y="695"/>
      <point x="272" y="695" type="qcurve"/>
      <point x="285" y="695"/>
      <point x="303" y="721"/>
      <point x="303" y="742" type="qcurve"/>
      <point x="387" y="726" type="line"/>
      <point x="385" y="678"/>
      <point x="326" y="607"/>
      <point x="281" y="607" type="qcurve"/>
      <point x="261" y="607"/>
      <point x="222" y="622"/>
      <point x="196" y="644" type="qcurve"/>
      <point x="182" y="656"/>
      <point x="168" y="664"/>
      <point x="162" y="664" type="qcurve"/>
      <point x="146" y="664"/>
      <point x="126" y="638"/>
    </contour>
  </outline>
</glyph>
<glyph name="hungarumlaut" format="2">
  <advance width="453"/>
  <unicode hex="02DD"/>
  <outline>
    <contour>
      <point x="249" y="670" type="line"/>
      <point x="57" y="567" type="line"/>
      <point x="15" y="630" type="line"/>
      <point x="179" y="765" type="line"/>
    </contour>
    <contour>
      <point x="476" y="670" type="line"/>
      <point x="284" y="567" type="line"/>
      <point x="242" y="630" type="line"/>
      <point x="406" y="765" type="line"/>
    </contour>
  </outline>
</glyph>
<glyph name="uni0307" format="2">
  <unicode hex="0307"/>
  <outline>
    <contour>
      <point x="195" y="686" type="qcurve"/>
      <point x="195" y="653"/>
      <point x="149" y="611"/>
      <point x="110" y="611" type="qcurve"/>
      <point x="70" y="611"/>
      <point x="26" y="650"/>
      <point x="26" y="686" type="qcurve"/>
      <point x="26" y="719"/>
      <point x="71" y="761"/>
      <point x="110" y="761" type="qcurve"/>
      <point x="150" y="761"/>
      <point x="195" y="722"/>
    </contour>
  </outline>
</glyph>
<glyph name="uni0308" format="2">
  <advance width="170"/>
  <unicode hex="0308"/>
  <outline>
    <contour>
      <point x="180" y="670" type="qcurve"/>
      <point x="180" y="636"/>
      <point x="137" y="593"/>
      <point x="101" y="593" type="qcurve"/>
      <point x="63" y="593"/>
      <point x="21" y="633"/>
      <point x="21" y="670" type="qcurve"/>
      <point x="21" y="704"/>
      <point x="64" y="747"/>
      <point x="101" y="747" type="qcurve"/>
      <point x="139" y="747"/>
      <point x="180" y="707"/>
    </contour>
    <contour>
      <point x="404" y="670" type="qcurve"/>
      <point x="404" y="636"/>
      <point x="361" y="593"/>
      <point x="324" y="593" type="qcurve"/>
      <point x="286" y="593"/>
      <point x="245" y="633"/>
      <point x="245" y="670" type="qcurve"/>
      <point x="245" y="704"/>
      <point x="288" y="747"/>
      <point x="324" y="747" type="qcurve"/>
      <point x="362" y="747"/>
      <point x="404" y="707"/>
    </contour>
  </outline>
</glyph>
<glyph name="hookabovecomb" format="2">
  <unicode hex="0309"/>
  <outline>
    <contour>
      <point x="81" y="673" type="qcurve"/>
      <point x="40" y="731" type="line"/>
      <point x="62" y="755"/>
      <point x="113" y="782"/>
      <point x="144" y="782" type="qcurve"/>
      <point x="194" y="782"/>
      <point x="253" y="734"/>
      <point x="253" y="696" type="qcurve"/>
      <point x="253" y="677"/>
      <point x="238" y="646"/>
      <point x="223" y="623" type="qcurve"/>
      <point x="217" y="612"/>
      <point x="208" y="587"/>
      <point x="208" y="577" type="qcurve"/>
      <point x="124" y="577" type="line"/>
      <point x="124" y="591"/>
      <point x="129" y="617"/>
      <point x="136" y="628" type="qcurve"/>
      <point x="151" y="651"/>
      <point x="164" y="671"/>
      <point x="164" y="680" type="qcurve"/>
      <point x="164" y="693"/>
      <point x="150" y="705"/>
      <point x="134" y="705" type="qcurve"/>
      <point x="121" y="705"/>
      <point x="96" y="690"/>
    </contour>
  </outline>
</glyph>
<glyph name="uni030C" format="2">
  <advance width="132"/>
  <unicode hex="030C"/>
  <outline>
    <contour>
      <point x="202" y="695" type="line"/>
      <point x="172" y="695" type="line"/>
      <point x="308" y="776" type="line"/>
      <point x="358" y="733" type="line"/>
      <point x="232" y="610" type="line"/>
      <point x="141" y="610" type="line"/>
      <point x="16" y="733" type="line"/>
      <point x="65" y="776" type="line"/>
    </contour>
  </outline>
</glyph>
<glyph name="uni0311" format="2">
  <unicode hex="0311"/>
  <outline>
    <contour>
      <point x="199" y="782" type="qcurve"/>
      <point x="264" y="782"/>
      <point x="357" y="698"/>
      <point x="371" y="625" type="qcurve"/>
      <point x="281" y="613" type="line"/>
      <point x="269" y="648"/>
      <point x="224" y="688"/>
      <point x="199" y="688" type="qcurve"/>
      <point x="174" y="688"/>
      <point x="130" y="648"/>
      <point x="118" y="613" type="qcurve"/>
      <point x="27" y="625" type="line"/>
      <point x="42" y="698"/>
      <point x="134" y="782"/>
    </contour>
  </outline>
</glyph>
<glyph name="uni0324" format="2">
  <unicode hex="0324"/>
  <outline>
    <contour>
      <point x="304" y="-175" type="qcurve"/>
      <point x="269" y="-175"/>
      <point x="237" y="-147"/>
      <point x="237" y="-116" type="qcurve"/>
      <point x="237" y="-97" type="line"/>
      <point x="237" y="-67"/>
      <point x="270" y="-38"/>
      <point x="305" y="-38" type="qcurve"/>
      <point x="341" y="-38"/>
      <point x="374" y="-66"/>
      <point x="374" y="-97" type="qcurve"/>
      <point x="374" y="-116" type="line"/>
      <point x="374" y="-148"/>
      <point x="342" y="-175"/>
    </contour>
    <contour>
      <point x="88" y="-175" type="qcurve"/>
      <point x="54" y="-175"/>
      <point x="22" y="-147"/>
      <point x="22" y="-116" type="qcurve"/>
      <point x="22" y="-97" type="line"/>
      <point x="22" y="-67"/>
      <point x="55" y="-38"/>
      <point x="88" y="-38" type="qcurve"/>
      <point x="125" y="-38"/>
      <point x="158" y="-65"/>
      <point x="158" y="-97" type="qcurve"/>
      <point x="158" y="-116" type="line"/>
      <point x="158" y="-148"/>
      <point x="126" y="-175"/>
    </contour>
  </outline>
</glyph>
<glyph name="uni0328" format="2">
  <advance width="98"/>
  <unicode hex="0328"/>
  <outline>
    <contour>
      <point x="141" y="-206" type="qcurve"/>
      <point x="94" y="-206"/>
      <point x="26" y="-143"/>
      <point x="26" y="-99" type="qcurve"/>
      <point x="26" y="-48"/>
      <point x="109" y="29"/>
      <point x="187" y="51" type="qcurve"/>
      <point x="220" y="44" type="line"/>
      <point x="231" y="0" type="line"/>
      <point x="189" y="-10"/>
      <point x="128" y="-56"/>
      <point x="128" y="-83" type="qcurve"/>
      <point x="128" y="-97"/>
      <point x="145" y="-114"/>
      <point x="159" y="-114" type="qcurve"/>
      <point x="169" y="-114"/>
      <point x="185" y="-102"/>
      <point x="193" y="-90" type="qcurve"/>
      <point x="257" y="-136" type="line"/>
      <point x="244" y="-163"/>
      <point x="180" y="-206"/>
    </contour>
  </outline>
</glyph>
<glyph name="uni0335" format="2">
  <unicode hex="0335"/>
  <outline>
    <contour>
      <point x="341" y="241" type="line"/>
      <point x="40" y="241" type="line"/>
      <point x="40" y="348" type="line"/>
      <point x="341" y="348" type="line"/>
    </contour>
  </outline>
</glyph>
<glyph name="pi" format="2">
  <advance width="632"/>
  <unicode hex="03C0"/>
  <outline>
    <contour>
      <point x="234" y="0" type="line"/>
      <point x="109" y="0" type="line"/>
      <point x="109" y="479" type="line"/>
      <point x="126" y="405" type="line"/>
      <point x="35" y="405" type="line"/>
      <point x="35" y="529" type="line"/>
      <point x="602" y="529" type="line"/>
      <point x="602" y="405" type="line"/>
      <point x="519" y="405" type="line"/>
      <point x="528" y="441" type="line"/>
      <point x="528" y="0" type="line"/>
      <point x="403" y="0" type="line"/>
      <point x="403" y="463" type="line"/>
      <point x="413" y="405" type="line"/>
      <point x="221" y="405" type="line"/>
      <point x="234" y="441" type="line"/>
    </contour>
  </outline>
</glyph>
<glyph name="uni1E08" format="2">
  <advance width="688"/>
  <unicode hex="1E08"/>
  <outline>
    <contour>
      <point x="581" y="199" type="qcurve"/>
      <point x="651" y="86" type="line"/>
      <point x="615" y="45"/>
      <point x="472" y="-10"/>
      <point x="396" y="-10" type="qcurve"/>
      <point x="242" y="-10"/>
      <point x="45" y="192"/>
      <point x="45" y="352" type="qcurve"/>
      <point x="45" y="505"/>
      <point x="251" y="711"/>
      <point x="404" y="711" type="qcurve"/>
      <point x="479" y="711"/>
      <point x="618" y="648"/>
      <point x="660" y="595" type="qcurve"/>
      <point x="569" y="494" type="line"/>
      <point x="533" y="532"/>
      <point x="451" y="574"/>
      <point x="403" y="574" type="qcurve"/>
      <point x="315" y="574"/>
      <point x="193" y="450"/>
      <point x="193" y="351" type="qcurve"/>
      <point x="193" y="249"/>
      <point x="315" y="127"/>
      <point x="415" y="127" type="qcurve"/>
      <point x="464" y="127"/>
      <point x="550" y="167"/>
    </contour>
    <contour>
      <point x="366" y="-93" type="line"/>
      <point x="300" y="-86" type="line"/>
      <point x="370" y="24" type="line"/>
      <point x="442" y="24" type="line"/>
    </contour>
    <contour>
      <point x="499" y="-139" type="qcurve"/>
      <point x="499" y="-162"/>
      <point x="461" y="-211"/>
      <point x="427" y="-226" type="qcurve"/>
      <point x="401" y="-237"/>
      <point x="336" y="-246"/>
      <point x="299" y="-245" type="qcurve"/>
      <point x="291" y="-179" type="line"/>
      <point x="324" y="-179"/>
      <point x="394" y="-152"/>
      <point x="394" y="-133" type="qcurve"/>
      <point x="394" y="-119"/>
      <point x="350" y="-99"/>
      <point x="315" y="-98" type="qcurve"/>
      <point x="300" y="-88" type="line"/>
      <point x="300" y="-86" type="line"/>
      <point x="373" y="-40" type="line"/>
      <point x="437" y="-45"/>
      <point x="499" y="-98"/>
    </contour>
    <contour>
      <point x="528" y="860" type="line"/>
      <point x="336" y="757" type="line"/>
      <point x="293" y="822" type="line"/>
      <point x="457" y="956" type="line"/>
    </contour>
  </outline>
</glyph>
<glyph name="uni1E0E" format="2">
  <advance width="762"/>
  <unicode hex="1E0E"/>
  <outline>
    <contour>
      <point x="92" y="700" type="line"/>
      <point x="377" y="700" type="line"/>
      <point x="530" y="700"/>
      <point x="717" y="505"/>
      <point x="717" y="350" type="qcurve"/>
      <point x="717" y="194"/>
      <point x="531" y="0"/>
      <point x="377" y="0" type="qcurve"/>
      <point x="92" y="0" type="line"/>
    </contour>
    <contour>
      <point x="222" y="131" type="line"/>
      <point x="372" y="131" type="line"/>
      <point x="465" y="131"/>
      <point x="571" y="249"/>
      <point x="571" y="350" type="qcurve"/>
      <point x="571" y="450"/>
      <point x="464" y="569"/>
      <point x="372" y="569" type="qcurve"/>
      <point x="219" y="569" type="line"/>
      <point x="236" y="592" type="line"/>
      <point x="236" y="106" type="line"/>
    </contour>
    <contour>
      <point x="511" y="-184" type="line"/>
      <point x="191" y="-184" type="line"/>
      <point x="191" y="-134" type="line"/>
      <point x="191" y="-85" type="line"/>
      <point x="511" y="-85" type="line"/>
      <point x="511" y="-137" type="line"/>
    </contour>
  </outline>
</glyph>
<glyph name="uni1E16" format="2">
  <advance width="632"/>
  <unicode hex="1E16"/>
  <outline>
    <contour>
      <point x="233" y="0" type="line"/>
      <point x="92" y="0" type="line"/>
      <point x="92" y="700" type="line"/>
      <point x="233" y="700" type="line"/>
    </contour>
    <contour>
      <point x="566" y="0" type="line"/>
      <point x="159" y="0" type="line"/>
      <point x="159" y="128" type="line"/>
      <point x="566" y="128" type="line"/>
    </contour>
    <contour>
      <point x="511" y="295" type="line"/>
      <point x="159" y="295" type="line"/>
      <point x="159" y="419" type="line"/>
      <point x="511" y="419" type="line"/>
    </contour>
    <contour>
      <point x="560" y="572" type="line"/>
      <point x="159" y="572" type="line"/>
      <point x="159" y="700" type="line"/>
      <point x="560" y="700" type="line"/>
    </contour>
    <contour>
      <point x="485" y="774" type="line"/>
      <point x="184" y="774" type="line"/>
      <point x="184" y="864" type="line"/>
      <point x="485" y="864" type="line"/>
    </contour>
    <contour>
      <point x="492" y="1032" type="line"/>
      <point x="300" y="928" type="line"/>
      <point x="258" y="992" type="line"/>
      <point x="422" y="1127" type="line"/>
    </contour>
  </outline>
</glyph>
<glyph name="uni1E1C" format="2">
  <advance width="632"/>
  <unicode hex="1E1C"/>
  <outline>
    <contour>
      <point x="233" y="0" type="line"/>
      <point x="92" y="0" type="line"/>
      <point x="92" y="700" type="line"/>
      <point x="233" y="700" type="line"/>
    </contour>
    <contour>
      <point x="566" y="0" type="line"/>
      <point x="159" y="0" type="line"/>
      <point x="159" y="128" type="line"/>
      <point x="566" y="128" type="line"/>
    </contour>
    <contour>
      <point x="511" y="295" type="line"/>
      <point x="159" y="295" type="line"/>
      <point x="159" y="419" type="line"/>
      <point x="511" y="419" type="line"/>
    </contour>
    <contour>
      <point x="560" y="572" type="line"/>
      <point x="159" y="572" type="line"/>
      <point x="159" y="700" type="line"/>
      <point x="560" y="700" type="line"/>
    </contour>
    <contour>
      <point x="312" y="-94" type="line"/>
      <point x="246" y="-87" type="line"/>
      <point x="316" y="24" type="line"/>
      <point x="389" y="24" type="line"/>
    </contour>
    <contour>
      <point x="446" y="-139" type="qcurve"/>
      <point x="446" y="-162"/>
      <point x="407" y="-211"/>
      <point x="374" y="-226" type="qcurve"/>
      <point x="347" y="-237"/>
      <point x="282" y="-246"/>
      <point x="246" y="-245" type="qcurve"/>
      <point x="237" y="-179" type="line"/>
      <point x="270" y="-179"/>
      <point x="341" y="-152"/>
      <point x="341" y="-134" type="qcurve"/>
      <point x="341" y="-119"/>
      <point x="296" y="-99"/>
      <point x="262" y="-99" type="qcurve"/>
      <point x="246" y="-89" type="line"/>
      <point x="246" y="-87" type="line"/>
      <point x="320" y="-40" type="line"/>
      <point x="383" y="-46"/>
      <point x="446" y="-99"/>
    </contour>
    <contour>
      <point x="326" y="757" type="qcurve"/>
      <point x="261" y="757"/>
      <point x="169" y="842"/>
      <point x="154" y="915" type="qcurve"/>
      <point x="245" y="927" type="line"/>
      <point x="257" y="892"/>
      <point x="301" y="852"/>
      <point x="326" y="852" type="qcurve"/>
      <point x="351" y="852"/>
      <point x="396" y="892"/>
      <point x="408" y="927" type="qcurve"/>
      <point x="498" y="915" type="line"/>
      <point x="484" y="842"/>
      <point x="391" y="757"/>
    </contour>
  </outline>
</glyph>
<glyph name="uni1E25" format="2">
  <advance width="618"/>
  <unicode hex="1E25"/>
  <outline>
    <contour>
      <point x="371" y="539" type="qcurve"/>
      <point x="461" y="539"/>
      <point x="553" y="431"/>
      <point x="553" y="323" type="qcurve"/>
      <point x="553" y="0" type="line"/>
      <point x="417" y="0" type="line"/>
      <point x="417" y="313" type="line"/>
      <point x="417" y="369"/>
      <point x="369" y="424"/>
      <point x="322" y="422" type="qcurve"/>
      <point x="273" y="422"/>
      <point x="208" y="362"/>
      <point x="208" y="318" type="qcurve"/>
      <point x="208" y="0" type="line"/>
      <point x="182" y="0"/>
      <point x="97" y="0"/>
      <point x="71" y="0" type="qcurve"/>
      <point x="71" y="740" type="line"/>
      <point x="206" y="740" type="line"/>
      <point x="206" y="420" type="line"/>
      <point x="180" y="408" type="line"/>
      <point x="195" y="462"/>
      <point x="306" y="539"/>
    </contour>
    <contour>
      <point x="390" y="-145" type="qcurve"/>
      <point x="390" y="-179"/>
      <point x="344" y="-222"/>
      <point x="304" y="-222" type="qcurve"/>
      <point x="264" y="-222"/>
      <point x="219" y="-182"/>
      <point x="219" y="-145" type="qcurve"/>
      <point x="219" y="-111"/>
      <point x="265" y="-69"/>
      <point x="304" y="-69" type="qcurve"/>
      <point x="345" y="-69"/>
      <point x="390" y="-109"/>
    </contour>
  </outline>
</glyph>
<glyph name="uni1E2A" format="2">
  <advance width="772"/>
  <unicode hex="1E2A"/>
  <outline>
    <contour>
      <point x="92" y="700" type="line"/>
      <point x="236" y="700" type="line"/>
      <point x="236" y="0" type="line"/>
      <point x="92" y="0" type="line"/>
    </contour>
    <contour>
      <point x="536" y="700" type="line"/>
      <point x="680" y="700" type="line"/>
      <point x="680" y="0" type="line"/>
      <point x="536" y="0" type="line"/>
    </contour>
    <contour>
      <point x="150" y="283" type="line"/>
      <point x="151" y="415" type="line"/>
      <point x="608" y="415" type="line"/>
      <point x="608" y="283" type="line"/>
    </contour>
    <contour>
      <point x="383" y="-172" type="qcurve"/>
      <point x="318" y="-172"/>
      <point x="225" y="-88"/>
      <point x="211" y="-15" type="qcurve"/>
      <point x="302" y="-3" type="line"/>
      <point x="313" y="-37"/>
      <point x="358" y="-78"/>
      <point x="383" y="-78" type="qcurve"/>
      <point x="408" y="-78"/>
      <point x="452" y="-37"/>
      <point x="464" y="-3" type="qcurve"/>
      <point x="555" y="-15" type="line"/>
      <point x="540" y="-88"/>
      <point x="448" y="-172"/>
    </contour>
  </outline>
</glyph>
<glyph name="uni1E2F" format="2">
  <advance width="270"/>
  <unicode hex="1E2F"/>
  <outline>
    <contour>
      <point x="204" y="528" type="line"/>
      <point x="204" y="0" type="line"/>
      <point x="68" y="0" type="line"/>
      <point x="68" y="528" type="line"/>
    </contour>
    <contour>
      <point x="102" y="703" type="qcurve"/>
      <point x="102" y="669"/>
      <point x="60" y="627"/>
      <point x="23" y="627" type="qcurve"/>
      <point x="-15" y="627"/>
      <point x="-56" y="667"/>
      <point x="-56" y="703" type="qcurve"/>
      <point x="-56" y="737"/>
      <point x="-14" y="780"/>
      <point x="23" y="780" type="qcurve"/>
      <point x="61" y="780"/>
      <point x="102" y="740"/>
    </contour>
    <contour>
      <point x="326" y="703" type="qcurve"/>
      <point x="326" y="669"/>
      <point x="283" y="627"/>
      <point x="247" y="627" type="qcurve"/>
      <point x="209" y="627"/>
      <point x="167" y="667"/>
      <point x="167" y="703" type="qcurve"/>
      <point x="167" y="737"/>
      <point x="210" y="780"/>
      <point x="247" y="780" type="qcurve"/>
      <point x="285" y="780"/>
      <point x="326" y="740"/>
    </contour>
    <contour>
      <point x="306" y="928" type="line"/>
      <point x="114" y="825" type="line"/>
      <point x="72" y="889" type="line"/>
      <point x="236" y="1023" type="line"/>
    </contour>
  </outline>
</glyph>
<glyph name="uni1E3A" format="2">
  <advance width="605"/>
  <unicode hex="1E3A"/>
  <outline>
    <contour>
      <point x="182" y="131" type="line"/>
      <point x="555" y="131" type="line"/>
      <point x="555" y="0" type="line"/>
      <point x="92" y="0" type="line"/>
      <point x="92" y="700" type="line"/>
      <point x="236" y="700" type="line"/>
      <point x="236" y="78" type="line"/>
    </contour>
    <contour>
      <point x="477" y="-184" type="line"/>
      <point x="157" y="-184" type="line"/>
      <point x="157" y="-134" type="line"/>
      <point x="157" y="-85" type="line"/>
      <point x="477" y="-85" type="line"/>
      <point x="477" y="-137" type="line"/>
    </contour>
  </outline>
</glyph>
<glyph name="uni1E3B" format="2">
  <advance width="282"/>
  <unicode hex="1E3B"/>
  <outline>
    <contour>
      <point x="209" y="0" type="line"/>
      <point x="73" y="0" type="line"/>
      <point x="73" y="740" type="line"/>
      <point x="209" y="740" type="line"/>
    </contour>
    <contour>
      <point x="284" y="-185" type="line"/>
      <point x="-11" y="-185" type="line"/>
      <point x="-11" y="-86" type="line"/>
      <point x="284" y="-86" type="line"/>
    </contour>
  </outline>
</glyph>
<glyph name="uni1E42" format="2">
  <advance width="869"/>
  <unicode hex="1E42"/>
  <outline>
    <contour>
      <point x="92" y="700" type="line"/>
      <point x="225" y="700" type="line"/>
      <point x="480" y="285" type="line"/>
      <point x="395" y="286" type="line"/>
      <point x="653" y="700" type="line"/>
      <point x="780" y="700" type="line"/>
      <point x="780" y="0" type="line"/>
      <point x="639" y="0" type="line"/>
      <point x="639" y="247" type="line"/>
      <point x="639" y="337"/>
      <point x="648" y="481"/>
      <point x="659" y="552" type="qcurve"/>
      <point x="676" y="506" type="line"/>
      <point x="467" y="183" type="line"/>
      <point x="401" y="183" type="line"/>
      <point x="198" y="504" type="line"/>
      <point x="213" y="552" type="line"/>
      <point x="224" y="485"/>
      <point x="233" y="344"/>
      <point x="233" y="247" type="qcurve"/>
      <point x="233" y="0" type="line"/>
      <point x="92" y="0" type="line"/>
    </contour>
    <contour>
      <point x="523" y="-137" type="qcurve"/>
      <point x="523" y="-171"/>
      <point x="477" y="-214"/>
      <point x="437" y="-214" type="qcurve"/>
      <point x="397" y="-214"/>
      <point x="352" y="-174"/>
      <point x="352" y="-137" type="qcurve"/>
      <point x="352" y="-103"/>
      <point x="398" y="-61"/>
      <point x="437" y="-61" type="qcurve"/>
      <point x="478" y="-61"/>
      <point x="523" y="-101"/>
    </contour>
  </outline>
</glyph>
